  0
SECTION
  2
HEADER
  9
$ACADVER
  1
AC1024
  9
$ACADMAINTVER
 70
     6
  9
$DWGCODEPAGE
  3
ANSI_1252
  9
$INSBASE
 10
0.0
 20
0.0
 30
0.0
  9
$EXTMIN
 10
1.000000000000000E+20
 20
1.000000000000000E+20
 30
1.000000000000000E+20
  9
$EXTMAX
 10
-1.000000000000000E+20
 20
-1.000000000000000E+20
 30
-1.000000000000000E+20
  9
$LIMMIN
 10
0.0
 20
0.0
  9
$LIMMAX
 10
12.0
 20
9.0
  9
$ORTHOMODE
 70
     0
  9
$REGENMODE
 70
     1
  9
$FILLMODE
 70
     1
  9
$QTEXTMODE
 70
     0
  9
$MIRRTEXT
 70
     1
  9
$LTSCALE
 40
1.0
  9
$ATTMODE
 70
     1
  9
$TEXTSIZE
 40
0.2
  9
$TRACEWID
 40
0.05
  9
$TEXTSTYLE
  7
Standard
  9
$CLAYER
  8
0
  9
$CELTYPE
  6
ByLayer
  9
$CECOLOR
 62
   256
  9
$CELTSCALE
 40
1.0
  9
$DISPSILH
 70
     0
  9
$DIMSCALE
 40
1.0
  9
$DIMASZ
 40
0.18
  9
$DIMEXO
 40
0.0625
  9
$DIMDLI
 40
0.38
  9
$DIMRND
 40
0.0
  9
$DIMDLE
 40
0.0
  9
$DIMEXE
 40
0.18
  9
$DIMTP
 40
0.0
  9
$DIMTM
 40
0.0
  9
$DIMTXT
 40
0.18
  9
$DIMCEN
 40
0.09
  9
$DIMTSZ
 40
0.0
  9
$DIMTOL
 70
     0
  9
$DIMLIM
 70
     0
  9
$DIMTIH
 70
     1
  9
$DIMTOH
 70
     1
  9
$DIMSE1
 70
     0
  9
$DIMSE2
 70
     0
  9
$DIMTAD
 70
     0
  9
$DIMZIN
 70
     0
  9
$DIMBLK
  1

  9
$DIMASO
 70
     1
  9
$DIMSHO
 70
     1
  9
$DIMPOST
  1

  9
$DIMAPOST
  1

  9
$DIMALT
 70
     0
  9
$DIMALTD
 70
     2
  9
$DIMALTF
 40
25.4
  9
$DIMLFAC
 40
1.0
  9
$DIMTOFL
 70
     0
  9
$DIMTVP
 40
0.0
  9
$DIMTIX
 70
     0
  9
$DIMSOXD
 70
     0
  9
$DIMSAH
 70
     0
  9
$DIMBLK1
  1

  9
$DIMBLK2
  1

  9
$DIMSTYLE
  2
Standard
  9
$DIMCLRD
 70
     0
  9
$DIMCLRE
 70
     0
  9
$DIMCLRT
 70
     0
  9
$DIMTFAC
 40
1.0
  9
$DIMGAP
 40
0.09
  9
$DIMJUST
 70
     0
  9
$DIMSD1
 70
     0
  9
$DIMSD2
 70
     0
  9
$DIMTOLJ
 70
     1
  9
$DIMTZIN
 70
     0
  9
$DIMALTZ
 70
     0
  9
$DIMALTTZ
 70
     0
  9
$DIMUPT
 70
     0
  9
$DIMDEC
 70
     4
  9
$DIMTDEC
 70
     4
  9
$DIMALTU
 70
     2
  9
$DIMALTTD
 70
     2
  9
$DIMTXSTY
  7
Standard
  9
$DIMAUNIT
 70
     0
  9
$DIMADEC
 70
     0
  9
$DIMALTRND
 40
0.0
  9
$DIMAZIN
 70
     0
  9
$DIMDSEP
 70
    46
  9
$DIMATFIT
 70
     3
  9
$DIMFRAC
 70
     0
  9
$DIMLDRBLK
  1

  9
$DIMLUNIT
 70
     2
  9
$DIMLWD
 70
    -2
  9
$DIMLWE
 70
    -2
  9
$DIMTMOVE
 70
     0
  9
$DIMFXL
 40
1.0
  9
$DIMFXLON
 70
     0
  9
$DIMJOGANG
 40
0.7853981633974483
  9
$DIMTFILL
 70
     0
  9
$DIMTFILLCLR
 70
     0
  9
$DIMARCSYM
 70
     0
  9
$DIMLTYPE
  6

  9
$DIMLTEX1
  6

  9
$DIMLTEX2
  6

  9
$DIMTXTDIRECTION
 70
     0
  9
$LUNITS
 70
     2
  9
$LUPREC
 70
     4
  9
$SKETCHINC
 40
0.1
  9
$FILLETRAD
 40
0.5
  9
$AUNITS
 70
     0
  9
$AUPREC
 70
     0
  9
$MENU
  1
.
  9
$ELEVATION
 40
0.0
  9
$PELEVATION
 40
0.0
  9
$THICKNESS
 40
0.0
  9
$LIMCHECK
 70
     0
  9
$CHAMFERA
 40
0.5
  9
$CHAMFERB
 40
0.5
  9
$CHAMFERC
 40
1.0
  9
$CHAMFERD
 40
0.0
  9
$SKPOLY
 70
     0
  9
$TDCREATE
 40
2457302.507357002
  9
$TDUCREATE
 40
2457302.424023669
  9
$TDUPDATE
 40
2457302.507357002
  9
$TDUUPDATE
 40
2457302.424023669
  9
$TDINDWG
 40
0.0000000116
  9
$TDUSRTIMER
 40
0.0000000116
  9
$USRTIMER
 70
     1
  9
$ANGBASE
 50
0.0
  9
$ANGDIR
 70
     0
  9
$PDMODE
 70
     0
  9
$PDSIZE
 40
0.0
  9
$PLINEWID
 40
0.0
  9
$SPLFRAME
 70
     0
  9
$SPLINETYPE
 70
     6
  9
$SPLINESEGS
 70
     8
  9
$HANDSEED
  5
AC
  9
$SURFTAB1
 70
     6
  9
$SURFTAB2
 70
     6
  9
$SURFTYPE
 70
     6
  9
$SURFU
 70
     6
  9
$SURFV
 70
     6
  9
$UCSBASE
  2

  9
$UCSNAME
  2

  9
$UCSORG
 10
0.0
 20
0.0
 30
0.0
  9
$UCSXDIR
 10
1.0
 20
0.0
 30
0.0
  9
$UCSYDIR
 10
0.0
 20
1.0
 30
0.0
  9
$UCSORTHOREF
  2

  9
$UCSORTHOVIEW
 70
     0
  9
$UCSORGTOP
 10
0.0
 20
0.0
 30
0.0
  9
$UCSORGBOTTOM
 10
0.0
 20
0.0
 30
0.0
  9
$UCSORGLEFT
 10
0.0
 20
0.0
 30
0.0
  9
$UCSORGRIGHT
 10
0.0
 20
0.0
 30
0.0
  9
$UCSORGFRONT
 10
0.0
 20
0.0
 30
0.0
  9
$UCSORGBACK
 10
0.0
 20
0.0
 30
0.0
  9
$PUCSBASE
  2

  9
$PUCSNAME
  2

  9
$PUCSORG
 10
0.0
 20
0.0
 30
0.0
  9
$PUCSXDIR
 10
1.0
 20
0.0
 30
0.0
  9
$PUCSYDIR
 10
0.0
 20
1.0
 30
0.0
  9
$PUCSORTHOREF
  2

  9
$PUCSORTHOVIEW
 70
     0
  9
$PUCSORGTOP
 10
0.0
 20
0.0
 30
0.0
  9
$PUCSORGBOTTOM
 10
0.0
 20
0.0
 30
0.0
  9
$PUCSORGLEFT
 10
0.0
 20
0.0
 30
0.0
  9
$PUCSORGRIGHT
 10
0.0
 20
0.0
 30
0.0
  9
$PUCSORGFRONT
 10
0.0
 20
0.0
 30
0.0
  9
$PUCSORGBACK
 10
0.0
 20
0.0
 30
0.0
  9
$USERI1
 70
     0
  9
$USERI2
 70
     0
  9
$USERI3
 70
     0
  9
$USERI4
 70
     0
  9
$USERI5
 70
     0
  9
$USERR1
 40
0.0
  9
$USERR2
 40
0.0
  9
$USERR3
 40
0.0
  9
$USERR4
 40
0.0
  9
$USERR5
 40
0.0
  9
$WORLDVIEW
 70
     1
  9
$SHADEDGE
 70
     3
  9
$SHADEDIF
 70
    70
  9
$TILEMODE
 70
     1
  9
$MAXACTVP
 70
    64
  9
$PINSBASE
 10
0.0
 20
0.0
 30
0.0
  9
$PLIMCHECK
 70
     0
  9
$PEXTMIN
 10
1.000000000000000E+20
 20
1.000000000000000E+20
 30
1.000000000000000E+20
  9
$PEXTMAX
 10
-1.000000000000000E+20
 20
-1.000000000000000E+20
 30
-1.000000000000000E+20
  9
$PLIMMIN
 10
0.0
 20
0.0
  9
$PLIMMAX
 10
12.0
 20
9.0
  9
$UNITMODE
 70
     0
  9
$VISRETAIN
 70
     1
  9
$PLINEGEN
 70
     0
  9
$PSLTSCALE
 70
     1
  9
$TREEDEPTH
 70
  3020
  9
$CMLSTYLE
  2
Standard
  9
$CMLJUST
 70
     0
  9
$CMLSCALE
 40
1.0
  9
$PROXYGRAPHICS
 70
     1
  9
$MEASUREMENT
 70
     0
  9
$CELWEIGHT
370
    -1
  9
$ENDCAPS
280
     0
  9
$JOINSTYLE
280
     0
  9
$LWDISPLAY
290
     1
  9
$INSUNITS
 70
     1
  9
$HYPERLINKBASE
  1

  9
$STYLESHEET
  1

  9
$XEDIT
290
     1
  9
$CEPSNTYPE
380
     0
  9
$PSTYLEMODE
290
     1
  9
$FINGERPRINTGUID
  2
{79969418-BD17-4A64-A9B1-C4F782A7241D}
  9
$VERSIONGUID
  2
{FAEB1C32-E019-11D5-929B-00C0DF256EC4}
  9
$EXTNAMES
290
     1
  9
$PSVPSCALE
 40
0.0
  9
$OLESTARTUP
290
     0
  9
$SORTENTS
280
   127
  9
$INDEXCTL
280
     0
  9
$HIDETEXT
280
     1
  9
$XCLIPFRAME
280
     2
  9
$HALOGAP
280
     0
  9
$OBSCOLOR
 70
   257
  9
$OBSLTYPE
280
     0
  9
$INTERSECTIONDISPLAY
280
     0
  9
$INTERSECTIONCOLOR
 70
   257
  9
$DIMASSOC
280
     2
  9
$PROJECTNAME
  1

  9
$CAMERADISPLAY
290
     0
  9
$LENSLENGTH
 40
50.0
  9
$CAMERAHEIGHT
 40
0.0
  9
$STEPSPERSEC
 40
2.0
  9
$STEPSIZE
 40
6.0
  9
$3DDWFPREC
 40
2.0
  9
$PSOLWIDTH
 40
0.25
  9
$PSOLHEIGHT
 40
4.0
  9
$LOFTANG1
 40
1.570796326794897
  9
$LOFTANG2
 40
1.570796326794897
  9
$LOFTMAG1
 40
0.0
  9
$LOFTMAG2
 40
0.0
  9
$LOFTPARAM
 70
     7
  9
$LOFTNORMALS
280
     1
  9
$LATITUDE
 40
37.795
  9
$LONGITUDE
 40
-122.394
  9
$NORTHDIRECTION
 40
0.0
  9
$TIMEZONE
 70
 -8000
  9
$LIGHTGLYPHDISPLAY
280
     1
  9
$TILEMODELIGHTSYNCH
280
     1
  9
$CMATERIAL
347
3C
  9
$SOLIDHIST
280
     1
  9
$SHOWHIST
280
     1
  9
$DWFFRAME
280
     2
  9
$DGNFRAME
280
     2
  9
$REALWORLDSCALE
290
     1
  9
$INTERFERECOLOR
 62
   256
  9
$CSHADOW
280
     0
  9
$SHADOWPLANELOCATION
 40
0.0
  0
ENDSEC
  0
SECTION
  2
CLASSES
  0
CLASS
  1
ACDBDICTIONARYWDFLT
  2
AcDbDictionaryWithDefault
  3
ObjectDBX Classes
 90
        0
 91
        4
280
     0
281
     0
  0
CLASS
  1
VISUALSTYLE
  2
AcDbVisualStyle
  3
ObjectDBX Classes
 90
     4095
 91
        4
280
     0
281
     0
  0
CLASS
  1
MATERIAL
  2
AcDbMaterial
  3
ObjectDBX Classes
 90
     1153
 91
        4
280
     0
281
     0
  0
CLASS
  1
SUN
  2
AcDbSun
  3
SCENEOE
 90
     1024
 91
        4
280
     0
281
     0
  0
ENDSEC
  0
SECTION
  2
TABLES
  0
TABLE
  2
VPORT
  5
8
330
0
100
AcDbSymbolTable
 70
     1
  0
VPORT
  5
29
330
8
100
AcDbSymbolTableRecord
100
AcDbViewportTableRecord
  2
*Active
 70
     0
 10
0.0
 20
0.0
 11
1.0
 21
1.0
 12
0.0
 22
0.0
 13
0.0
 23
0.0
 14
0.5
 24
0.5
 15
0.5
 25
0.5
 16
0.0
 26
0.0
 36
1.0
 17
50.0
 27
50.0
 37
0.0
 40
300.0
 41
1.0
 42
50.0
 43
0.0
 44
0.0
 50
0.0
 51
0.0
 71
     0
 72
   100
 73
     1
 74
     3
 75
     0
 76
     0
 77
     0
 78
     0
281
     0
 65
     1
110
0.0
120
0.0
130
0.0
111
1.0
121
0.0
131
0.0
112
0.0
122
1.0
132
0.0
 79
     0
146
0.0
 60
     3
 61
     5
292
     1
282
     1
141
0.0
142
0.0
 63
   250
361
3F
  0
ENDTAB
  0
TABLE
  2
LTYPE
  5
5
330
0
100
AcDbSymbolTable
 70
     1
  0
LTYPE
  5
14
330
5
100
AcDbSymbolTableRecord
100
AcDbLinetypeTableRecord
  2
ByBlock
 70
     0
  3

 72
    65
 73
     0
 40
0.0
  0
LTYPE
  5
15
330
5
100
AcDbSymbolTableRecord
100
AcDbLinetypeTableRecord
  2
ByLayer
 70
     0
  3

 72
    65
 73
     0
 40
0.0
  0
LTYPE
  5
16
330
5
100
AcDbSymbolTableRecord
100
AcDbLinetypeTableRecord
  2
Continuous
 70
     0
  3
Solid line
 72
    65
 73
     0
 40
0.0
  0
ENDTAB
  0
TABLE
  2
LAYER
  5
2
330
0
100
AcDbSymbolTable
 70
     2
  0
LAYER
  5
10
330
2
100
AcDbSymbolTableRecord
100
AcDbLayerTableRecord
  2
0
 70
     0
 62
     7
  6
Continuous
370
    -3
390
F
347
3E
  0
LAYER
  5
40
330
2
100
AcDbSymbolTableRecord
100
AcDbLayerTableRecord
  2
Layer 1
 70
     0
 62
     7
  6
Continuous
370
    -3
390
F
347
3E
  0
ENDTAB
  0
TABLE
  2
STYLE
  5
3
330
0
100
AcDbSymbolTable
 70
     1
  0
STYLE
  5
11
330
3
100
AcDbSymbolTableRecord
100
AcDbTextStyleTableRecord
  2
Standard
 70
     0
 40
0.0
 41
1.0
 50
0.0
 71
     0
 42
0.2
  3
txt
  4

  0
ENDTAB
  0
TABLE
  2
VIEW
  5
6
330
0
100
AcDbSymbolTable
 70
     0
  0
ENDTAB
  0
TABLE
  2
UCS
  5
7
330
0
100
AcDbSymbolTable
 70
     0
  0
ENDTAB
  0
TABLE
  2
APPID
  5
9
330
0
100
AcDbSymbolTable
 70
     1
  0
APPID
  5
12
330
9
100
AcDbSymbolTableRecord
100
AcDbRegAppTableRecord
  2
ACAD
 70
     0
  0
ENDTAB
  0
TABLE
  2
DIMSTYLE
  5
A
330
0
100
AcDbSymbolTable
 70
     1
100
AcDbDimStyleTable
  0
DIMSTYLE
105
27
330
A
100
AcDbSymbolTableRecord
100
AcDbDimStyleTableRecord
  2
Standard
 70
     0
178
     0
340
11
  0
ENDTAB
  0
TABLE
  2
BLOCK_RECORD
  5
1
330
0
100
AcDbSymbolTable
 70
     6
  0
BLOCK_RECORD
  5
1F
330
1
100
AcDbSymbolTableRecord
100
AcDbBlockTableRecord
  2
*Model_Space
340
22
 70
     0
280
     1
281
     0
  0
BLOCK_RECORD
  5
1B
330
1
100
AcDbSymbolTableRecord
100
AcDbBlockTableRecord
  2
*Paper_Space
340
1E
 70
     0
280
     1
281
     0
  0
BLOCK_RECORD
  5
23
330
1
100
AcDbSymbolTableRecord
100
AcDbBlockTableRecord
  2
*Paper_Space0
340
26
 70
     0
280
     1
281
     0
  0
BLOCK_RECORD
  5
41
330
1
100
AcDbSymbolTableRecord
100
AcDbBlockTableRecord
  2
block 2
340
0
102
{BLKREFS
331
42
102
}
 70
     0
280
     1
281
     0
  0
BLOCK_RECORD
  5
45
330
1
100
AcDbSymbolTableRecord
100
AcDbBlockTableRecord
  2
block 3
340
0
102
{BLKREFS
331
46
102
}
 70
     0
280
     1
281
     0
  0
BLOCK_RECORD
  5
79
330
1
100
AcDbSymbolTableRecord
100
AcDbBlockTableRecord
  2
block 4
340
0
102
{BLKREFS
331
7A
102
}
 70
     0
280
     1
281
     0
  0
BLOCK_RECORD
  5
7D
330
1
100
AcDbSymbolTableRecord
100
AcDbBlockTableRecord
  2
block 5
340
0
102
{BLKREFS
331
7E
102
}
 70
     0
280
     1
281
     0
  0
BLOCK_RECORD
  5
A1
330
1
100
AcDbSymbolTableRecord
100
AcDbBlockTableRecord
  2
block 6
340
0
102
{BLKREFS
331
A2
102
}
 70
     0
280
     1
281
     0
  0
ENDTAB
  0
ENDSEC
  0
SECTION
  2
BLOCKS
  0
BLOCK
  5
20
330
1F
100
AcDbEntity
  8
0
100
AcDbBlockBegin
  2
*Model_Space
 70
     0
 10
0.0
 20
0.0
 30
0.0
  3
*Model_Space
  1

  0
ENDBLK
  5
21
330
1F
100
AcDbEntity
  8
0
100
AcDbBlockEnd
  0
BLOCK
  5
1C
330
1B
100
AcDbEntity
 67
     1
  8
0
100
AcDbBlockBegin
  2
*Paper_Space
 70
     0
 10
0.0
 20
0.0
 30
0.0
  3
*Paper_Space
  1

  0
ENDBLK
  5
1D
330
1B
100
AcDbEntity
 67
     1
  8
0
100
AcDbBlockEnd
  0
BLOCK
  5
24
330
23
100
AcDbEntity
  8
0
100
AcDbBlockBegin
  2
*Paper_Space0
 70
     0
 10
0.0
 20
0.0
 30
0.0
  3
*Paper_Space0
  1

  0
ENDBLK
  5
25
330
23
100
AcDbEntity
  8
0
100
AcDbBlockEnd
  0
BLOCK
  5
43
330
41
100
AcDbEntity
  8
0
100
AcDbBlockBegin
  2
block 2
 70
     0
 10
0.0
 20
0.0
 30
0.0
  3
block 2
  1

  0
INSERT
  5
46
330
41
100
AcDbEntity
  8
Layer 1
100
AcDbBlockReference
  2
block 3
 10
0.0
 20
0.0
 30
0.0
  0
SPLINE
  5
78
330
41
100
AcDbEntity
  8
Layer 1
 62
   250
420
  2564903
370
    53
100
AcDbSpline
210
0.0
220
0.0
230
1.0
 70
    11
 71
     3
 72
   137
 73
   133
 74
     0
 42
0.0000000001
 43
0.0000000001
 12
1.0
 22
0.0
 32
0.0
 13
1.0
 23
0.0
 33
0.0
 40
0.0
 40
0.0
 40
0.0
 40
0.0
 40
1.0
 40
1.0
 40
1.0
 40
2.0
 40
2.0
 40
2.0
 40
3.0
 40
3.0
 40
3.0
 40
4.0
 40
4.0
 40
4.0
 40
5.0
 40
5.0
 40
5.0
 40
6.0
 40
6.0
 40
6.0
 40
7.0
 40
7.0
 40
7.0
 40
8.0
 40
8.0
 40
8.0
 40
9.0
 40
9.0
 40
9.0
 40
10.0
 40
10.0
 40
10.0
 40
11.0
 40
11.0
 40
11.0
 40
12.0
 40
12.0
 40
12.0
 40
13.0
 40
13.0
 40
13.0
 40
14.0
 40
14.0
 40
14.0
 40
15.0
 40
15.0
 40
15.0
 40
16.0
 40
16.0
 40
16.0
 40
17.0
 40
17.0
 40
17.0
 40
18.0
 40
18.0
 40
18.0
 40
19.0
 40
19.0
 40
19.0
 40
20.0
 40
20.0
 40
20.0
 40
21.0
 40
21.0
 40
21.0
 40
22.0
 40
22.0
 40
22.0
 40
23.0
 40
23.0
 40
23.0
 40
24.0
 40
24.0
 40
24.0
 40
25.0
 40
25.0
 40
25.0
 40
26.0
 40
26.0
 40
26.0
 40
27.0
 40
27.0
 40
27.0
 40
28.0
 40
28.0
 40
28.0
 40
29.0
 40
29.0
 40
29.0
 40
30.0
 40
30.0
 40
30.0
 40
31.0
 40
31.0
 40
31.0
 40
32.0
 40
32.0
 40
32.0
 40
33.0
 40
33.0
 40
33.0
 40
34.0
 40
34.0
 40
34.0
 40
35.0
 40
35.0
 40
35.0
 40
36.0
 40
36.0
 40
36.0
 40
37.0
 40
37.0
 40
37.0
 40
38.0
 40
38.0
 40
38.0
 40
39.0
 40
39.0
 40
39.0
 40
40.0
 40
40.0
 40
40.0
 40
41.0
 40
41.0
 40
41.0
 40
42.0
 40
42.0
 40
42.0
 40
43.0
 40
43.0
 40
43.0
 40
44.0
 40
44.0
 40
44.0
 40
44.0
 10
36.14916275637006
 20
-8.662186061013927
 30
0.0
 10
36.14916275637006
 20
-8.662186061013927
 30
0.0
 10
32.57099082046079
 20
-8.662186061013927
 30
0.0
 10
32.57099082046079
 20
-8.662186061013927
 30
0.0
 10
32.57099082046079
 20
-8.662186061013927
 30
0.0
 10
13.22628439477103
 20
-8.662186061013927
 30
0.0
 10
13.22628439477103
 20
-8.662186061013927
 30
0.0
 10
13.22628439477103
 20
-8.662186061013927
 30
0.0
 10
13.22628439477103
 20
8.635534083752646
 30
0.0
 10
13.22628439477103
 20
8.635534083752646
 30
0.0
 10
18.34562119970906
 20
9.451958532787103
 30
0.0
 10
22.25934420787598
 20
13.87399775635822
 30
0.0
 10
22.25934420787598
 20
19.22160908256592
 30
0.0
 10
22.25934420787598
 20
25.15425183214938
 30
0.0
 10
17.45684744885148
 20
29.95986709556382
 30
0.0
 10
11.52420469926892
 20
29.95986709556382
 30
0.0
 10
5.59468045406993
 20
29.95986709556382
 30
0.0
 10
0.7890651906609492
 20
25.15425183214938
 30
0.0
 10
0.7890651906609492
 20
19.22160908256592
 30
0.0
 10
0.7890651906609492
 20
13.93512044238014
 30
0.0
 10
4.614222674177654
 20
9.54925586972604
 30
0.0
 10
9.64811245886176
 20
8.659858417984651
 30
0.0
 10
9.64811245886176
 20
8.659858417984651
 30
0.0
 10
9.64811245886176
 20
-8.662186061013927
 30
0.0
 10
9.64811245886176
 20
-8.662186061013927
 30
0.0
 10
9.64811245886176
 20
-8.662186061013927
 30
0.0
 10
-9.593059621114662
 20
-8.662186061013927
 30
0.0
 10
-9.593059621114662
 20
-8.662186061013927
 30
0.0
 10
-9.593059621114662
 20
-8.662186061013927
 30
0.0
 10
-13.17435006141386
 20
-8.662186061013927
 30
0.0
 10
-13.17435006141386
 20
-8.662186061013927
 30
0.0
 10
-13.17435006141386
 20
-8.662186061013927
 30
0.0
 10
-32.52155129061975
 20
-8.662186061013927
 30
0.0
 10
-32.52155129061975
 20
-8.662186061013927
 30
0.0
 10
-32.52155129061975
 20
-8.662186061013927
 30
0.0
 10
-32.52155129061975
 20
8.635534083752646
 30
0.0
 10
-32.52155129061975
 20
8.635534083752646
 30
0.0
 10
-27.40221448567627
 20
9.451958532787103
 30
0.0
 10
-23.48599667399867
 20
13.87399775635822
 30
0.0
 10
-23.48599667399867
 20
19.22160908256592
 30
0.0
 10
-23.48599667399867
 20
25.15425183214938
 30
0.0
 10
-28.2916119374122
 20
29.95986709556382
 30
0.0
 10
-34.2211361826121
 20
29.95986709556382
 30
0.0
 10
-40.15066042780563
 20
29.95986709556382
 30
0.0
 10
-44.95315718683014
 20
25.15425183214938
 30
0.0
 10
-44.95315718683014
 20
19.22160908256592
 30
0.0
 10
-44.95315718683014
 20
13.93512044238014
 30
0.0
 10
-41.13111820770246
 20
9.54925586972604
 30
0.0
 10
-36.10034692740282
 20
8.659858417984651
 30
0.0
 10
-36.10034692740282
 20
8.659858417984651
 30
0.0
 10
-36.10034692740282
 20
-8.662186061013927
 30
0.0
 10
-36.10034692740282
 20
-8.662186061013927
 30
0.0
 10
-36.10034692740282
 20
-8.662186061013927
 30
0.0
 10
-59.03819411007134
 20
-8.662186061013927
 30
0.0
 10
-59.03819411007134
 20
-8.662186061013927
 30
0.0
 10
-59.03819411007134
 20
-8.662186061013927
 30
0.0
 10
-59.05939993991979
 20
-22.74410447986702
 30
0.0
 10
-59.05939993991979
 20
-22.74410447986702
 30
0.0
 10
-59.05939993991979
 20
-22.74410447986702
 30
0.0
 10
-59.0257200925189
 20
-29.56614468119187
 30
0.0
 10
-59.0257200925189
 20
-29.56614468119187
 30
0.0
 10
-64.0602335780759
 20
-30.45491843204945
 30
0.0
 10
-67.8853910615926
 20
-34.84078300470355
 30
0.0
 10
-67.8853910615926
 20
-40.12727164488933
 30
0.0
 10
-67.8853910615926
 20
-46.05991439448371
 30
0.0
 10
-63.07915209730527
 20
-50.87176666666528
 30
0.0
 10
-57.14713304860106
 20
-50.87176666666528
 30
0.0
 10
-51.21449029901214
 20
-50.87176666666528
 30
0.0
 10
-46.40887503560407
 20
-46.05991439448371
 30
0.0
 10
-46.40887503560407
 20
-40.12727164488933
 30
0.0
 10
-46.40887503560407
 20
-34.77966031868164
 30
0.0
 10
-50.32821135166523
 20
-30.35762109511052
 30
0.0
 10
-55.44754815660963
 20
-29.54182034695987
 30
0.0
 10
-55.44754815660963
 20
-29.54182034695987
 30
0.0
 10
-55.44754815660963
 20
-12.24347650130767
 30
0.0
 10
-55.44754815660963
 20
-12.24347650130767
 30
0.0
 10
-55.44754815660963
 20
-12.24347650130767
 30
0.0
 10
-36.10034692740282
 20
-12.24347650130767
 30
0.0
 10
-36.10034692740282
 20
-12.24347650130767
 30
0.0
 10
-36.10034692740282
 20
-12.24347650130767
 30
0.0
 10
-32.52155129061975
 20
-12.24347650130767
 30
0.0
 10
-32.52155129061975
 20
-12.24347650130767
 30
0.0
 10
-32.52155129061975
 20
-12.24347650130767
 30
0.0
 10
-13.17435006141386
 20
-12.24347650130767
 30
0.0
 10
-13.17435006141386
 20
-12.24347650130767
 30
0.0
 10
-13.17435006141386
 20
-12.24347650130767
 30
0.0
 10
-13.17435006141386
 20
-29.56614468119187
 30
0.0
 10
-13.17435006141386
 20
-29.56614468119187
 30
0.0
 10
-18.20512134171349
 20
-30.45491843204945
 30
0.0
 10
-22.0302788252302
 20
-34.84078300470355
 30
0.0
 10
-22.0302788252302
 20
-40.12727164488933
 30
0.0
 10
-22.0302788252302
 20
-46.05991439448371
 30
0.0
 10
-17.22154505742674
 20
-50.87176666666528
 30
0.0
 10
-11.2920208122332
 20
-50.87176666666528
 30
0.0
 10
-5.359378062644282
 20
-50.87176666666528
 30
0.0
 10
-0.5537627992362104
 20
-46.05991439448371
 30
0.0
 10
-0.5537627992362104
 20
-40.12727164488933
 30
0.0
 10
-0.5537627992362104
 20
-34.77966031868164
 30
0.0
 10
-4.470604311786701
 20
-30.35762109511052
 30
0.0
 10
-9.593059621114662
 20
-29.54182034695987
 30
0.0
 10
-9.593059621114662
 20
-29.54182034695987
 30
0.0
 10
-9.593059621114662
 20
-12.24347650130767
 30
0.0
 10
-9.593059621114662
 20
-12.24347650130767
 30
0.0
 10
-9.593059621114662
 20
-12.24347650130767
 30
0.0
 10
9.64811245886176
 20
-12.24347650130767
 30
0.0
 10
9.64811245886176
 20
-12.24347650130767
 30
0.0
 10
9.64811245886176
 20
-12.24347650130767
 30
0.0
 10
13.22628439477103
 20
-12.24347650130767
 30
0.0
 10
13.22628439477103
 20
-12.24347650130767
 30
0.0
 10
13.22628439477103
 20
-12.24347650130767
 30
0.0
 10
32.57099082046079
 20
-12.24347650130767
 30
0.0
 10
32.57099082046079
 20
-12.24347650130767
 30
0.0
 10
32.57099082046079
 20
-12.24347650130767
 30
0.0
 10
32.57099082046079
 20
-29.56614468119187
 30
0.0
 10
32.57099082046079
 20
-29.56614468119187
 30
0.0
 10
27.54021954016662
 20
-30.45491843204945
 30
0.0
 10
23.71506205664991
 20
-34.84078300470355
 30
0.0
 10
23.71506205664991
 20
-40.12727164488933
 30
0.0
 10
23.71506205664991
 20
-46.05991439448371
 30
0.0
 10
28.52379582444792
 20
-50.87176666666528
 30
0.0
 10
34.45581487315758
 20
-50.87176666666528
 30
0.0
 10
40.37910210957216
 20
-50.87176666666528
 30
0.0
 10
45.19407288615548
 20
-46.05991439448371
 30
0.0
 10
45.19407288615548
 20
-40.12727164488933
 30
0.0
 10
45.19407288615548
 20
-34.77966031868164
 30
0.0
 10
41.27473657008795
 20
-30.35762109511052
 30
0.0
 10
36.14916275637006
 20
-29.54182034695987
 30
0.0
 10
36.14916275637006
 20
-29.54182034695987
 30
0.0
 10
36.14916275637006
 20
-12.24347650130767
 30
0.0
 10
36.14916275637006
 20
-12.24347650130767
 30
0.0
 10
36.14916275637006
 20
-12.24347650130767
 30
0.0
 10
36.14916275637006
 20
-8.662186061013927
 30
0.0
 10
36.14916275637006
 20
-8.662186061013927
 30
0.0
  0
INSERT
  5
7A
330
41
100
AcDbEntity
  8
Layer 1
100
AcDbBlockReference
  2
block 4
 10
0.0
 20
0.0
 30
0.0
  0
ENDBLK
  5
44
330
41
100
AcDbEntity
  8
0
100
AcDbBlockEnd
  0
BLOCK
  5
47
330
45
100
AcDbEntity
  8
0
100
AcDbBlockBegin
  2
block 3
 70
     0
 10
0.0
 20
0.0
 30
0.0
  3
block 3
  1

  0
SPLINE
  5
49
330
45
100
AcDbEntity
  8
Layer 1
370
     0
100
AcDbSpline
210
0.0
220
0.0
230
1.0
 70
    11
 71
     3
 72
   137
 73
   133
 74
     0
 42
0.0000000001
 43
0.0000000001
 12
1.0
 22
0.0
 32
0.0
 13
1.0
 23
0.0
 33
0.0
 40
0.0
 40
0.0
 40
0.0
 40
0.0
 40
1.0
 40
1.0
 40
1.0
 40
2.0
 40
2.0
 40
2.0
 40
3.0
 40
3.0
 40
3.0
 40
4.0
 40
4.0
 40
4.0
 40
5.0
 40
5.0
 40
5.0
 40
6.0
 40
6.0
 40
6.0
 40
7.0
 40
7.0
 40
7.0
 40
8.0
 40
8.0
 40
8.0
 40
9.0
 40
9.0
 40
9.0
 40
10.0
 40
10.0
 40
10.0
 40
11.0
 40
11.0
 40
11.0
 40
12.0
 40
12.0
 40
12.0
 40
13.0
 40
13.0
 40
13.0
 40
14.0
 40
14.0
 40
14.0
 40
15.0
 40
15.0
 40
15.0
 40
16.0
 40
16.0
 40
16.0
 40
17.0
 40
17.0
 40
17.0
 40
18.0
 40
18.0
 40
18.0
 40
19.0
 40
19.0
 40
19.0
 40
20.0
 40
20.0
 40
20.0
 40
21.0
 40
21.0
 40
21.0
 40
22.0
 40
22.0
 40
22.0
 40
23.0
 40
23.0
 40
23.0
 40
24.0
 40
24.0
 40
24.0
 40
25.0
 40
25.0
 40
25.0
 40
26.0
 40
26.0
 40
26.0
 40
27.0
 40
27.0
 40
27.0
 40
28.0
 40
28.0
 40
28.0
 40
29.0
 40
29.0
 40
29.0
 40
30.0
 40
30.0
 40
30.0
 40
31.0
 40
31.0
 40
31.0
 40
32.0
 40
32.0
 40
32.0
 40
33.0
 40
33.0
 40
33.0
 40
34.0
 40
34.0
 40
34.0
 40
35.0
 40
35.0
 40
35.0
 40
36.0
 40
36.0
 40
36.0
 40
37.0
 40
37.0
 40
37.0
 40
38.0
 40
38.0
 40
38.0
 40
39.0
 40
39.0
 40
39.0
 40
40.0
 40
40.0
 40
40.0
 40
41.0
 40
41.0
 40
41.0
 40
42.0
 40
42.0
 40
42.0
 40
43.0
 40
43.0
 40
43.0
 40
44.0
 40
44.0
 40
44.0
 40
44.0
 10
35.89032689208398
 20
111.3147858942702
 30
0.0
 10
35.89032689208398
 20
111.3147858942702
 30
0.0
 10
32.32151046934268
 20
111.3147858942702
 30
0.0
 10
32.32151046934268
 20
111.3147858942702
 30
0.0
 10
32.32151046934268
 20
111.3147858942702
 30
0.0
 10
12.96433002609501
 20
111.3147858942702
 30
0.0
 10
12.96433002609501
 20
111.3147858942702
 30
0.0
 10
12.96433002609501
 20
111.3147858942702
 30
0.0
 10
12.96433002609501
 20
128.6162482443006
 30
0.0
 10
12.96433002609501
 20
128.6162482443006
 30
0.0
 10
18.08117202752237
 20
129.4320489924612
 30
0.0
 10
22.00612165148959
 20
133.8540882160332
 30
0.0
 10
22.00612165148959
 20
139.2048180466309
 30
0.0
 10
22.00612165148959
 20
145.1374607962134
 30
0.0
 10
17.19801158456539
 20
149.9493130684068
 30
0.0
 10
11.26536883498193
 20
149.9493130684068
 30
0.0
 10
5.335844589782937
 20
149.9493130684068
 30
0.0
 10
0.5302293263748652
 20
145.1374607962134
 30
0.0
 10
0.5302293263748652
 20
139.2048180466309
 30
0.0
 10
0.5302293263748652
 20
133.9183294064451
 30
0.0
 10
4.352268305501639
 20
129.529346329402
 30
0.0
 10
9.389276594574767
 20
128.6436910829225
 30
0.0
 10
9.389276594574767
 20
128.6436910829225
 30
0.0
 10
9.389276594574767
 20
111.3147858942702
 30
0.0
 10
9.389276594574767
 20
111.3147858942702
 30
0.0
 10
9.389276594574767
 20
111.3147858942702
 30
0.0
 10
-9.848776981011724
 20
111.3147858942702
 30
0.0
 10
-9.848776981011724
 20
111.3147858942702
 30
0.0
 10
-9.848776981011724
 20
111.3147858942702
 30
0.0
 10
-13.43318592570085
 20
111.3147858942702
 30
0.0
 10
-13.43318592570085
 20
111.3147858942702
 30
0.0
 10
-13.43318592570085
 20
111.3147858942702
 30
0.0
 10
-32.78038715490129
 20
111.3147858942702
 30
0.0
 10
-32.78038715490129
 20
111.3147858942702
 30
0.0
 10
-32.78038715490129
 20
111.3147858942702
 30
0.0
 10
-32.78038715490129
 20
128.6162482443006
 30
0.0
 10
-32.78038715490129
 20
128.6162482443006
 30
0.0
 10
-27.65793184557333
 20
129.4320489924612
 30
0.0
 10
-23.74483253828566
 20
133.8540882160332
 30
0.0
 10
-23.74483253828566
 20
139.2048180466309
 30
0.0
 10
-23.74483253828566
 20
145.1374607962134
 30
0.0
 10
-28.54732929730926
 20
149.9493130684068
 30
0.0
 10
-34.47997204689273
 20
149.9493130684068
 30
0.0
 10
-40.40949629209172
 20
149.9493130684068
 30
0.0
 10
-45.21823005988972
 20
145.1374607962134
 30
0.0
 10
-45.21823005988972
 20
139.2048180466309
 30
0.0
 10
-45.21823005988972
 20
133.9183294064451
 30
0.0
 10
-41.38683556759406
 20
129.529346329402
 30
0.0
 10
-36.35918279168982
 20
128.6436910829225
 30
0.0
 10
-36.35918279168982
 20
128.6436910829225
 30
0.0
 10
-36.35918279168982
 20
111.3147858942702
 30
0.0
 10
-36.35918279168982
 20
111.3147858942702
 30
0.0
 10
-36.35918279168982
 20
111.3147858942702
 30
0.0
 10
-59.30014847874736
 20
111.3147858942702
 30
0.0
 10
-59.30014847874736
 20
111.3147858942702
 30
0.0
 10
-59.30014847874736
 20
111.3147858942702
 30
0.0
 10
-59.32135430859034
 20
97.23598597980799
 30
0.0
 10
-59.32135430859034
 20
97.23598597980799
 30
0.0
 10
-59.32135430859034
 20
97.23598597980799
 30
0.0
 10
-59.29079296557848
 20
90.41706428287216
 30
0.0
 10
-59.29079296557848
 20
90.41706428287216
 30
0.0
 10
-64.31906944236198
 20
89.52829053201458
 30
0.0
 10
-68.14672172938936
 20
85.13993115584435
 30
0.0
 10
-68.14672172938936
 20
79.84658180600672
 30
0.0
 10
-68.14672172938936
 20
73.92329456958123
 30
0.0
 10
-63.34110646598128
 20
69.11456080177777
 30
0.0
 10
-57.40596891288169
 20
69.11456080177777
 30
0.0
 10
-51.47956317207172
 20
69.11456080177777
 30
0.0
 10
-46.6677108998847
 20
73.92329456958123
 30
0.0
 10
-46.6677108998847
 20
79.84658180600672
 30
0.0
 10
-46.6677108998847
 20
85.20354864538331
 30
0.0
 10
-50.59016572034125
 20
89.62558786895443
 30
0.0
 10
-55.70638402089025
 20
90.4445071214941
 30
0.0
 10
-55.70638402089025
 20
90.4445071214941
 30
0.0
 10
-55.70638402089025
 20
107.7428509671345
 30
0.0
 10
-55.70638402089025
 20
107.7428509671345
 30
0.0
 10
-55.70638402089025
 20
107.7428509671345
 30
0.0
 10
-36.35918279168982
 20
107.7428509671345
 30
0.0
 10
-36.35918279168982
 20
107.7428509671345
 30
0.0
 10
-36.35918279168982
 20
107.7428509671345
 30
0.0
 10
-32.78038715490129
 20
107.7428509671345
 30
0.0
 10
-32.78038715490129
 20
107.7428509671345
 30
0.0
 10
-32.78038715490129
 20
107.7428509671345
 30
0.0
 10
-13.43318592570085
 20
107.7428509671345
 30
0.0
 10
-13.43318592570085
 20
107.7428509671345
 30
0.0
 10
-13.43318592570085
 20
107.7428509671345
 30
0.0
 10
-13.43318592570085
 20
90.41706428287216
 30
0.0
 10
-13.43318592570085
 20
90.41706428287216
 30
0.0
 10
-18.46395720599412
 20
89.52829053201458
 30
0.0
 10
-22.2859961851218
 20
85.13993115584435
 30
0.0
 10
-22.2859961851218
 20
79.84658180600672
 30
0.0
 10
-22.2859961851218
 20
73.92329456958123
 30
0.0
 10
-17.48038092171373
 20
69.11456080177777
 30
0.0
 10
-11.54773817212481
 20
69.11456080177777
 30
0.0
 10
-5.615719123420604
 20
69.11456080177777
 30
0.0
 10
-0.8125986635168374
 20
73.92329456958123
 30
0.0
 10
-0.8125986635168374
 20
79.84658180600672
 30
0.0
 10
-0.8125986635168374
 20
85.20354864538331
 30
0.0
 10
-4.729440176073695
 20
89.62558786895443
 30
0.0
 10
-9.848776981011724
 20
90.4445071214941
 30
0.0
 10
-9.848776981011724
 20
90.4445071214941
 30
0.0
 10
-9.848776981011724
 20
107.7428509671345
 30
0.0
 10
-9.848776981011724
 20
107.7428509671345
 30
0.0
 10
-9.848776981011724
 20
107.7428509671345
 30
0.0
 10
9.389276594574767
 20
107.7428509671345
 30
0.0
 10
9.389276594574767
 20
107.7428509671345
 30
0.0
 10
9.389276594574767
 20
107.7428509671345
 30
0.0
 10
12.96433002609501
 20
107.7428509671345
 30
0.0
 10
12.96433002609501
 20
107.7428509671345
 30
0.0
 10
12.96433002609501
 20
107.7428509671345
 30
0.0
 10
32.32151046934268
 20
107.7428509671345
 30
0.0
 10
32.32151046934268
 20
107.7428509671345
 30
0.0
 10
32.32151046934268
 20
107.7428509671345
 30
0.0
 10
32.32151046934268
 20
90.41706428287216
 30
0.0
 10
32.32151046934268
 20
90.41706428287216
 30
0.0
 10
27.29011548817016
 20
89.52829053201458
 30
0.0
 10
23.45934469675376
 20
85.13993115584435
 30
0.0
 10
23.45934469675376
 20
79.84658180600672
 30
0.0
 10
23.45934469675376
 20
73.92329456958123
 30
0.0
 10
28.25872295138197
 20
69.11456080177777
 30
0.0
 10
34.19697900887149
 20
69.11456080177777
 30
0.0
 10
40.12962175845496
 20
69.11456080177777
 30
0.0
 10
44.93211851747856
 20
73.92329456958123
 30
0.0
 10
44.93211851747856
 20
79.84658180600672
 30
0.0
 10
44.93211851747856
 20
85.20354864538331
 30
0.0
 10
41.01901921019089
 20
89.62558786895443
 30
0.0
 10
35.89032689208398
 20
90.4445071214941
 30
0.0
 10
35.89032689208398
 20
90.4445071214941
 30
0.0
 10
35.89032689208398
 20
107.7428509671345
 30
0.0
 10
35.89032689208398
 20
107.7428509671345
 30
0.0
 10
35.89032689208398
 20
107.7428509671345
 30
0.0
 10
35.89032689208398
 20
111.3147858942702
 30
0.0
 10
35.89032689208398
 20
111.3147858942702
 30
0.0
  0
HATCH
  5
4A
330
45
100
AcDbEntity
  8
Layer 1
 62
   250
420
  2564903
100
AcDbHatch
 10
0.0
 20
0.0
 30
0.0
210
0.0
220
0.0
230
1.0
  2
SOLID
 70
     1
 71
     0
 91
        1
 92
        1
 93
        1
 72
     4
 94
        3
 73
     0
 74
     1
 95
      137
 96
      133
 40
0.0
 40
0.0
 40
0.0
 40
0.0
 40
1.0
 40
1.0
 40
1.0
 40
2.0
 40
2.0
 40
2.0
 40
3.0
 40
3.0
 40
3.0
 40
4.0
 40
4.0
 40
4.0
 40
5.0
 40
5.0
 40
5.0
 40
6.0
 40
6.0
 40
6.0
 40
7.0
 40
7.0
 40
7.0
 40
8.0
 40
8.0
 40
8.0
 40
9.0
 40
9.0
 40
9.0
 40
10.0
 40
10.0
 40
10.0
 40
11.0
 40
11.0
 40
11.0
 40
12.0
 40
12.0
 40
12.0
 40
13.0
 40
13.0
 40
13.0
 40
14.0
 40
14.0
 40
14.0
 40
15.0
 40
15.0
 40
15.0
 40
16.0
 40
16.0
 40
16.0
 40
17.0
 40
17.0
 40
17.0
 40
18.0
 40
18.0
 40
18.0
 40
19.0
 40
19.0
 40
19.0
 40
20.0
 40
20.0
 40
20.0
 40
21.0
 40
21.0
 40
21.0
 40
22.0
 40
22.0
 40
22.0
 40
23.0
 40
23.0
 40
23.0
 40
24.0
 40
24.0
 40
24.0
 40
25.0
 40
25.0
 40
25.0
 40
26.0
 40
26.0
 40
26.0
 40
27.0
 40
27.0
 40
27.0
 40
28.0
 40
28.0
 40
28.0
 40
29.0
 40
29.0
 40
29.0
 40
30.0
 40
30.0
 40
30.0
 40
31.0
 40
31.0
 40
31.0
 40
32.0
 40
32.0
 40
32.0
 40
33.0
 40
33.0
 40
33.0
 40
34.0
 40
34.0
 40
34.0
 40
35.0
 40
35.0
 40
35.0
 40
36.0
 40
36.0
 40
36.0
 40
37.0
 40
37.0
 40
37.0
 40
38.0
 40
38.0
 40
38.0
 40
39.0
 40
39.0
 40
39.0
 40
40.0
 40
40.0
 40
40.0
 40
41.0
 40
41.0
 40
41.0
 40
42.0
 40
42.0
 40
42.0
 40
43.0
 40
43.0
 40
43.0
 40
44.0
 40
44.0
 40
44.0
 40
44.0
 10
35.89032689208398
 20
111.3147858942702
 10
35.89032689208398
 20
111.3147858942702
 10
32.32151046934268
 20
111.3147858942702
 10
32.32151046934268
 20
111.3147858942702
 10
32.32151046934268
 20
111.3147858942702
 10
12.96433002609501
 20
111.3147858942702
 10
12.96433002609501
 20
111.3147858942702
 10
12.96433002609501
 20
111.3147858942702
 10
12.96433002609501
 20
128.6162482443006
 10
12.96433002609501
 20
128.6162482443006
 10
18.08117202752237
 20
129.4320489924612
 10
22.00612165148959
 20
133.8540882160332
 10
22.00612165148959
 20
139.2048180466309
 10
22.00612165148959
 20
145.1374607962134
 10
17.19801158456539
 20
149.9493130684068
 10
11.26536883498193
 20
149.9493130684068
 10
5.335844589782937
 20
149.9493130684068
 10
0.5302293263748652
 20
145.1374607962134
 10
0.5302293263748652
 20
139.2048180466309
 10
0.5302293263748652
 20
133.9183294064451
 10
4.352268305501639
 20
129.529346329402
 10
9.389276594574767
 20
128.6436910829225
 10
9.389276594574767
 20
128.6436910829225
 10
9.389276594574767
 20
111.3147858942702
 10
9.389276594574767
 20
111.3147858942702
 10
9.389276594574767
 20
111.3147858942702
 10
-9.848776981011724
 20
111.3147858942702
 10
-9.848776981011724
 20
111.3147858942702
 10
-9.848776981011724
 20
111.3147858942702
 10
-13.43318592570085
 20
111.3147858942702
 10
-13.43318592570085
 20
111.3147858942702
 10
-13.43318592570085
 20
111.3147858942702
 10
-32.78038715490129
 20
111.3147858942702
 10
-32.78038715490129
 20
111.3147858942702
 10
-32.78038715490129
 20
111.3147858942702
 10
-32.78038715490129
 20
128.6162482443006
 10
-32.78038715490129
 20
128.6162482443006
 10
-27.65793184557333
 20
129.4320489924612
 10
-23.74483253828566
 20
133.8540882160332
 10
-23.74483253828566
 20
139.2048180466309
 10
-23.74483253828566
 20
145.1374607962134
 10
-28.54732929730926
 20
149.9493130684068
 10
-34.47997204689273
 20
149.9493130684068
 10
-40.40949629209172
 20
149.9493130684068
 10
-45.21823005988972
 20
145.1374607962134
 10
-45.21823005988972
 20
139.2048180466309
 10
-45.21823005988972
 20
133.9183294064451
 10
-41.38683556759406
 20
129.529346329402
 10
-36.35918279168982
 20
128.6436910829225
 10
-36.35918279168982
 20
128.6436910829225
 10
-36.35918279168982
 20
111.3147858942702
 10
-36.35918279168982
 20
111.3147858942702
 10
-36.35918279168982
 20
111.3147858942702
 10
-59.30014847874736
 20
111.3147858942702
 10
-59.30014847874736
 20
111.3147858942702
 10
-59.30014847874736
 20
111.3147858942702
 10
-59.32135430859034
 20
97.23598597980799
 10
-59.32135430859034
 20
97.23598597980799
 10
-59.32135430859034
 20
97.23598597980799
 10
-59.29079296557848
 20
90.41706428287216
 10
-59.29079296557848
 20
90.41706428287216
 10
-64.31906944236198
 20
89.52829053201458
 10
-68.14672172938936
 20
85.13993115584435
 10
-68.14672172938936
 20
79.84658180600672
 10
-68.14672172938936
 20
73.92329456958123
 10
-63.34110646598128
 20
69.11456080177777
 10
-57.40596891288169
 20
69.11456080177777
 10
-51.47956317207172
 20
69.11456080177777
 10
-46.6677108998847
 20
73.92329456958123
 10
-46.6677108998847
 20
79.84658180600672
 10
-46.6677108998847
 20
85.20354864538331
 10
-50.59016572034125
 20
89.62558786895443
 10
-55.70638402089025
 20
90.4445071214941
 10
-55.70638402089025
 20
90.4445071214941
 10
-55.70638402089025
 20
107.7428509671345
 10
-55.70638402089025
 20
107.7428509671345
 10
-55.70638402089025
 20
107.7428509671345
 10
-36.35918279168982
 20
107.7428509671345
 10
-36.35918279168982
 20
107.7428509671345
 10
-36.35918279168982
 20
107.7428509671345
 10
-32.78038715490129
 20
107.7428509671345
 10
-32.78038715490129
 20
107.7428509671345
 10
-32.78038715490129
 20
107.7428509671345
 10
-13.43318592570085
 20
107.7428509671345
 10
-13.43318592570085
 20
107.7428509671345
 10
-13.43318592570085
 20
107.7428509671345
 10
-13.43318592570085
 20
90.41706428287216
 10
-13.43318592570085
 20
90.41706428287216
 10
-18.46395720599412
 20
89.52829053201458
 10
-22.2859961851218
 20
85.13993115584435
 10
-22.2859961851218
 20
79.84658180600672
 10
-22.2859961851218
 20
73.92329456958123
 10
-17.48038092171373
 20
69.11456080177777
 10
-11.54773817212481
 20
69.11456080177777
 10
-5.615719123420604
 20
69.11456080177777
 10
-0.8125986635168374
 20
73.92329456958123
 10
-0.8125986635168374
 20
79.84658180600672
 10
-0.8125986635168374
 20
85.20354864538331
 10
-4.729440176073695
 20
89.62558786895443
 10
-9.848776981011724
 20
90.4445071214941
 10
-9.848776981011724
 20
90.4445071214941
 10
-9.848776981011724
 20
107.7428509671345
 10
-9.848776981011724
 20
107.7428509671345
 10
-9.848776981011724
 20
107.7428509671345
 10
9.389276594574767
 20
107.7428509671345
 10
9.389276594574767
 20
107.7428509671345
 10
9.389276594574767
 20
107.7428509671345
 10
12.96433002609501
 20
107.7428509671345
 10
12.96433002609501
 20
107.7428509671345
 10
12.96433002609501
 20
107.7428509671345
 10
32.32151046934268
 20
107.7428509671345
 10
32.32151046934268
 20
107.7428509671345
 10
32.32151046934268
 20
107.7428509671345
 10
32.32151046934268
 20
90.41706428287216
 10
32.32151046934268
 20
90.41706428287216
 10
27.29011548817016
 20
89.52829053201458
 10
23.45934469675376
 20
85.13993115584435
 10
23.45934469675376
 20
79.84658180600672
 10
23.45934469675376
 20
73.92329456958123
 10
28.25872295138197
 20
69.11456080177777
 10
34.19697900887149
 20
69.11456080177777
 10
40.12962175845496
 20
69.11456080177777
 10
44.93211851747856
 20
73.92329456958123
 10
44.93211851747856
 20
79.84658180600672
 10
44.93211851747856
 20
85.20354864538331
 10
41.01901921019089
 20
89.62558786895443
 10
35.89032689208398
 20
90.4445071214941
 10
35.89032689208398
 20
90.4445071214941
 10
35.89032689208398
 20
107.7428509671345
 10
35.89032689208398
 20
107.7428509671345
 10
35.89032689208398
 20
107.7428509671345
 10
35.89032689208398
 20
111.3147858942702
 10
35.89032689208398
 20
111.3147858942702
 97
        0
 97
        0
 75
     2
 76
     1
 98
        0
  0
SPLINE
  5
4B
330
45
100
AcDbEntity
  8
Layer 1
370
     0
100
AcDbSpline
210
0.0
220
0.0
230
1.0
 70
    11
 71
     3
 72
    62
 73
    58
 74
     0
 42
0.0000000001
 43
0.0000000001
 12
1.0
 22
0.0
 32
0.0
 13
1.0
 23
0.0
 33
0.0
 40
0.0
 40
0.0
 40
0.0
 40
0.0
 40
1.0
 40
1.0
 40
1.0
 40
2.0
 40
2.0
 40
2.0
 40
3.0
 40
3.0
 40
3.0
 40
4.0
 40
4.0
 40
4.0
 40
5.0
 40
5.0
 40
5.0
 40
6.0
 40
6.0
 40
6.0
 40
7.0
 40
7.0
 40
7.0
 40
8.0
 40
8.0
 40
8.0
 40
9.0
 40
9.0
 40
9.0
 40
10.0
 40
10.0
 40
10.0
 40
11.0
 40
11.0
 40
11.0
 40
12.0
 40
12.0
 40
12.0
 40
13.0
 40
13.0
 40
13.0
 40
14.0
 40
14.0
 40
14.0
 40
15.0
 40
15.0
 40
15.0
 40
16.0
 40
16.0
 40
16.0
 40
17.0
 40
17.0
 40
17.0
 40
18.0
 40
18.0
 40
18.0
 40
19.0
 40
19.0
 40
19.0
 40
19.0
 10
57.40301756899498
 20
140.9680204281558
 30
0.0
 10
57.40301756899498
 20
140.9680204281558
 30
0.0
 10
78.95874360646485
 20
140.9680204281558
 30
0.0
 10
78.95874360646485
 20
140.9680204281558
 30
0.0
 10
80.43878578946533
 20
140.9405775895339
 30
0.0
 10
81.71175928105004
 20
140.7946315841291
 30
0.0
 10
82.75957675574318
 20
140.5451512330174
 30
0.0
 10
83.83109486379544
 20
140.2863153687249
 30
0.0
 10
84.7392033418655
 20
139.8597039683127
 30
0.0
 10
85.48826809609636
 20
139.2809095537168
 30
0.0
 10
86.231095841551
 20
138.6996203356157
 30
0.0
 10
86.79741623858718
 20
137.9075202208132
 30
0.0
 10
87.19970330476826
 20
136.911469918974
 30
0.0
 10
87.60760367884359
 20
135.9160433180186
 30
0.0
 10
87.80282205359617
 20
134.6642756562878
 30
0.0
 10
87.80282205359617
 20
133.1443166170957
 30
0.0
 10
87.80282205359617
 20
133.1443166170957
 30
0.0
 10
87.80282205359617
 20
119.6380741084504
 30
0.0
 10
87.80282205359617
 20
119.6380741084504
 30
0.0
 10
87.80282205359617
 20
119.6380741084504
 30
0.0
 10
82.18701934992714
 20
119.6380741084504
 30
0.0
 10
82.18701934992714
 20
119.6380741084504
 30
0.0
 10
82.18701934992714
 20
119.6380741084504
 30
0.0
 10
82.18701934992714
 20
132.4382872234337
 30
0.0
 10
82.18701934992714
 20
132.4382872234337
 30
0.0
 10
82.18701934992714
 20
134.043069581996
 30
0.0
 10
81.91882797247672
 20
135.087768552311
 30
0.0
 10
81.36435789211282
 20
135.5624049203034
 30
0.0
 10
80.8161248205397
 20
136.0526338102545
 30
0.0
 10
79.8905527178922
 20
136.2840268359141
 30
0.0
 10
78.57516756662153
 20
136.2840268359141
 30
0.0
 10
78.31945020671992
 20
136.2840268359141
 30
0.0
 10
77.88036478875983
 20
136.2815320324089
 30
0.0
 10
77.23483438023504
 20
136.27217651924
 30
0.0
 10
76.58930397172298
 20
136.254089193787
 30
0.0
 10
75.99242223167312
 20
136.2416151762282
 30
0.0
 10
75.39554049162507
 20
136.226646355165
 30
0.0
 10
75.39554049162507
 20
136.226646355165
 30
0.0
 10
75.39554049162507
 20
119.6380741084504
 30
0.0
 10
75.39554049162507
 20
119.6380741084504
 30
0.0
 10
75.39554049162507
 20
119.6380741084504
 30
0.0
 10
69.64002879133113
 20
119.6380741084504
 30
0.0
 10
69.64002879133113
 20
119.6380741084504
 30
0.0
 10
69.64002879133113
 20
119.6380741084504
 30
0.0
 10
69.64002879133113
 20
136.226646355165
 30
0.0
 10
69.64002879133113
 20
136.226646355165
 30
0.0
 10
69.64002879133113
 20
136.226646355165
 30
0.0
 10
63.006969955979
 20
136.226646355165
 30
0.0
 10
63.006969955979
 20
136.226646355165
 30
0.0
 10
63.006969955979
 20
136.226646355165
 30
0.0
 10
63.006969955979
 20
119.6380741084504
 30
0.0
 10
63.006969955979
 20
119.6380741084504
 30
0.0
 10
63.006969955979
 20
119.6380741084504
 30
0.0
 10
57.40301756899498
 20
119.6380741084504
 30
0.0
 10
57.40301756899498
 20
119.6380741084504
 30
0.0
 10
57.40301756899498
 20
119.6380741084504
 30
0.0
 10
57.40301756899498
 20
140.9680204281558
 30
0.0
 10
57.40301756899498
 20
140.9680204281558
 30
0.0
  0
HATCH
  5
4C
330
45
100
AcDbEntity
  8
Layer 1
 62
   250
420
  2564903
100
AcDbHatch
 10
0.0
 20
0.0
 30
0.0
210
0.0
220
0.0
230
1.0
  2
SOLID
 70
     1
 71
     0
 91
        1
 92
        1
 93
        1
 72
     4
 94
        3
 73
     0
 74
     1
 95
       62
 96
       58
 40
0.0
 40
0.0
 40
0.0
 40
0.0
 40
1.0
 40
1.0
 40
1.0
 40
2.0
 40
2.0
 40
2.0
 40
3.0
 40
3.0
 40
3.0
 40
4.0
 40
4.0
 40
4.0
 40
5.0
 40
5.0
 40
5.0
 40
6.0
 40
6.0
 40
6.0
 40
7.0
 40
7.0
 40
7.0
 40
8.0
 40
8.0
 40
8.0
 40
9.0
 40
9.0
 40
9.0
 40
10.0
 40
10.0
 40
10.0
 40
11.0
 40
11.0
 40
11.0
 40
12.0
 40
12.0
 40
12.0
 40
13.0
 40
13.0
 40
13.0
 40
14.0
 40
14.0
 40
14.0
 40
15.0
 40
15.0
 40
15.0
 40
16.0
 40
16.0
 40
16.0
 40
17.0
 40
17.0
 40
17.0
 40
18.0
 40
18.0
 40
18.0
 40
19.0
 40
19.0
 40
19.0
 40
19.0
 10
57.40301756899498
 20
140.9680204281558
 10
57.40301756899498
 20
140.9680204281558
 10
78.95874360646485
 20
140.9680204281558
 10
78.95874360646485
 20
140.9680204281558
 10
80.43878578946533
 20
140.9405775895339
 10
81.71175928105004
 20
140.7946315841291
 10
82.75957675574318
 20
140.5451512330174
 10
83.83109486379544
 20
140.2863153687249
 10
84.7392033418655
 20
139.8597039683127
 10
85.48826809609636
 20
139.2809095537168
 10
86.231095841551
 20
138.6996203356157
 10
86.79741623858718
 20
137.9075202208132
 10
87.19970330476826
 20
136.911469918974
 10
87.60760367884359
 20
135.9160433180186
 10
87.80282205359617
 20
134.6642756562878
 10
87.80282205359617
 20
133.1443166170957
 10
87.80282205359617
 20
133.1443166170957
 10
87.80282205359617
 20
119.6380741084504
 10
87.80282205359617
 20
119.6380741084504
 10
87.80282205359617
 20
119.6380741084504
 10
82.18701934992714
 20
119.6380741084504
 10
82.18701934992714
 20
119.6380741084504
 10
82.18701934992714
 20
119.6380741084504
 10
82.18701934992714
 20
132.4382872234337
 10
82.18701934992714
 20
132.4382872234337
 10
82.18701934992714
 20
134.043069581996
 10
81.91882797247672
 20
135.087768552311
 10
81.36435789211282
 20
135.5624049203034
 10
80.8161248205397
 20
136.0526338102545
 10
79.8905527178922
 20
136.2840268359141
 10
78.57516756662153
 20
136.2840268359141
 10
78.31945020671992
 20
136.2840268359141
 10
77.88036478875983
 20
136.2815320324089
 10
77.23483438023504
 20
136.27217651924
 10
76.58930397172298
 20
136.254089193787
 10
75.99242223167312
 20
136.2416151762282
 10
75.39554049162507
 20
136.226646355165
 10
75.39554049162507
 20
136.226646355165
 10
75.39554049162507
 20
119.6380741084504
 10
75.39554049162507
 20
119.6380741084504
 10
75.39554049162507
 20
119.6380741084504
 10
69.64002879133113
 20
119.6380741084504
 10
69.64002879133113
 20
119.6380741084504
 10
69.64002879133113
 20
119.6380741084504
 10
69.64002879133113
 20
136.226646355165
 10
69.64002879133113
 20
136.226646355165
 10
69.64002879133113
 20
136.226646355165
 10
63.006969955979
 20
136.226646355165
 10
63.006969955979
 20
136.226646355165
 10
63.006969955979
 20
136.226646355165
 10
63.006969955979
 20
119.6380741084504
 10
63.006969955979
 20
119.6380741084504
 10
63.006969955979
 20
119.6380741084504
 10
57.40301756899498
 20
119.6380741084504
 10
57.40301756899498
 20
119.6380741084504
 10
57.40301756899498
 20
119.6380741084504
 10
57.40301756899498
 20
140.9680204281558
 10
57.40301756899498
 20
140.9680204281558
 97
        0
 97
        0
 75
     2
 76
     1
 98
        0
  0
POLYLINE
  5
4D
330
45
100
AcDbEntity
  8
Layer 1
370
     0
100
AcDb2dPolyline
 66
     1
 10
0.0
 20
0.0
 30
0.0
  0
VERTEX
  5
4E
330
4D
100
AcDbEntity
  8
Layer 1
370
     0
100
AcDbVertex
100
AcDb2dVertex
 10
98.69887638867112
 20
119.6411926128403
 30
0.0
  0
VERTEX
  5
4F
330
4D
100
AcDbEntity
  8
Layer 1
370
     0
100
AcDbVertex
100
AcDb2dVertex
 10
92.86415467690131
 20
119.6411926128403
 30
0.0
  0
VERTEX
  5
50
330
4D
100
AcDbEntity
  8
Layer 1
370
     0
100
AcDbVertex
100
AcDb2dVertex
 10
92.86415467690131
 20
140.9711389325448
 30
0.0
  0
VERTEX
  5
51
330
4D
100
AcDbEntity
  8
Layer 1
370
     0
100
AcDbVertex
100
AcDb2dVertex
 10
98.69887638867112
 20
140.9711389325448
 30
0.0
  0
VERTEX
  5
52
330
4D
100
AcDbEntity
  8
Layer 1
370
     0
100
AcDbVertex
100
AcDb2dVertex
 10
98.69887638867112
 20
119.6411926128403
 30
0.0
  0
SEQEND
  5
53
330
4D
100
AcDbEntity
  8
Layer 1
370
     0
  0
POLYLINE
  5
54
330
45
100
AcDbEntity
  8
Layer 1
370
     0
100
AcDb2dPolyline
 66
     1
 10
0.0
 20
0.0
 30
0.0
  0
VERTEX
  5
55
330
54
100
AcDbEntity
  8
Layer 1
370
     0
100
AcDbVertex
100
AcDb2dVertex
 10
98.69887638867112
 20
145.5790410177005
 30
0.0
  0
VERTEX
  5
56
330
54
100
AcDbEntity
  8
Layer 1
370
     0
100
AcDbVertex
100
AcDb2dVertex
 10
92.86415467690131
 20
145.5790410177005
 30
0.0
  0
VERTEX
  5
57
330
54
100
AcDbEntity
  8
Layer 1
370
     0
100
AcDbVertex
100
AcDb2dVertex
 10
92.86415467690131
 20
150.8717666666653
 30
0.0
  0
VERTEX
  5
58
330
54
100
AcDbEntity
  8
Layer 1
370
     0
100
AcDbVertex
100
AcDb2dVertex
 10
98.69887638867112
 20
150.8717666666653
 30
0.0
  0
VERTEX
  5
59
330
54
100
AcDbEntity
  8
Layer 1
370
     0
100
AcDbVertex
100
AcDb2dVertex
 10
98.69887638867112
 20
145.5790410177005
 30
0.0
  0
SEQEND
  5
5A
330
54
100
AcDbEntity
  8
Layer 1
370
     0
  0
HATCH
  5
5B
330
45
100
AcDbEntity
  8
Layer 1
 62
   250
420
  2564903
100
AcDbHatch
 10
0.0
 20
0.0
 30
0.0
210
0.0
220
0.0
230
1.0
  2
SOLID
 70
     1
 71
     0
 91
        2
 92
        1
 93
        4
 72
     1
 10
98.69887638867112
 20
119.6411926128403
 11
92.86415467690131
 21
119.6411926128403
 72
     1
 10
92.86415467690131
 20
119.6411926128403
 11
92.86415467690131
 21
140.9711389325448
 72
     1
 10
92.86415467690131
 20
140.9711389325448
 11
98.69887638867112
 21
140.9711389325448
 72
     1
 10
98.69887638867112
 20
140.9711389325448
 11
98.69887638867112
 21
119.6411926128403
 97
        0
 92
        1
 93
        4
 72
     1
 10
98.69887638867112
 20
145.5790410177005
 11
92.86415467690131
 21
145.5790410177005
 72
     1
 10
92.86415467690131
 20
145.5790410177005
 11
92.86415467690131
 21
150.8717666666653
 72
     1
 10
92.86415467690131
 20
150.8717666666653
 11
98.69887638867112
 21
150.8717666666653
 72
     1
 10
98.69887638867112
 20
150.8717666666653
 11
98.69887638867112
 21
145.5790410177005
 97
        0
 75
     2
 76
     1
 98
        0
  0
POLYLINE
  5
5C
330
45
100
AcDbEntity
  8
Layer 1
370
     0
100
AcDb2dPolyline
 66
     1
 10
0.0
 20
0.0
 30
0.0
  0
VERTEX
  5
5D
330
5C
100
AcDbEntity
  8
Layer 1
370
     0
100
AcDbVertex
100
AcDb2dVertex
 10
103.754595704082
 20
150.8717666666653
 30
0.0
  0
VERTEX
  5
5E
330
5C
100
AcDbEntity
  8
Layer 1
370
     0
100
AcDbVertex
100
AcDb2dVertex
 10
109.3579243901931
 20
150.8717666666653
 30
0.0
  0
VERTEX
  5
5F
330
5C
100
AcDbEntity
  8
Layer 1
370
     0
100
AcDbVertex
100
AcDb2dVertex
 10
109.3579243901931
 20
130.7019039796569
 30
0.0
  0
VERTEX
  5
60
330
5C
100
AcDbEntity
  8
Layer 1
370
     0
100
AcDbVertex
100
AcDb2dVertex
 10
118.451483188448
 20
140.9680204281558
 30
0.0
  0
VERTEX
  5
61
330
5C
100
AcDbEntity
  8
Layer 1
370
     0
100
AcDbVertex
100
AcDb2dVertex
 10
125.5660391014553
 20
140.9680204281558
 30
0.0
  0
VERTEX
  5
62
330
5C
100
AcDbEntity
  8
Layer 1
370
     0
100
AcDbVertex
100
AcDb2dVertex
 10
115.680380188398
 20
130.5466024610841
 30
0.0
  0
VERTEX
  5
63
330
5C
100
AcDbEntity
  8
Layer 1
370
     0
100
AcDbVertex
100
AcDb2dVertex
 10
125.5660391014553
 20
119.6411926128403
 30
0.0
  0
VERTEX
  5
64
330
5C
100
AcDbEntity
  8
Layer 1
370
     0
100
AcDbVertex
100
AcDb2dVertex
 10
117.9643728028859
 20
119.6411926128403
 30
0.0
  0
VERTEX
  5
65
330
5C
100
AcDbEntity
  8
Layer 1
370
     0
100
AcDbVertex
100
AcDb2dVertex
 10
109.3579243901931
 20
129.9927560815931
 30
0.0
  0
VERTEX
  5
66
330
5C
100
AcDbEntity
  8
Layer 1
370
     0
100
AcDbVertex
100
AcDb2dVertex
 10
109.3579243901931
 20
119.6411926128403
 30
0.0
  0
VERTEX
  5
67
330
5C
100
AcDbEntity
  8
Layer 1
370
     0
100
AcDbVertex
100
AcDb2dVertex
 10
103.754595704082
 20
119.6411926128403
 30
0.0
  0
VERTEX
  5
68
330
5C
100
AcDbEntity
  8
Layer 1
370
     0
100
AcDbVertex
100
AcDb2dVertex
 10
103.754595704082
 20
150.8717666666653
 30
0.0
  0
SEQEND
  5
6A
330
5C
100
AcDbEntity
  8
Layer 1
370
     0
  0
HATCH
  5
69
330
45
100
AcDbEntity
  8
Layer 1
 62
   250
420
  2564903
100
AcDbHatch
 10
0.0
 20
0.0
 30
0.0
210
0.0
220
0.0
230
1.0
  2
SOLID
 70
     1
 71
     0
 91
        1
 92
        1
 93
       11
 72
     1
 10
103.754595704082
 20
150.8717666666653
 11
109.3579243901931
 21
150.8717666666653
 72
     1
 10
109.3579243901931
 20
150.8717666666653
 11
109.3579243901931
 21
130.7019039796569
 72
     1
 10
109.3579243901931
 20
130.7019039796569
 11
118.451483188448
 21
140.9680204281558
 72
     1
 10
118.451483188448
 20
140.9680204281558
 11
125.5660391014553
 21
140.9680204281558
 72
     1
 10
125.5660391014553
 20
140.9680204281558
 11
115.680380188398
 21
130.5466024610841
 72
     1
 10
115.680380188398
 20
130.5466024610841
 11
125.5660391014553
 21
119.6411926128403
 72
     1
 10
125.5660391014553
 20
119.6411926128403
 11
117.9643728028859
 21
119.6411926128403
 72
     1
 10
117.9643728028859
 20
119.6411926128403
 11
109.3579243901931
 21
129.9927560815931
 72
     1
 10
109.3579243901931
 20
129.9927560815931
 11
109.3579243901931
 21
119.6411926128403
 72
     1
 10
109.3579243901931
 20
119.6411926128403
 11
103.754595704082
 21
119.6411926128403
 72
     1
 10
103.754595704082
 20
119.6411926128403
 11
103.754595704082
 21
150.8717666666653
 97
        0
 75
     2
 76
     1
 98
        0
  0
SPLINE
  5
6B
330
45
100
AcDbEntity
  8
Layer 1
370
     0
100
AcDbSpline
210
0.0
220
0.0
230
1.0
 70
    11
 71
     3
 72
    50
 73
    46
 74
     0
 42
0.0000000001
 43
0.0000000001
 12
1.0
 22
0.0
 32
0.0
 13
1.0
 23
0.0
 33
0.0
 40
0.0
 40
0.0
 40
0.0
 40
0.0
 40
1.0
 40
1.0
 40
1.0
 40
2.0
 40
2.0
 40
2.0
 40
3.0
 40
3.0
 40
3.0
 40
4.0
 40
4.0
 40
4.0
 40
5.0
 40
5.0
 40
5.0
 40
6.0
 40
6.0
 40
6.0
 40
7.0
 40
7.0
 40
7.0
 40
8.0
 40
8.0
 40
8.0
 40
9.0
 40
9.0
 40
9.0
 40
10.0
 40
10.0
 40
10.0
 40
11.0
 40
11.0
 40
11.0
 40
12.0
 40
12.0
 40
12.0
 40
13.0
 40
13.0
 40
13.0
 40
14.0
 40
14.0
 40
14.0
 40
15.0
 40
15.0
 40
15.0
 40
15.0
 10
127.9167677098594
 20
140.9680204281558
 30
0.0
 10
127.9167677098594
 20
140.9680204281558
 30
0.0
 10
137.4001395567357
 20
140.9680204281558
 30
0.0
 10
137.4001395567357
 20
140.9680204281558
 30
0.0
 10
139.1421361084194
 20
140.9680204281558
 30
0.0
 10
140.4575212596883
 20
140.7278955902011
 30
0.0
 10
141.3107440605127
 20
140.234548195871
 30
0.0
 10
142.1695801692331
 20
139.7468141094359
 30
0.0
 10
142.7234265487114
 20
139.0676038535103
 30
0.0
 10
142.9610565831499
 20
138.1969174281176
 30
0.0
 10
143.2167739430533
 20
137.3168754895441
 30
0.0
 10
143.3446326229932
 20
136.1561681559733
 30
0.0
 10
143.3446326229932
 20
134.7066873159729
 30
0.0
 10
143.3446326229932
 20
134.7066873159729
 30
0.0
 10
143.3446326229932
 20
133.2964996312794
 30
0.0
 10
143.3446326229932
 20
133.2964996312794
 30
0.0
 10
143.339019315099
 20
132.9253976089949
 30
0.0
 10
143.339019315099
 20
132.5081417217407
 30
0.0
 10
143.339019315099
 20
132.0453556704224
 30
0.0
 10
143.339019315099
 20
132.0453556704224
 30
0.0
 10
137.9608466458685
 20
132.0453556704224
 30
0.0
 10
137.9608466458685
 20
132.0453556704224
 30
0.0
 10
137.9608466458685
 20
132.0453556704224
 30
0.0
 10
137.9608466458685
 20
133.8752940458753
 30
0.0
 10
137.9608466458685
 20
133.8752940458753
 30
0.0
 10
137.9608466458685
 20
134.9106375030105
 30
0.0
 10
137.8872499422869
 20
135.6054402808732
 30
0.0
 10
137.7781022886738
 20
135.9827793119366
 30
0.0
 10
137.6377695911742
 20
136.3545050351049
 30
0.0
 10
137.3695782137256
 20
136.5952535739334
 30
0.0
 10
136.9435905141854
 20
136.7044012275474
 30
0.0
 10
136.5232161225522
 20
136.8079355732661
 30
0.0
 10
135.7679143595415
 20
136.86282125051
 30
0.0
 10
134.6839222339422
 20
136.86282125051
 30
0.0
 10
134.6839222339422
 20
136.86282125051
 30
0.0
 10
133.5325704135284
 20
136.86282125051
 30
0.0
 10
133.5325704135284
 20
136.86282125051
 30
0.0
 10
133.5325704135284
 20
136.86282125051
 30
0.0
 10
133.5325704135284
 20
119.6380741084504
 30
0.0
 10
133.5325704135284
 20
119.6380741084504
 30
0.0
 10
133.5325704135284
 20
119.6380741084504
 30
0.0
 10
127.9167677098594
 20
119.6380741084504
 30
0.0
 10
127.9167677098594
 20
119.6380741084504
 30
0.0
 10
127.9167677098594
 20
119.6380741084504
 30
0.0
 10
127.9167677098594
 20
140.9680204281558
 30
0.0
 10
127.9167677098594
 20
140.9680204281558
 30
0.0
  0
HATCH
  5
6C
330
45
100
AcDbEntity
  8
Layer 1
 62
   250
420
  2564903
100
AcDbHatch
 10
0.0
 20
0.0
 30
0.0
210
0.0
220
0.0
230
1.0
  2
SOLID
 70
     1
 71
     0
 91
        1
 92
        1
 93
        1
 72
     4
 94
        3
 73
     0
 74
     1
 95
       50
 96
       46
 40
0.0
 40
0.0
 40
0.0
 40
0.0
 40
1.0
 40
1.0
 40
1.0
 40
2.0
 40
2.0
 40
2.0
 40
3.0
 40
3.0
 40
3.0
 40
4.0
 40
4.0
 40
4.0
 40
5.0
 40
5.0
 40
5.0
 40
6.0
 40
6.0
 40
6.0
 40
7.0
 40
7.0
 40
7.0
 40
8.0
 40
8.0
 40
8.0
 40
9.0
 40
9.0
 40
9.0
 40
10.0
 40
10.0
 40
10.0
 40
11.0
 40
11.0
 40
11.0
 40
12.0
 40
12.0
 40
12.0
 40
13.0
 40
13.0
 40
13.0
 40
14.0
 40
14.0
 40
14.0
 40
15.0
 40
15.0
 40
15.0
 40
15.0
 10
127.9167677098594
 20
140.9680204281558
 10
127.9167677098594
 20
140.9680204281558
 10
137.4001395567357
 20
140.9680204281558
 10
137.4001395567357
 20
140.9680204281558
 10
139.1421361084194
 20
140.9680204281558
 10
140.4575212596883
 20
140.7278955902011
 10
141.3107440605127
 20
140.234548195871
 10
142.1695801692331
 20
139.7468141094359
 10
142.7234265487114
 20
139.0676038535103
 10
142.9610565831499
 20
138.1969174281176
 10
143.2167739430533
 20
137.3168754895441
 10
143.3446326229932
 20
136.1561681559733
 10
143.3446326229932
 20
134.7066873159729
 10
143.3446326229932
 20
134.7066873159729
 10
143.3446326229932
 20
133.2964996312794
 10
143.3446326229932
 20
133.2964996312794
 10
143.339019315099
 20
132.9253976089949
 10
143.339019315099
 20
132.5081417217407
 10
143.339019315099
 20
132.0453556704224
 10
143.339019315099
 20
132.0453556704224
 10
137.9608466458685
 20
132.0453556704224
 10
137.9608466458685
 20
132.0453556704224
 10
137.9608466458685
 20
132.0453556704224
 10
137.9608466458685
 20
133.8752940458753
 10
137.9608466458685
 20
133.8752940458753
 10
137.9608466458685
 20
134.9106375030105
 10
137.8872499422869
 20
135.6054402808732
 10
137.7781022886738
 20
135.9827793119366
 10
137.6377695911742
 20
136.3545050351049
 10
137.3695782137256
 20
136.5952535739334
 10
136.9435905141854
 20
136.7044012275474
 10
136.5232161225522
 20
136.8079355732661
 10
135.7679143595415
 20
136.86282125051
 10
134.6839222339422
 20
136.86282125051
 10
134.6839222339422
 20
136.86282125051
 10
133.5325704135284
 20
136.86282125051
 10
133.5325704135284
 20
136.86282125051
 10
133.5325704135284
 20
136.86282125051
 10
133.5325704135284
 20
119.6380741084504
 10
133.5325704135284
 20
119.6380741084504
 10
133.5325704135284
 20
119.6380741084504
 10
127.9167677098594
 20
119.6380741084504
 10
127.9167677098594
 20
119.6380741084504
 10
127.9167677098594
 20
119.6380741084504
 10
127.9167677098594
 20
140.9680204281558
 10
127.9167677098594
 20
140.9680204281558
 97
        0
 97
        0
 75
     2
 76
     1
 98
        0
  0
SPLINE
  5
6D
330
45
100
AcDbEntity
  8
Layer 1
370
     0
100
AcDbSpline
210
0.0
220
0.0
230
1.0
 70
    11
 71
     3
 72
    41
 73
    37
 74
     0
 42
0.0000000001
 43
0.0000000001
 12
1.0
 22
0.0
 32
0.0
 13
1.0
 23
0.0
 33
0.0
 40
0.0
 40
0.0
 40
0.0
 40
0.0
 40
1.0
 40
1.0
 40
1.0
 40
2.0
 40
2.0
 40
2.0
 40
3.0
 40
3.0
 40
3.0
 40
4.0
 40
4.0
 40
4.0
 40
5.0
 40
5.0
 40
5.0
 40
6.0
 40
6.0
 40
6.0
 40
7.0
 40
7.0
 40
7.0
 40
8.0
 40
8.0
 40
8.0
 40
9.0
 40
9.0
 40
9.0
 40
10.0
 40
10.0
 40
10.0
 40
11.0
 40
11.0
 40
11.0
 40
12.0
 40
12.0
 40
12.0
 40
12.0
 10
154.9298764280356
 20
124.1455603522654
 30
0.0
 10
155.5267581680855
 20
123.9322546520589
 30
0.0
 10
156.1354902248186
 20
123.828720306351
 30
0.0
 10
156.7754073254382
 20
123.828720306351
 30
0.0
 10
157.9080481195124
 20
123.828720306351
 30
0.0
 10
158.9614789021125
 20
124.1667661821193
 30
0.0
 10
159.9182360486448
 20
124.8397394292542
 30
0.0
 10
160.8500451600721
 20
125.5064756676211
 30
0.0
 10
161.513662894049
 20
126.4139604448164
 30
0.0
 10
161.8853886172074
 20
127.5441064353754
 30
0.0
 10
162.129255660424
 20
128.4335038871059
 30
0.0
 10
162.2571143403766
 20
129.3409886643012
 30
0.0
 10
162.2571143403766
 20
130.2484734414957
 30
0.0
 10
162.2571143403766
 20
131.6218627743992
 30
0.0
 10
161.9826859541463
 20
132.87674894052
 30
0.0
 10
161.4406898913421
 20
133.9881839047521
 30
0.0
 10
160.8924568197563
 20
135.1027373733741
 30
0.0
 10
160.0766560716074
 20
135.8730079574489
 30
0.0
 10
158.9614789021125
 20
136.3058563666409
 30
0.0
 10
158.2916241593557
 20
136.5858980607645
 30
0.0
 10
157.591208073587
 20
136.7199937494952
 30
0.0
 10
156.8845549790512
 20
136.7199937494952
 30
0.0
 10
155.7151158331853
 20
136.7199937494952
 30
0.0
 10
154.6554480418072
 20
136.3881848825058
 30
0.0
 10
153.6993145961478
 20
135.708974626592
 30
0.0
 10
152.7431811504885
 20
135.0297643706663
 30
0.0
 10
152.1032640498688
 20
134.1222795934827
 30
0.0
 10
151.7870477048291
 20
132.9952521073019
 30
0.0
 10
151.5007690019265
 20
132.1364159985824
 30
0.0
 10
151.384760638648
 20
131.232049725777
 30
0.0
 10
151.384760638648
 20
130.2877665967917
 30
0.0
 10
151.384760638648
 20
128.9050217507192
 30
0.0
 10
151.6710393415633
 20
127.6507592854841
 30
0.0
 10
152.2554470640534
 20
126.5268503036932
 30
0.0
 10
152.8648028216594
 20
125.3998228175124
 30
0.0
 10
153.7479632646227
 20
124.6083464035946
 30
0.0
 10
154.9298764280356
 20
124.1455603522654
 30
0.0
  0
SPLINE
  5
6E
330
45
100
AcDbEntity
  8
Layer 1
370
     0
100
AcDbSpline
210
0.0
220
0.0
230
1.0
 70
    11
 71
     3
 72
    53
 73
    49
 74
     0
 42
0.0000000001
 43
0.0000000001
 12
1.0
 22
0.0
 32
0.0
 13
1.0
 23
0.0
 33
0.0
 40
0.0
 40
0.0
 40
0.0
 40
0.0
 40
1.0
 40
1.0
 40
1.0
 40
2.0
 40
2.0
 40
2.0
 40
3.0
 40
3.0
 40
3.0
 40
4.0
 40
4.0
 40
4.0
 40
5.0
 40
5.0
 40
5.0
 40
6.0
 40
6.0
 40
6.0
 40
7.0
 40
7.0
 40
7.0
 40
8.0
 40
8.0
 40
8.0
 40
9.0
 40
9.0
 40
9.0
 40
10.0
 40
10.0
 40
10.0
 40
11.0
 40
11.0
 40
11.0
 40
12.0
 40
12.0
 40
12.0
 40
13.0
 40
13.0
 40
13.0
 40
14.0
 40
14.0
 40
14.0
 40
15.0
 40
15.0
 40
15.0
 40
16.0
 40
16.0
 40
16.0
 40
16.0
 10
164.97333166317
 20
122.1690522705339
 30
0.0
 10
163.9685495490467
 20
121.2154136283907
 30
0.0
 10
162.7442247259387
 20
120.4788228917168
 30
0.0
 10
161.3003571938425
 20
119.9698829754279
 30
0.0
 10
159.8633503714009
 20
119.4646852644246
 30
0.0
 10
158.3708341708316
 20
119.2089679045212
 30
0.0
 10
156.8240559939022
 20
119.2089679045212
 30
0.0
 10
155.2828911248671
 20
119.2089679045212
 30
0.0
 10
153.7903749243087
 20
119.4646852644246
 30
0.0
 10
152.3471310930872
 20
119.9698829754279
 30
0.0
 10
150.9038872618767
 20
120.4906732083909
 30
0.0
 10
149.679562438756
 20
121.2247691415596
 30
0.0
 10
148.6984809579917
 20
122.1690522705339
 30
0.0
 10
147.6874618350885
 20
123.1707158802792
 30
0.0
 10
146.9015987290659
 20
124.3919221989991
 30
0.0
 10
146.3539893583547
 20
125.8357897310934
 30
0.0
 10
145.7995192780018
 20
127.272796553536
 30
0.0
 10
145.5194775838681
 20
128.7684312584843
 30
0.0
 10
145.5194775838681
 20
130.3064776231295
 30
0.0
 10
145.5194775838681
 20
131.8077256359838
 30
0.0
 10
145.7995192780018
 20
133.2696804935313
 30
0.0
 10
146.3296650241227
 20
134.6917184949098
 30
0.0
 10
146.8716610869269
 20
136.1075194874984
 30
0.0
 10
147.6450501753916
 20
137.3318443106073
 30
0.0
 10
148.6984809579917
 20
138.3615744598483
 30
0.0
 10
149.679562438756
 20
139.3239449142866
 30
0.0
 10
150.9038872618767
 20
140.0636541553504
 30
0.0
 10
152.3471310930872
 20
140.5906813970923
 30
0.0
 10
153.7903749243087
 20
141.1083531256654
 30
0.0
 10
155.2828911248671
 20
141.3852763153991
 30
0.0
 10
156.8240559939022
 20
141.3852763153991
 30
0.0
 10
158.3708341708316
 20
141.3852763153991
 30
0.0
 10
159.8633503714009
 20
141.1202034423386
 30
0.0
 10
161.3003571938425
 20
140.6025317137655
 30
0.0
 10
162.7442247259387
 20
140.0817414808143
 30
0.0
 10
163.9685495490467
 20
139.3357952309716
 30
0.0
 10
164.97333166317
 20
138.3615744598483
 30
0.0
 10
165.9905877948531
 20
137.3804929790831
 30
0.0
 10
166.7764509008757
 20
136.1748791823002
 30
0.0
 10
167.3302972803667
 20
134.7584544888268
 30
0.0
 10
167.8729170440456
 20
133.3457720006281
 30
0.0
 10
168.1467217293903
 20
131.8532558000579
 30
0.0
 10
168.1467217293903
 20
130.3064776231295
 30
0.0
 10
168.1467217293903
 20
128.7684312584843
 30
0.0
 10
167.8604430264859
 20
127.272796553536
 30
0.0
 10
167.3122099549018
 20
125.8357897310934
 30
0.0
 10
166.7639768833178
 20
124.3919221989991
 30
0.0
 10
165.9781137773061
 20
123.1707158802792
 30
0.0
 10
164.97333166317
 20
122.1690522705339
 30
0.0
  0
HATCH
  5
6F
330
45
100
AcDbEntity
  8
Layer 1
 62
   250
420
  2564903
100
AcDbHatch
 10
0.0
 20
0.0
 30
0.0
210
0.0
220
0.0
230
1.0
  2
SOLID
 70
     1
 71
     0
 91
        2
 92
        1
 93
        2
 72
     4
 94
        3
 73
     0
 74
     0
 95
       41
 96
       37
 40
0.0
 40
0.0
 40
0.0
 40
0.0
 40
1.0
 40
1.0
 40
1.0
 40
2.0
 40
2.0
 40
2.0
 40
3.0
 40
3.0
 40
3.0
 40
4.0
 40
4.0
 40
4.0
 40
5.0
 40
5.0
 40
5.0
 40
6.0
 40
6.0
 40
6.0
 40
7.0
 40
7.0
 40
7.0
 40
8.0
 40
8.0
 40
8.0
 40
9.0
 40
9.0
 40
9.0
 40
10.0
 40
10.0
 40
10.0
 40
11.0
 40
11.0
 40
11.0
 40
12.0
 40
12.0
 40
12.0
 40
12.0
 10
154.9298764280356
 20
124.1455603522654
 10
155.5267581680855
 20
123.9322546520589
 10
156.1354902248186
 20
123.828720306351
 10
156.7754073254382
 20
123.828720306351
 10
157.9080481195124
 20
123.828720306351
 10
158.9614789021125
 20
124.1667661821193
 10
159.9182360486448
 20
124.8397394292542
 10
160.8500451600721
 20
125.5064756676211
 10
161.513662894049
 20
126.4139604448164
 10
161.8853886172074
 20
127.5441064353754
 10
162.129255660424
 20
128.4335038871059
 10
162.2571143403766
 20
129.3409886643012
 10
162.2571143403766
 20
130.2484734414957
 10
162.2571143403766
 20
131.6218627743992
 10
161.9826859541463
 20
132.87674894052
 10
161.4406898913421
 20
133.9881839047521
 10
160.8924568197563
 20
135.1027373733741
 10
160.0766560716074
 20
135.8730079574489
 10
158.9614789021125
 20
136.3058563666409
 10
158.2916241593557
 20
136.5858980607645
 10
157.591208073587
 20
136.7199937494952
 10
156.8845549790512
 20
136.7199937494952
 10
155.7151158331853
 20
136.7199937494952
 10
154.6554480418072
 20
136.3881848825058
 10
153.6993145961478
 20
135.708974626592
 10
152.7431811504885
 20
135.0297643706663
 10
152.1032640498688
 20
134.1222795934827
 10
151.7870477048291
 20
132.9952521073019
 10
151.5007690019265
 20
132.1364159985824
 10
151.384760638648
 20
131.232049725777
 10
151.384760638648
 20
130.2877665967917
 10
151.384760638648
 20
128.9050217507192
 10
151.6710393415633
 20
127.6507592854841
 10
152.2554470640534
 20
126.5268503036932
 10
152.8648028216594
 20
125.3998228175124
 10
153.7479632646227
 20
124.6083464035946
 10
154.9298764280356
 20
124.1455603522654
 97
        0
 72
     1
 10
154.9298764280356
 20
124.1455603522654
 11
154.9298764280356
 21
124.1455603522654
 97
        0
 92
        1
 93
        2
 72
     4
 94
        3
 73
     0
 74
     0
 95
       53
 96
       49
 40
0.0
 40
0.0
 40
0.0
 40
0.0
 40
1.0
 40
1.0
 40
1.0
 40
2.0
 40
2.0
 40
2.0
 40
3.0
 40
3.0
 40
3.0
 40
4.0
 40
4.0
 40
4.0
 40
5.0
 40
5.0
 40
5.0
 40
6.0
 40
6.0
 40
6.0
 40
7.0
 40
7.0
 40
7.0
 40
8.0
 40
8.0
 40
8.0
 40
9.0
 40
9.0
 40
9.0
 40
10.0
 40
10.0
 40
10.0
 40
11.0
 40
11.0
 40
11.0
 40
12.0
 40
12.0
 40
12.0
 40
13.0
 40
13.0
 40
13.0
 40
14.0
 40
14.0
 40
14.0
 40
15.0
 40
15.0
 40
15.0
 40
16.0
 40
16.0
 40
16.0
 40
16.0
 10
164.97333166317
 20
122.1690522705339
 10
163.9685495490467
 20
121.2154136283907
 10
162.7442247259387
 20
120.4788228917168
 10
161.3003571938425
 20
119.9698829754279
 10
159.8633503714009
 20
119.4646852644246
 10
158.3708341708316
 20
119.2089679045212
 10
156.8240559939022
 20
119.2089679045212
 10
155.2828911248671
 20
119.2089679045212
 10
153.7903749243087
 20
119.4646852644246
 10
152.3471310930872
 20
119.9698829754279
 10
150.9038872618767
 20
120.4906732083909
 10
149.679562438756
 20
121.2247691415596
 10
148.6984809579917
 20
122.1690522705339
 10
147.6874618350885
 20
123.1707158802792
 10
146.9015987290659
 20
124.3919221989991
 10
146.3539893583547
 20
125.8357897310934
 10
145.7995192780018
 20
127.272796553536
 10
145.5194775838681
 20
128.7684312584843
 10
145.5194775838681
 20
130.3064776231295
 10
145.5194775838681
 20
131.8077256359838
 10
145.7995192780018
 20
133.2696804935313
 10
146.3296650241227
 20
134.6917184949098
 10
146.8716610869269
 20
136.1075194874984
 10
147.6450501753916
 20
137.3318443106073
 10
148.6984809579917
 20
138.3615744598483
 10
149.679562438756
 20
139.3239449142866
 10
150.9038872618767
 20
140.0636541553504
 10
152.3471310930872
 20
140.5906813970923
 10
153.7903749243087
 20
141.1083531256654
 10
155.2828911248671
 20
141.3852763153991
 10
156.8240559939022
 20
141.3852763153991
 10
158.3708341708316
 20
141.3852763153991
 10
159.8633503714009
 20
141.1202034423386
 10
161.3003571938425
 20
140.6025317137655
 10
162.7442247259387
 20
140.0817414808143
 10
163.9685495490467
 20
139.3357952309716
 10
164.97333166317
 20
138.3615744598483
 10
165.9905877948531
 20
137.3804929790831
 10
166.7764509008757
 20
136.1748791823002
 10
167.3302972803667
 20
134.7584544888268
 10
167.8729170440456
 20
133.3457720006281
 10
168.1467217293903
 20
131.8532558000579
 10
168.1467217293903
 20
130.3064776231295
 10
168.1467217293903
 20
128.7684312584843
 10
167.8604430264859
 20
127.272796553536
 10
167.3122099549018
 20
125.8357897310934
 10
166.7639768833178
 20
124.3919221989991
 10
165.9781137773061
 20
123.1707158802792
 10
164.97333166317
 20
122.1690522705339
 97
        0
 72
     1
 10
164.97333166317
 20
122.1690522705339
 11
164.97333166317
 21
122.1690522705339
 97
        0
 75
     2
 76
     1
 98
        0
  0
SPLINE
  5
70
330
45
100
AcDbEntity
  8
Layer 1
370
     0
100
AcDbSpline
210
0.0
220
0.0
230
1.0
 70
    11
 71
     3
 72
    23
 73
    19
 74
     0
 42
0.0000000001
 43
0.0000000001
 12
1.0
 22
0.0
 32
0.0
 13
1.0
 23
0.0
 33
0.0
 40
0.0
 40
0.0
 40
0.0
 40
0.0
 40
1.0
 40
1.0
 40
1.0
 40
2.0
 40
2.0
 40
2.0
 40
3.0
 40
3.0
 40
3.0
 40
4.0
 40
4.0
 40
4.0
 40
5.0
 40
5.0
 40
5.0
 40
6.0
 40
6.0
 40
6.0
 40
6.0
 10
76.33982362059942
 20
77.18525016045533
 30
0.0
 10
77.94148747478357
 20
77.18525016045533
 30
0.0
 10
79.1963736409034
 20
77.51394052304295
 30
0.0
 10
80.06144675840187
 20
78.15947093156774
 30
0.0
 10
80.93837019258535
 20
78.80500134008071
 30
0.0
 10
81.37683190967255
 20
79.89523047447074
 30
0.0
 10
81.37683190967255
 20
81.45136416456899
 30
0.0
 10
81.37683190967255
 20
84.36591836650678
 30
0.0
 10
79.70157135191766
 20
85.8160229073801
 30
0.0
 10
76.33982362059942
 20
85.8160229073801
 30
0.0
 10
76.33982362059942
 20
85.8160229073801
 30
0.0
 10
65.02900820178547
 20
85.8160229073801
 30
0.0
 10
65.02900820178547
 20
85.8160229073801
 30
0.0
 10
65.02900820178547
 20
85.8160229073801
 30
0.0
 10
65.02900820178547
 20
77.18525016045533
 30
0.0
 10
65.02900820178547
 20
77.18525016045533
 30
0.0
 10
65.02900820178547
 20
77.18525016045533
 30
0.0
 10
76.33982362059942
 20
77.18525016045533
 30
0.0
 10
76.33982362059942
 20
77.18525016045533
 30
0.0
  0
SPLINE
  5
71
330
45
100
AcDbEntity
  8
Layer 1
370
     0
100
AcDbSpline
210
0.0
220
0.0
230
1.0
 70
    11
 71
     3
 72
    23
 73
    19
 74
     0
 42
0.0000000001
 43
0.0000000001
 12
1.0
 22
0.0
 32
0.0
 13
1.0
 23
0.0
 33
0.0
 40
0.0
 40
0.0
 40
0.0
 40
0.0
 40
1.0
 40
1.0
 40
1.0
 40
2.0
 40
2.0
 40
2.0
 40
3.0
 40
3.0
 40
3.0
 40
4.0
 40
4.0
 40
4.0
 40
5.0
 40
5.0
 40
5.0
 40
6.0
 40
6.0
 40
6.0
 40
6.0
 10
65.02900820178547
 20
100.6744489190869
 30
0.0
 10
65.02900820178547
 20
100.6744489190869
 30
0.0
 10
65.02900820178547
 20
92.2507448635888
 30
0.0
 10
65.02900820178547
 20
92.2507448635888
 30
0.0
 10
65.02900820178547
 20
92.2507448635888
 30
0.0
 10
76.23005226611167
 20
92.2507448635888
 30
0.0
 10
76.23005226611167
 20
92.2507448635888
 30
0.0
 10
77.86227746329678
 20
92.2507448635888
 30
0.0
 10
79.11716362942752
 20
92.56758490951415
 30
0.0
 10
79.98223674692599
 20
93.18879098379512
 30
0.0
 10
80.84668616355157
 20
93.80999705807608
 30
0.0
 10
81.2670605551848
 20
94.88213886700214
 30
0.0
 10
81.2670605551848
 20
96.4170667272574
 30
0.0
 10
81.2670605551848
 20
99.26114273000348
 30
0.0
 10
79.59242369830463
 20
100.6744489190869
 30
0.0
 10
76.23005226611167
 20
100.6744489190869
 30
0.0
 10
76.23005226611167
 20
100.6744489190869
 30
0.0
 10
65.02900820178547
 20
100.6744489190869
 30
0.0
 10
65.02900820178547
 20
100.6744489190869
 30
0.0
  0
SPLINE
  5
72
330
45
100
AcDbEntity
  8
Layer 1
370
     0
100
AcDbSpline
210
0.0
220
0.0
230
1.0
 70
    11
 71
     3
 72
    50
 73
    46
 74
     0
 42
0.0000000001
 43
0.0000000001
 12
1.0
 22
0.0
 32
0.0
 13
1.0
 23
0.0
 33
0.0
 40
0.0
 40
0.0
 40
0.0
 40
0.0
 40
1.0
 40
1.0
 40
1.0
 40
2.0
 40
2.0
 40
2.0
 40
3.0
 40
3.0
 40
3.0
 40
4.0
 40
4.0
 40
4.0
 40
5.0
 40
5.0
 40
5.0
 40
6.0
 40
6.0
 40
6.0
 40
7.0
 40
7.0
 40
7.0
 40
8.0
 40
8.0
 40
8.0
 40
9.0
 40
9.0
 40
9.0
 40
10.0
 40
10.0
 40
10.0
 40
11.0
 40
11.0
 40
11.0
 40
12.0
 40
12.0
 40
12.0
 40
13.0
 40
13.0
 40
13.0
 40
14.0
 40
14.0
 40
14.0
 40
15.0
 40
15.0
 40
15.0
 40
15.0
 10
77.41757873742972
 20
70.74678599897288
 30
0.0
 10
77.41757873742972
 20
70.74678599897288
 30
0.0
 10
57.40301756899498
 20
70.74678599897288
 30
0.0
 10
57.40301756899498
 20
70.74678599897288
 30
0.0
 10
57.40301756899498
 20
70.74678599897288
 30
0.0
 10
57.40301756899498
 20
107.2251792385723
 30
0.0
 10
57.40301756899498
 20
107.2251792385723
 30
0.0
 10
57.40301756899498
 20
107.2251792385723
 30
0.0
 10
76.12028091161301
 20
107.2251792385723
 30
0.0
 10
76.12028091161301
 20
107.2251792385723
 30
0.0
 10
78.34938784885708
 20
107.1946178955614
 30
0.0
 10
80.33525144375744
 20
107.0056365295877
 30
0.0
 10
82.04044964364948
 20
106.6738276625983
 30
0.0
 10
83.76435886987929
 20
106.3476321035159
 30
0.0
 10
85.26248837833191
 20
105.669045548475
 30
0.0
 10
86.57849723048639
 20
104.6455524080138
 30
0.0
 10
87.8633210387452
 20
103.6133274552567
 30
0.0
 10
88.74086817380339
 20
102.0964869204654
 30
0.0
 10
89.20365422512077
 20
100.0925360001011
 30
0.0
 10
89.4350472507922
 20
99.03286820873382
 30
0.0
 10
89.55043191317236
 20
98.07673476307446
 30
0.0
 10
89.55043191317236
 20
97.23598597980799
 30
0.0
 10
89.55043191317236
 20
93.788791228234
 30
0.0
 10
87.75417338513216
 20
91.02953854486896
 30
0.0
 10
84.14169790094275
 20
88.98878927272563
 30
0.0
 10
85.39658406706258
 20
88.40438155022366
 30
0.0
 10
86.42631421630358
 20
87.72828979869973
 30
0.0
 10
87.25458898201214
 20
86.94242669267624
 30
0.0
 10
88.08286374773161
 20
86.1509502787585
 30
0.0
 10
88.67974548777966
 20
85.26467133140613
 30
0.0
 10
89.08764586185498
 20
84.25053370411388
 30
0.0
 10
89.50178324470835
 20
83.24512788910488
 30
0.0
 10
89.7032386282408
 20
82.13992993365173
 30
0.0
 10
89.7032386282408
 20
80.93681094038584
 30
0.0
 10
89.7032386282408
 20
79.99876482017862
 30
0.0
 10
89.56914293951013
 20
78.92724671212636
 30
0.0
 10
89.30718857083957
 20
77.68732936708057
 30
0.0
 10
88.89866449588044
 20
75.85427248723772
 30
0.0
 10
88.10718808196361
 20
74.42599747707936
 30
0.0
 10
86.91966161063283
 20
73.38441701116517
 30
0.0
 10
85.71342411298792
 20
72.34907355402993
 30
0.0
 10
84.33067926691729
 20
71.6636262893253
 30
0.0
 10
82.72901541273313
 20
71.2919005661679
 30
0.0
 10
81.12111454978003
 20
70.92953035616756
 30
0.0
 10
79.35479366386608
 20
70.74678599897288
 30
0.0
 10
77.41757873742972
 20
70.74678599897288
 30
0.0
  0
HATCH
  5
73
330
45
100
AcDbEntity
  8
Layer 1
 62
   250
420
  2564903
100
AcDbHatch
 10
0.0
 20
0.0
 30
0.0
210
0.0
220
0.0
230
1.0
  2
SOLID
 70
     1
 71
     0
 91
        3
 92
        1
 93
        1
 72
     4
 94
        3
 73
     0
 74
     1
 95
       23
 96
       19
 40
0.0
 40
0.0
 40
0.0
 40
0.0
 40
1.0
 40
1.0
 40
1.0
 40
2.0
 40
2.0
 40
2.0
 40
3.0
 40
3.0
 40
3.0
 40
4.0
 40
4.0
 40
4.0
 40
5.0
 40
5.0
 40
5.0
 40
6.0
 40
6.0
 40
6.0
 40
6.0
 10
76.33982362059942
 20
77.18525016045533
 10
77.94148747478357
 20
77.18525016045533
 10
79.1963736409034
 20
77.51394052304295
 10
80.06144675840187
 20
78.15947093156774
 10
80.93837019258535
 20
78.80500134008071
 10
81.37683190967255
 20
79.89523047447074
 10
81.37683190967255
 20
81.45136416456899
 10
81.37683190967255
 20
84.36591836650678
 10
79.70157135191766
 20
85.8160229073801
 10
76.33982362059942
 20
85.8160229073801
 10
76.33982362059942
 20
85.8160229073801
 10
65.02900820178547
 20
85.8160229073801
 10
65.02900820178547
 20
85.8160229073801
 10
65.02900820178547
 20
85.8160229073801
 10
65.02900820178547
 20
77.18525016045533
 10
65.02900820178547
 20
77.18525016045533
 10
65.02900820178547
 20
77.18525016045533
 10
76.33982362059942
 20
77.18525016045533
 10
76.33982362059942
 20
77.18525016045533
 97
        0
 97
        0
 92
        1
 93
        1
 72
     4
 94
        3
 73
     0
 74
     1
 95
       23
 96
       19
 40
0.0
 40
0.0
 40
0.0
 40
0.0
 40
1.0
 40
1.0
 40
1.0
 40
2.0
 40
2.0
 40
2.0
 40
3.0
 40
3.0
 40
3.0
 40
4.0
 40
4.0
 40
4.0
 40
5.0
 40
5.0
 40
5.0
 40
6.0
 40
6.0
 40
6.0
 40
6.0
 10
65.02900820178547
 20
100.6744489190869
 10
65.02900820178547
 20
100.6744489190869
 10
65.02900820178547
 20
92.2507448635888
 10
65.02900820178547
 20
92.2507448635888
 10
65.02900820178547
 20
92.2507448635888
 10
76.23005226611167
 20
92.2507448635888
 10
76.23005226611167
 20
92.2507448635888
 10
77.86227746329678
 20
92.2507448635888
 10
79.11716362942752
 20
92.56758490951415
 10
79.98223674692599
 20
93.18879098379512
 10
80.84668616355157
 20
93.80999705807608
 10
81.2670605551848
 20
94.88213886700214
 10
81.2670605551848
 20
96.4170667272574
 10
81.2670605551848
 20
99.26114273000348
 10
79.59242369830463
 20
100.6744489190869
 10
76.23005226611167
 20
100.6744489190869
 10
76.23005226611167
 20
100.6744489190869
 10
65.02900820178547
 20
100.6744489190869
 10
65.02900820178547
 20
100.6744489190869
 97
        0
 97
        0
 92
        1
 93
        2
 72
     4
 94
        3
 73
     0
 74
     0
 95
       50
 96
       46
 40
0.0
 40
0.0
 40
0.0
 40
0.0
 40
1.0
 40
1.0
 40
1.0
 40
2.0
 40
2.0
 40
2.0
 40
3.0
 40
3.0
 40
3.0
 40
4.0
 40
4.0
 40
4.0
 40
5.0
 40
5.0
 40
5.0
 40
6.0
 40
6.0
 40
6.0
 40
7.0
 40
7.0
 40
7.0
 40
8.0
 40
8.0
 40
8.0
 40
9.0
 40
9.0
 40
9.0
 40
10.0
 40
10.0
 40
10.0
 40
11.0
 40
11.0
 40
11.0
 40
12.0
 40
12.0
 40
12.0
 40
13.0
 40
13.0
 40
13.0
 40
14.0
 40
14.0
 40
14.0
 40
15.0
 40
15.0
 40
15.0
 40
15.0
 10
77.41757873742972
 20
70.74678599897288
 10
77.41757873742972
 20
70.74678599897288
 10
57.40301756899498
 20
70.74678599897288
 10
57.40301756899498
 20
70.74678599897288
 10
57.40301756899498
 20
70.74678599897288
 10
57.40301756899498
 20
107.2251792385723
 10
57.40301756899498
 20
107.2251792385723
 10
57.40301756899498
 20
107.2251792385723
 10
76.12028091161301
 20
107.2251792385723
 10
76.12028091161301
 20
107.2251792385723
 10
78.34938784885708
 20
107.1946178955614
 10
80.33525144375744
 20
107.0056365295877
 10
82.04044964364948
 20
106.6738276625983
 10
83.76435886987929
 20
106.3476321035159
 10
85.26248837833191
 20
105.669045548475
 10
86.57849723048639
 20
104.6455524080138
 10
87.8633210387452
 20
103.6133274552567
 10
88.74086817380339
 20
102.0964869204654
 10
89.20365422512077
 20
100.0925360001011
 10
89.4350472507922
 20
99.03286820873382
 10
89.55043191317236
 20
98.07673476307446
 10
89.55043191317236
 20
97.23598597980799
 10
89.55043191317236
 20
93.788791228234
 10
87.75417338513216
 20
91.02953854486896
 10
84.14169790094275
 20
88.98878927272563
 10
85.39658406706258
 20
88.40438155022366
 10
86.42631421630358
 20
87.72828979869973
 10
87.25458898201214
 20
86.94242669267624
 10
88.08286374773161
 20
86.1509502787585
 10
88.67974548777966
 20
85.26467133140613
 10
89.08764586185498
 20
84.25053370411388
 10
89.50178324470835
 20
83.24512788910488
 10
89.7032386282408
 20
82.13992993365173
 10
89.7032386282408
 20
80.93681094038584
 10
89.7032386282408
 20
79.99876482017862
 10
89.56914293951013
 20
78.92724671212636
 10
89.30718857083957
 20
77.68732936708057
 10
88.89866449588044
 20
75.85427248723772
 10
88.10718808196361
 20
74.42599747707936
 10
86.91966161063283
 20
73.38441701116517
 10
85.71342411298792
 20
72.34907355402993
 10
84.33067926691729
 20
71.6636262893253
 10
82.72901541273313
 20
71.2919005661679
 10
81.12111454978003
 20
70.92953035616756
 10
79.35479366386608
 20
70.74678599897288
 10
77.41757873742972
 20
70.74678599897288
 97
        0
 72
     1
 10
77.41757873742972
 20
70.74678599897288
 11
77.41757873742972
 21
70.74678599897288
 97
        0
 75
     2
 76
     1
 98
        0
  0
SPLINE
  5
74
330
45
100
AcDbEntity
  8
Layer 1
370
     0
100
AcDbSpline
210
0.0
220
0.0
230
1.0
 70
    11
 71
     3
 72
    62
 73
    58
 74
     0
 42
0.0000000001
 43
0.0000000001
 12
1.0
 22
0.0
 32
0.0
 13
1.0
 23
0.0
 33
0.0
 40
0.0
 40
0.0
 40
0.0
 40
0.0
 40
1.0
 40
1.0
 40
1.0
 40
2.0
 40
2.0
 40
2.0
 40
3.0
 40
3.0
 40
3.0
 40
4.0
 40
4.0
 40
4.0
 40
5.0
 40
5.0
 40
5.0
 40
6.0
 40
6.0
 40
6.0
 40
7.0
 40
7.0
 40
7.0
 40
8.0
 40
8.0
 40
8.0
 40
9.0
 40
9.0
 40
9.0
 40
10.0
 40
10.0
 40
10.0
 40
11.0
 40
11.0
 40
11.0
 40
12.0
 40
12.0
 40
12.0
 40
13.0
 40
13.0
 40
13.0
 40
14.0
 40
14.0
 40
14.0
 40
15.0
 40
15.0
 40
15.0
 40
16.0
 40
16.0
 40
16.0
 40
17.0
 40
17.0
 40
17.0
 40
18.0
 40
18.0
 40
18.0
 40
19.0
 40
19.0
 40
19.0
 40
19.0
 10
103.2855726439848
 20
107.2251792385723
 30
0.0
 10
103.2855726439848
 20
107.2251792385723
 30
0.0
 10
103.2855726439848
 20
85.31020149548112
 30
0.0
 10
103.2855726439848
 20
85.31020149548112
 30
0.0
 10
103.2855726439848
 20
83.19086591273481
 30
0.0
 10
103.5169656696435
 20
81.46695668651682
 30
0.0
 10
103.9735147121828
 20
80.17277736509004
 30
0.0
 10
104.442537772291
 20
78.85365000855654
 30
0.0
 10
105.2770495467794
 20
77.87319222865335
 30
0.0
 10
106.4951373611093
 20
77.20021898151845
 30
0.0
 10
107.7013748587651
 20
76.53348274315158
 30
0.0
 10
109.3760117156453
 20
76.20105017528931
 30
0.0
 10
111.5078213159504
 20
76.20105017528931
 30
0.0
 10
113.6521049338135
 20
76.20105017528931
 30
0.0
 10
115.3267417906936
 20
76.53348274315158
 30
0.0
 10
116.5024179453376
 20
77.20021898151845
 30
0.0
 10
117.7024184342154
 20
77.87319222865335
 30
0.0
 10
118.5188428832498
 20
78.85365000855654
 30
0.0
 10
118.9691549170093
 20
80.1815091773733
 30
0.0
 10
119.4076166341074
 20
81.49128102074883
 30
0.0
 10
119.627159343092
 20
83.1995977250308
 30
0.0
 10
119.627159343092
 20
85.31020149548112
 30
0.0
 10
119.627159343092
 20
85.31020149548112
 30
0.0
 10
119.627159343092
 20
107.2251792385723
 30
0.0
 10
119.627159343092
 20
107.2251792385723
 30
0.0
 10
119.627159343092
 20
107.2251792385723
 30
0.0
 10
127.2712373013474
 20
107.2251792385723
 30
0.0
 10
127.2712373013474
 20
107.2251792385723
 30
0.0
 10
127.2712373013474
 20
107.2251792385723
 30
0.0
 10
127.2712373013474
 20
85.11810162512847
 30
0.0
 10
127.2712373013474
 20
85.11810162512847
 30
0.0
 10
127.2712373013474
 20
82.87402586682128
 30
0.0
 10
127.1552289380688
 20
80.9916966176288
 30
0.0
 10
126.911985595736
 20
79.49356710916436
 30
0.0
 10
126.6618815437396
 20
77.98608208754194
 30
0.0
 10
126.1136484721537
 20
76.62142456692254
 30
0.0
 10
125.1880763695062
 20
75.39460494029754
 30
0.0
 10
122.6907780548117
 20
72.03535201249451
 30
0.0
 10
118.1346431425227
 20
70.34824113806644
 30
0.0
 10
111.5078213159504
 20
70.34824113806644
 30
0.0
 10
104.8205005042291
 20
70.34824113806644
 30
0.0
 10
100.2219539322523
 20
72.03535201249451
 30
0.0
 10
97.74274294301176
 20
75.39460494029754
 30
0.0
 10
97.07288820026588
 20
76.27776538325998
 30
0.0
 10
96.59139112261073
 20
77.2401358376992
 30
0.0
 10
96.30511241969725
 20
78.29980362906645
 30
0.0
 10
95.99450938256086
 20
79.3594714204446
 30
0.0
 10
95.82423904291318
 20
80.39169637318992
 30
0.0
 10
95.7450290314373
 20
81.39398368380898
 30
0.0
 10
95.69014335419524
 20
82.40500280671222
 30
0.0
 10
95.65396870327822
 20
83.65053345967499
 30
0.0
 10
95.65396870327822
 20
85.11810162512847
 30
0.0
 10
95.65396870327822
 20
85.11810162512847
 30
0.0
 10
95.65396870327822
 20
107.2251792385723
 30
0.0
 10
95.65396870327822
 20
107.2251792385723
 30
0.0
 10
95.65396870327822
 20
107.2251792385723
 30
0.0
 10
103.2855726439848
 20
107.2251792385723
 30
0.0
 10
103.2855726439848
 20
107.2251792385723
 30
0.0
  0
HATCH
  5
75
330
45
100
AcDbEntity
  8
Layer 1
 62
   250
420
  2564903
100
AcDbHatch
 10
0.0
 20
0.0
 30
0.0
210
0.0
220
0.0
230
1.0
  2
SOLID
 70
     1
 71
     0
 91
        1
 92
        1
 93
        1
 72
     4
 94
        3
 73
     0
 74
     1
 95
       62
 96
       58
 40
0.0
 40
0.0
 40
0.0
 40
0.0
 40
1.0
 40
1.0
 40
1.0
 40
2.0
 40
2.0
 40
2.0
 40
3.0
 40
3.0
 40
3.0
 40
4.0
 40
4.0
 40
4.0
 40
5.0
 40
5.0
 40
5.0
 40
6.0
 40
6.0
 40
6.0
 40
7.0
 40
7.0
 40
7.0
 40
8.0
 40
8.0
 40
8.0
 40
9.0
 40
9.0
 40
9.0
 40
10.0
 40
10.0
 40
10.0
 40
11.0
 40
11.0
 40
11.0
 40
12.0
 40
12.0
 40
12.0
 40
13.0
 40
13.0
 40
13.0
 40
14.0
 40
14.0
 40
14.0
 40
15.0
 40
15.0
 40
15.0
 40
16.0
 40
16.0
 40
16.0
 40
17.0
 40
17.0
 40
17.0
 40
18.0
 40
18.0
 40
18.0
 40
19.0
 40
19.0
 40
19.0
 40
19.0
 10
103.2855726439848
 20
107.2251792385723
 10
103.2855726439848
 20
107.2251792385723
 10
103.2855726439848
 20
85.31020149548112
 10
103.2855726439848
 20
85.31020149548112
 10
103.2855726439848
 20
83.19086591273481
 10
103.5169656696435
 20
81.46695668651682
 10
103.9735147121828
 20
80.17277736509004
 10
104.442537772291
 20
78.85365000855654
 10
105.2770495467794
 20
77.87319222865335
 10
106.4951373611093
 20
77.20021898151845
 10
107.7013748587651
 20
76.53348274315158
 10
109.3760117156453
 20
76.20105017528931
 10
111.5078213159504
 20
76.20105017528931
 10
113.6521049338135
 20
76.20105017528931
 10
115.3267417906936
 20
76.53348274315158
 10
116.5024179453376
 20
77.20021898151845
 10
117.7024184342154
 20
77.87319222865335
 10
118.5188428832498
 20
78.85365000855654
 10
118.9691549170093
 20
80.1815091773733
 10
119.4076166341074
 20
81.49128102074883
 10
119.627159343092
 20
83.1995977250308
 10
119.627159343092
 20
85.31020149548112
 10
119.627159343092
 20
85.31020149548112
 10
119.627159343092
 20
107.2251792385723
 10
119.627159343092
 20
107.2251792385723
 10
119.627159343092
 20
107.2251792385723
 10
127.2712373013474
 20
107.2251792385723
 10
127.2712373013474
 20
107.2251792385723
 10
127.2712373013474
 20
107.2251792385723
 10
127.2712373013474
 20
85.11810162512847
 10
127.2712373013474
 20
85.11810162512847
 10
127.2712373013474
 20
82.87402586682128
 10
127.1552289380688
 20
80.9916966176288
 10
126.911985595736
 20
79.49356710916436
 10
126.6618815437396
 20
77.98608208754194
 10
126.1136484721537
 20
76.62142456692254
 10
125.1880763695062
 20
75.39460494029754
 10
122.6907780548117
 20
72.03535201249451
 10
118.1346431425227
 20
70.34824113806644
 10
111.5078213159504
 20
70.34824113806644
 10
104.8205005042291
 20
70.34824113806644
 10
100.2219539322523
 20
72.03535201249451
 10
97.74274294301176
 20
75.39460494029754
 10
97.07288820026588
 20
76.27776538325998
 10
96.59139112261073
 20
77.2401358376992
 10
96.30511241969725
 20
78.29980362906645
 10
95.99450938256086
 20
79.3594714204446
 10
95.82423904291318
 20
80.39169637318992
 10
95.7450290314373
 20
81.39398368380898
 10
95.69014335419524
 20
82.40500280671222
 10
95.65396870327822
 20
83.65053345967499
 10
95.65396870327822
 20
85.11810162512847
 10
95.65396870327822
 20
85.11810162512847
 10
95.65396870327822
 20
107.2251792385723
 10
95.65396870327822
 20
107.2251792385723
 10
95.65396870327822
 20
107.2251792385723
 10
103.2855726439848
 20
107.2251792385723
 10
103.2855726439848
 20
107.2251792385723
 97
        0
 97
        0
 75
     2
 76
     1
 98
        0
  0
SPLINE
  5
76
330
45
100
AcDbEntity
  8
Layer 1
370
     0
100
AcDbSpline
210
0.0
220
0.0
230
1.0
 70
    11
 71
     3
 72
    95
 73
    91
 74
     0
 42
0.0000000001
 43
0.0000000001
 12
1.0
 22
0.0
 32
0.0
 13
1.0
 23
0.0
 33
0.0
 40
0.0
 40
0.0
 40
0.0
 40
0.0
 40
1.0
 40
1.0
 40
1.0
 40
2.0
 40
2.0
 40
2.0
 40
3.0
 40
3.0
 40
3.0
 40
4.0
 40
4.0
 40
4.0
 40
5.0
 40
5.0
 40
5.0
 40
6.0
 40
6.0
 40
6.0
 40
7.0
 40
7.0
 40
7.0
 40
8.0
 40
8.0
 40
8.0
 40
9.0
 40
9.0
 40
9.0
 40
10.0
 40
10.0
 40
10.0
 40
11.0
 40
11.0
 40
11.0
 40
12.0
 40
12.0
 40
12.0
 40
13.0
 40
13.0
 40
13.0
 40
14.0
 40
14.0
 40
14.0
 40
15.0
 40
15.0
 40
15.0
 40
16.0
 40
16.0
 40
16.0
 40
17.0
 40
17.0
 40
17.0
 40
18.0
 40
18.0
 40
18.0
 40
19.0
 40
19.0
 40
19.0
 40
20.0
 40
20.0
 40
20.0
 40
21.0
 40
21.0
 40
21.0
 40
22.0
 40
22.0
 40
22.0
 40
23.0
 40
23.0
 40
23.0
 40
24.0
 40
24.0
 40
24.0
 40
25.0
 40
25.0
 40
25.0
 40
26.0
 40
26.0
 40
26.0
 40
27.0
 40
27.0
 40
27.0
 40
28.0
 40
28.0
 40
28.0
 40
29.0
 40
29.0
 40
29.0
 40
30.0
 40
30.0
 40
30.0
 40
30.0
 10
165.5215647347559
 20
100.6744489190869
 30
0.0
 10
165.5215647347559
 20
100.6744489190869
 30
0.0
 10
146.6034697094783
 20
100.6744489190869
 30
0.0
 10
146.6034697094783
 20
100.6744489190869
 30
0.0
 10
142.6198922030035
 20
100.6744489190869
 30
0.0
 10
140.65273963443
 20
99.08775388597769
 30
0.0
 10
140.65273963443
 20
95.9174823241483
 30
0.0
 10
140.65273963443
 20
94.56218031669869
 30
0.0
 10
141.1092886769802
 20
93.5692485192485
 30
0.0
 10
142.0167734541756
 20
92.91748110195567
 30
0.0
 10
142.9124079146859
 20
92.28130620659977
 30
0.0
 10
144.0880840693317
 20
91.95511064751736
 30
0.0
 10
145.5007665575413
 20
91.95511064751736
 30
0.0
 10
145.5007665575413
 20
91.95511064751736
 30
0.0
 10
155.6178184962464
 20
91.95511064751736
 30
0.0
 10
155.6178184962464
 20
91.95511064751736
 30
0.0
 10
157.0367379932341
 20
91.95511064751736
 30
0.0
 10
158.2061771391
 20
91.92205450098936
 30
0.0
 10
159.1504602680743
 20
91.82413346317662
 30
0.0
 10
160.0822693795017
 20
91.73619163940566
 30
0.0
 10
161.0327895172668
 20
91.50479861374606
 30
0.0
 10
162.0070102883801
 20
91.14492320726185
 30
0.0
 10
162.9818547603754
 20
90.7707026805765
 30
0.0
 10
163.810129526084
 20
90.25614945640518
 30
0.0
 10
164.5348699460847
 20
89.5769392004795
 30
0.0
 10
166.3866378522544
 20
87.88982832605143
 30
0.0
 10
167.3122099549018
 20
85.25219731384823
 30
0.0
 10
167.3122099549018
 20
81.64034553054262
 30
0.0
 10
167.2635612864378
 20
79.61207027594628
 30
0.0
 10
166.9529582492924
 20
77.87319222865335
 30
0.0
 10
166.3436024916846
 20
76.46050974045556
 30
0.0
 10
165.7529577604146
 20
75.0534405601511
 30
0.0
 10
164.9122089771481
 20
73.92641307397025
 30
0.0
 10
163.810129526084
 20
73.08566429070379
 30
0.0
 10
162.7261374004738
 20
72.26050802938607
 30
0.0
 10
161.4163655571101
 20
71.6636262893253
 30
0.0
 10
159.8876747056329
 20
71.2919005661679
 30
0.0
 10
158.3645971620626
 20
70.92953035616756
 30
0.0
 10
156.5739519419058
 20
70.74678599897288
 30
0.0
 10
154.5213523530874
 20
70.74678599897288
 30
0.0
 10
154.5213523530874
 20
70.74678599897288
 30
0.0
 10
134.1051278193463
 20
70.74678599897288
 30
0.0
 10
134.1051278193463
 20
70.74678599897288
 30
0.0
 10
134.1051278193463
 20
70.74678599897288
 30
0.0
 10
134.1051278193463
 20
77.29190301055314
 30
0.0
 10
134.1051278193463
 20
77.29190301055314
 30
0.0
 10
134.1051278193463
 20
77.29190301055314
 30
0.0
 10
153.3275888729895
 20
77.29190301055314
 30
0.0
 10
153.3275888729895
 20
77.29190301055314
 30
0.0
 10
155.1918307967171
 20
77.29190301055314
 30
0.0
 10
156.6350746279277
 20
77.56570769590871
 30
0.0
 10
157.6704180850738
 20
78.12017777626079
 30
0.0
 10
158.718235559767
 20
78.6740241557518
 30
0.0
 10
159.235907288341
 20
79.694398791823
 30
0.0
 10
159.235907288341
 20
81.20500231783535
 30
0.0
 10
159.235907288341
 20
81.36654084518705
 30
0.0
 10
159.2234332707831
 20
81.64034553054262
 30
0.0
 10
159.1685475935392
 20
82.04575110110181
 30
0.0
 10
159.0531629311463
 20
83.46467059809038
 30
0.0
 10
158.5417282113522
 20
84.4027167182976
 30
0.0
 10
157.6704180850738
 20
84.85053394855186
 30
0.0
 10
156.7934946508904
 20
85.29211417002807
 30
0.0
 10
155.5205211593166
 20
85.54783152993059
 30
0.0
 10
153.8396472936565
 20
85.61144901945863
 30
0.0
 10
153.8396472936565
 20
85.61144901945863
 30
0.0
 10
144.8128244893305
 20
85.61144901945863
 30
0.0
 10
144.8128244893305
 20
85.61144901945863
 30
0.0
 10
140.8535713170895
 20
85.61144901945863
 30
0.0
 10
137.8386012738229
 20
86.42163645971323
 30
0.0
 10
135.7554403419945
 20
88.02953732267633
 30
0.0
 10
133.6666661022482
 20
89.64367519440748
 30
0.0
 10
132.6126116187752
 20
92.37548503915059
 30
0.0
 10
132.6126116187752
 20
96.22184835250391
 30
0.0
 10
132.66749729603
 20
98.29565377117524
 30
0.0
 10
132.9968113595023
 20
100.0619746570901
 30
0.0
 10
133.6117804250043
 20
101.4871311628585
 30
0.0
 10
134.2148991738322
 20
102.9185246773941
 30
0.0
 10
135.0674982737837
 20
104.0455521635749
 30
0.0
 10
136.1452533906158
 20
104.8738269292826
 30
0.0
 10
137.2298692171007
 20
105.714575712549
 30
0.0
 10
138.5334040516846
 20
106.308338948209
 30
0.0
 10
140.0558578943819
 20
106.6738276625983
 30
0.0
 10
141.5783117370793
 20
107.0455533857676
 30
0.0
 10
143.3508696317731
 20
107.2251792385723
 30
0.0
 10
145.4034692206005
 20
107.2251792385723
 30
0.0
 10
145.4034692206005
 20
107.2251792385723
 30
0.0
 10
165.5215647347559
 20
107.2251792385723
 30
0.0
 10
165.5215647347559
 20
107.2251792385723
 30
0.0
 10
165.5215647347559
 20
107.2251792385723
 30
0.0
 10
165.5215647347559
 20
100.6744489190869
 30
0.0
 10
165.5215647347559
 20
100.6744489190869
 30
0.0
  0
HATCH
  5
77
330
45
100
AcDbEntity
  8
Layer 1
 62
   250
420
  2564903
100
AcDbHatch
 10
0.0
 20
0.0
 30
0.0
210
0.0
220
0.0
230
1.0
  2
SOLID
 70
     1
 71
     0
 91
        1
 92
        1
 93
        1
 72
     4
 94
        3
 73
     0
 74
     1
 95
       95
 96
       91
 40
0.0
 40
0.0
 40
0.0
 40
0.0
 40
1.0
 40
1.0
 40
1.0
 40
2.0
 40
2.0
 40
2.0
 40
3.0
 40
3.0
 40
3.0
 40
4.0
 40
4.0
 40
4.0
 40
5.0
 40
5.0
 40
5.0
 40
6.0
 40
6.0
 40
6.0
 40
7.0
 40
7.0
 40
7.0
 40
8.0
 40
8.0
 40
8.0
 40
9.0
 40
9.0
 40
9.0
 40
10.0
 40
10.0
 40
10.0
 40
11.0
 40
11.0
 40
11.0
 40
12.0
 40
12.0
 40
12.0
 40
13.0
 40
13.0
 40
13.0
 40
14.0
 40
14.0
 40
14.0
 40
15.0
 40
15.0
 40
15.0
 40
16.0
 40
16.0
 40
16.0
 40
17.0
 40
17.0
 40
17.0
 40
18.0
 40
18.0
 40
18.0
 40
19.0
 40
19.0
 40
19.0
 40
20.0
 40
20.0
 40
20.0
 40
21.0
 40
21.0
 40
21.0
 40
22.0
 40
22.0
 40
22.0
 40
23.0
 40
23.0
 40
23.0
 40
24.0
 40
24.0
 40
24.0
 40
25.0
 40
25.0
 40
25.0
 40
26.0
 40
26.0
 40
26.0
 40
27.0
 40
27.0
 40
27.0
 40
28.0
 40
28.0
 40
28.0
 40
29.0
 40
29.0
 40
29.0
 40
30.0
 40
30.0
 40
30.0
 40
30.0
 10
165.5215647347559
 20
100.6744489190869
 10
165.5215647347559
 20
100.6744489190869
 10
146.6034697094783
 20
100.6744489190869
 10
146.6034697094783
 20
100.6744489190869
 10
142.6198922030035
 20
100.6744489190869
 10
140.65273963443
 20
99.08775388597769
 10
140.65273963443
 20
95.9174823241483
 10
140.65273963443
 20
94.56218031669869
 10
141.1092886769802
 20
93.5692485192485
 10
142.0167734541756
 20
92.91748110195567
 10
142.9124079146859
 20
92.28130620659977
 10
144.0880840693317
 20
91.95511064751736
 10
145.5007665575413
 20
91.95511064751736
 10
145.5007665575413
 20
91.95511064751736
 10
155.6178184962464
 20
91.95511064751736
 10
155.6178184962464
 20
91.95511064751736
 10
157.0367379932341
 20
91.95511064751736
 10
158.2061771391
 20
91.92205450098936
 10
159.1504602680743
 20
91.82413346317662
 10
160.0822693795017
 20
91.73619163940566
 10
161.0327895172668
 20
91.50479861374606
 10
162.0070102883801
 20
91.14492320726185
 10
162.9818547603754
 20
90.7707026805765
 10
163.810129526084
 20
90.25614945640518
 10
164.5348699460847
 20
89.5769392004795
 10
166.3866378522544
 20
87.88982832605143
 10
167.3122099549018
 20
85.25219731384823
 10
167.3122099549018
 20
81.64034553054262
 10
167.2635612864378
 20
79.61207027594628
 10
166.9529582492924
 20
77.87319222865335
 10
166.3436024916846
 20
76.46050974045556
 10
165.7529577604146
 20
75.0534405601511
 10
164.9122089771481
 20
73.92641307397025
 10
163.810129526084
 20
73.08566429070379
 10
162.7261374004738
 20
72.26050802938607
 10
161.4163655571101
 20
71.6636262893253
 10
159.8876747056329
 20
71.2919005661679
 10
158.3645971620626
 20
70.92953035616756
 10
156.5739519419058
 20
70.74678599897288
 10
154.5213523530874
 20
70.74678599897288
 10
154.5213523530874
 20
70.74678599897288
 10
134.1051278193463
 20
70.74678599897288
 10
134.1051278193463
 20
70.74678599897288
 10
134.1051278193463
 20
70.74678599897288
 10
134.1051278193463
 20
77.29190301055314
 10
134.1051278193463
 20
77.29190301055314
 10
134.1051278193463
 20
77.29190301055314
 10
153.3275888729895
 20
77.29190301055314
 10
153.3275888729895
 20
77.29190301055314
 10
155.1918307967171
 20
77.29190301055314
 10
156.6350746279277
 20
77.56570769590871
 10
157.6704180850738
 20
78.12017777626079
 10
158.718235559767
 20
78.6740241557518
 10
159.235907288341
 20
79.694398791823
 10
159.235907288341
 20
81.20500231783535
 10
159.235907288341
 20
81.36654084518705
 10
159.2234332707831
 20
81.64034553054262
 10
159.1685475935392
 20
82.04575110110181
 10
159.0531629311463
 20
83.46467059809038
 10
158.5417282113522
 20
84.4027167182976
 10
157.6704180850738
 20
84.85053394855186
 10
156.7934946508904
 20
85.29211417002807
 10
155.5205211593166
 20
85.54783152993059
 10
153.8396472936565
 20
85.61144901945863
 10
153.8396472936565
 20
85.61144901945863
 10
144.8128244893305
 20
85.61144901945863
 10
144.8128244893305
 20
85.61144901945863
 10
140.8535713170895
 20
85.61144901945863
 10
137.8386012738229
 20
86.42163645971323
 10
135.7554403419945
 20
88.02953732267633
 10
133.6666661022482
 20
89.64367519440748
 10
132.6126116187752
 20
92.37548503915059
 10
132.6126116187752
 20
96.22184835250391
 10
132.66749729603
 20
98.29565377117524
 10
132.9968113595023
 20
100.0619746570901
 10
133.6117804250043
 20
101.4871311628585
 10
134.2148991738322
 20
102.9185246773941
 10
135.0674982737837
 20
104.0455521635749
 10
136.1452533906158
 20
104.8738269292826
 10
137.2298692171007
 20
105.714575712549
 10
138.5334040516846
 20
106.308338948209
 10
140.0558578943819
 20
106.6738276625983
 10
141.5783117370793
 20
107.0455533857676
 10
143.3508696317731
 20
107.2251792385723
 10
145.4034692206005
 20
107.2251792385723
 10
145.4034692206005
 20
107.2251792385723
 10
165.5215647347559
 20
107.2251792385723
 10
165.5215647347559
 20
107.2251792385723
 10
165.5215647347559
 20
107.2251792385723
 10
165.5215647347559
 20
100.6744489190869
 10
165.5215647347559
 20
100.6744489190869
 97
        0
 97
        0
 75
     2
 76
     1
 98
        0
  0
ENDBLK
  5
48
330
45
100
AcDbEntity
  8
0
100
AcDbBlockEnd
  0
BLOCK
  5
7B
330
79
100
AcDbEntity
  8
0
100
AcDbBlockBegin
  2
block 4
 70
     0
 10
0.0
 20
0.0
 30
0.0
  3
block 4
  1

  0
INSERT
  5
7E
330
79
100
AcDbEntity
  8
Layer 1
100
AcDbBlockReference
  2
block 5
 10
0.0
 20
0.0
 30
0.0
  0
INSERT
  5
A2
330
79
100
AcDbEntity
  8
Layer 1
100
AcDbBlockReference
  2
block 6
 10
0.0
 20
0.0
 30
0.0
  0
ENDBLK
  5
7C
330
79
100
AcDbEntity
  8
0
100
AcDbBlockEnd
  0
BLOCK
  5
7F
330
7D
100
AcDbEntity
  8
0
100
AcDbBlockBegin
  2
block 5
 70
     0
 10
0.0
 20
0.0
 30
0.0
  3
block 5
  1

  0
SPLINE
  5
81
330
7D
100
AcDbEntity
  8
Layer 1
 62
   250
420
  2564903
370
    53
100
AcDbSpline
210
0.0
220
0.0
230
1.0
 70
    11
 71
     3
 72
    62
 73
    58
 74
     0
 42
0.0000000001
 43
0.0000000001
 12
1.0
 22
0.0
 32
0.0
 13
1.0
 23
0.0
 33
0.0
 40
0.0
 40
0.0
 40
0.0
 40
0.0
 40
1.0
 40
1.0
 40
1.0
 40
2.0
 40
2.0
 40
2.0
 40
3.0
 40
3.0
 40
3.0
 40
4.0
 40
4.0
 40
4.0
 40
5.0
 40
5.0
 40
5.0
 40
6.0
 40
6.0
 40
6.0
 40
7.0
 40
7.0
 40
7.0
 40
8.0
 40
8.0
 40
8.0
 40
9.0
 40
9.0
 40
9.0
 40
10.0
 40
10.0
 40
10.0
 40
11.0
 40
11.0
 40
11.0
 40
12.0
 40
12.0
 40
12.0
 40
13.0
 40
13.0
 40
13.0
 40
14.0
 40
14.0
 40
14.0
 40
15.0
 40
15.0
 40
15.0
 40
16.0
 40
16.0
 40
16.0
 40
17.0
 40
17.0
 40
17.0
 40
18.0
 40
18.0
 40
18.0
 40
19.0
 40
19.0
 40
19.0
 40
19.0
 10
57.37869323475206
 20
19.55029944516536
 30
0.0
 10
57.37869323475206
 20
19.55029944516536
 30
0.0
 10
78.9406562810127
 20
19.55029944516536
 30
0.0
 10
78.9406562810127
 20
19.55029944516536
 30
0.0
 10
80.41446145523332
 20
19.52036180302639
 30
0.0
 10
81.68743494681803
 20
19.37379209674873
 30
0.0
 10
82.75333974696514
 20
19.1243117456379
 30
0.0
 10
83.8130075383433
 20
18.86859438573447
 30
0.0
 10
84.72049231553865
 20
18.44198298532137
 30
0.0
 10
85.46955706977133
 20
17.85757526283123
 30
0.0
 10
86.21300851609703
 20
17.27254383945728
 30
0.0
 10
86.7855659219149
 20
16.48106742553864
 30
0.0
 10
87.18722928721036
 20
15.49437263686923
 30
0.0
 10
87.58327934461158
 20
14.50144083941814
 30
0.0
 10
87.7841110272584
 20
13.25279168206544
 30
0.0
 10
87.7841110272584
 20
11.72971413849518
 30
0.0
 10
87.7841110272584
 20
11.72971413849518
 30
0.0
 10
87.7841110272584
 20
-1.779646874550963
 30
0.0
 10
87.7841110272584
 20
-1.779646874550963
 30
0.0
 10
87.7841110272584
 20
-1.779646874550963
 30
0.0
 10
82.18078234114728
 20
-1.779646874550963
 30
0.0
 10
82.18078234114728
 20
-1.779646874550963
 30
0.0
 10
82.18078234114728
 20
-1.779646874550963
 30
0.0
 10
82.18078234114728
 20
11.02368474483228
 30
0.0
 10
82.18078234114728
 20
11.02368474483228
 30
0.0
 10
82.18078234114728
 20
12.61911159022566
 30
0.0
 10
81.90074064702458
 20
13.66692906493154
 30
0.0
 10
81.35250757544054
 20
14.15403945048092
 30
0.0
 10
80.79803749507664
 20
14.62929951935803
 30
0.0
 10
79.8662283836602
 20
14.86692955380749
 30
0.0
 10
78.56269354906362
 20
14.86692955380749
 30
0.0
 10
78.30073918039307
 20
14.86692955380749
 30
0.0
 10
77.85042714662268
 20
14.86069254502945
 30
0.0
 10
77.21051004600304
 20
14.84821852746973
 30
0.0
 10
76.57745365503797
 20
14.83636821079745
 30
0.0
 10
75.97433490621006
 20
14.82389419323772
 30
0.0
 10
75.38369017494006
 20
14.80580686777466
 30
0.0
 10
75.38369017494006
 20
14.80580686777466
 30
0.0
 10
75.38369017494006
 20
-1.779646874550963
 30
0.0
 10
75.38369017494006
 20
-1.779646874550963
 30
0.0
 10
75.38369017494006
 20
-1.779646874550963
 30
0.0
 10
69.62755477377141
 20
-1.779646874550963
 30
0.0
 10
69.62755477377141
 20
-1.779646874550963
 30
0.0
 10
69.62755477377141
 20
-1.779646874550963
 30
0.0
 10
69.62755477377141
 20
14.80580686777466
 30
0.0
 10
69.62755477377141
 20
14.80580686777466
 30
0.0
 10
69.62755477377141
 20
14.80580686777466
 30
0.0
 10
62.98825892964123
 20
14.80580686777466
 30
0.0
 10
62.98825892964123
 20
14.80580686777466
 30
0.0
 10
62.98825892964123
 20
14.80580686777466
 30
0.0
 10
62.98825892964123
 20
-1.779646874550963
 30
0.0
 10
62.98825892964123
 20
-1.779646874550963
 30
0.0
 10
62.98825892964123
 20
-1.779646874550963
 30
0.0
 10
57.37869323475206
 20
-1.779646874550963
 30
0.0
 10
57.37869323475206
 20
-1.779646874550963
 30
0.0
 10
57.37869323475206
 20
-1.779646874550963
 30
0.0
 10
57.37869323475206
 20
19.55029944516536
 30
0.0
 10
57.37869323475206
 20
19.55029944516536
 30
0.0
  0
POLYLINE
  5
82
330
7D
100
AcDbEntity
  8
Layer 1
 62
   250
420
  2564903
370
    53
100
AcDb2dPolyline
 66
     1
 10
0.0
 20
0.0
 30
0.0
  0
VERTEX
  5
83
330
82
100
AcDbEntity
  8
Layer 1
 62
   250
420
  2564903
370
    53
100
AcDbVertex
100
AcDb2dVertex
 10
98.68702607199702
 20
25.53782787200362
 30
0.0
  0
VERTEX
  5
84
330
82
100
AcDbEntity
  8
Layer 1
 62
   250
420
  2564903
370
    53
100
AcDbVertex
100
AcDb2dVertex
 10
92.84606735144916
 20
25.53782787200362
 30
0.0
  0
VERTEX
  5
85
330
82
100
AcDbEntity
  8
Layer 1
 62
   250
420
  2564903
370
    53
100
AcDbVertex
100
AcDb2dVertex
 10
92.84606735144916
 20
30.82494021307321
 30
0.0
  0
VERTEX
  5
86
330
82
100
AcDbEntity
  8
Layer 1
 62
   250
420
  2564903
370
    53
100
AcDbVertex
100
AcDb2dVertex
 10
98.68702607199702
 20
30.82494021307321
 30
0.0
  0
VERTEX
  5
87
330
82
100
AcDbEntity
  8
Layer 1
 62
   250
420
  2564903
370
    53
100
AcDbVertex
100
AcDb2dVertex
 10
98.68702607199702
 20
25.53782787200362
 30
0.0
  0
SEQEND
  5
88
330
82
100
AcDbEntity
  8
Layer 1
 62
   250
420
  2564903
370
    53
  0
POLYLINE
  5
89
330
7D
100
AcDbEntity
  8
Layer 1
 62
   250
420
  2564903
370
    53
100
AcDb2dPolyline
 66
     1
 10
0.0
 20
0.0
 30
0.0
  0
VERTEX
  5
8A
330
89
100
AcDbEntity
  8
Layer 1
 62
   250
420
  2564903
370
    53
100
AcDbVertex
100
AcDb2dVertex
 10
98.68702607199702
 20
-1.779646874550963
 30
0.0
  0
VERTEX
  5
8B
330
89
100
AcDbEntity
  8
Layer 1
 62
   250
420
  2564903
370
    53
100
AcDbVertex
100
AcDb2dVertex
 10
92.84606735144916
 20
-1.779646874550963
 30
0.0
  0
VERTEX
  5
8C
330
89
100
AcDbEntity
  8
Layer 1
 62
   250
420
  2564903
370
    53
100
AcDbVertex
100
AcDb2dVertex
 10
92.84606735144916
 20
19.55029944516536
 30
0.0
  0
VERTEX
  5
8D
330
89
100
AcDbEntity
  8
Layer 1
 62
   250
420
  2564903
370
    53
100
AcDbVertex
100
AcDb2dVertex
 10
98.68702607199702
 20
19.55029944516536
 30
0.0
  0
VERTEX
  5
8E
330
89
100
AcDbEntity
  8
Layer 1
 62
   250
420
  2564903
370
    53
100
AcDbVertex
100
AcDb2dVertex
 10
98.68702607199702
 20
-1.779646874550963
 30
0.0
  0
SEQEND
  5
8F
330
89
100
AcDbEntity
  8
Layer 1
 62
   250
420
  2564903
370
    53
  0
POLYLINE
  5
90
330
7D
100
AcDbEntity
  8
Layer 1
 62
   250
420
  2564903
370
    53
100
AcDb2dPolyline
 66
     1
 10
0.0
 20
0.0
 30
0.0
  0
VERTEX
  5
91
330
90
100
AcDbEntity
  8
Layer 1
 62
   250
420
  2564903
370
    53
100
AcDbVertex
100
AcDb2dVertex
 10
103.7421216865241
 20
30.82494021307321
 30
0.0
  0
VERTEX
  5
92
330
90
100
AcDbEntity
  8
Layer 1
 62
   250
420
  2564903
370
    53
100
AcDbVertex
100
AcDb2dVertex
 10
109.346074073519
 20
30.82494021307321
 30
0.0
  0
VERTEX
  5
93
330
90
100
AcDbEntity
  8
Layer 1
 62
   250
420
  2564903
370
    53
100
AcDbVertex
100
AcDb2dVertex
 10
109.346074073519
 20
9.28168819315033
 30
0.0
  0
VERTEX
  5
94
330
90
100
AcDbEntity
  8
Layer 1
 62
   250
420
  2564903
370
    53
100
AcDbVertex
100
AcDb2dVertex
 10
118.4333958629832
 20
19.55029944516536
 30
0.0
  0
VERTEX
  5
95
330
90
100
AcDbEntity
  8
Layer 1
 62
   250
420
  2564903
370
    53
100
AcDbVertex
100
AcDb2dVertex
 10
125.5292407496636
 20
19.55029944516536
 30
0.0
  0
VERTEX
  5
96
330
90
100
AcDbEntity
  8
Layer 1
 62
   250
420
  2564903
370
    53
100
AcDbVertex
100
AcDb2dVertex
 10
115.662292862944
 20
9.123268170187657
 30
0.0
  0
VERTEX
  5
97
330
90
100
AcDbEntity
  8
Layer 1
 62
   250
420
  2564903
370
    53
100
AcDbVertex
100
AcDb2dVertex
 10
125.5292407496636
 20
-1.779646874550963
 30
0.0
  0
VERTEX
  5
98
330
90
100
AcDbEntity
  8
Layer 1
 62
   250
420
  2564903
370
    53
100
AcDbVertex
100
AcDb2dVertex
 10
117.951898785328
 20
-1.779646874550963
 30
0.0
  0
VERTEX
  5
99
330
90
100
AcDbEntity
  8
Layer 1
 62
   250
420
  2564903
370
    53
100
AcDbVertex
100
AcDb2dVertex
 10
109.346074073519
 20
8.575035098603621
 30
0.0
  0
VERTEX
  5
9A
330
90
100
AcDbEntity
  8
Layer 1
 62
   250
420
  2564903
370
    53
100
AcDbVertex
100
AcDb2dVertex
 10
109.346074073519
 20
-1.779646874550963
 30
0.0
  0
VERTEX
  5
9B
330
90
100
AcDbEntity
  8
Layer 1
 62
   250
420
  2564903
370
    53
100
AcDbVertex
100
AcDb2dVertex
 10
103.7421216865241
 20
-1.779646874550963
 30
0.0
  0
VERTEX
  5
9C
330
90
100
AcDbEntity
  8
Layer 1
 62
   250
420
  2564903
370
    53
100
AcDbVertex
100
AcDb2dVertex
 10
103.7421216865241
 20
30.82494021307321
 30
0.0
  0
SEQEND
  5
9D
330
90
100
AcDbEntity
  8
Layer 1
 62
   250
420
  2564903
370
    53
  0
SPLINE
  5
9E
330
7D
100
AcDbEntity
  8
Layer 1
 62
   250
420
  2564903
370
    53
100
AcDbSpline
210
0.0
220
0.0
230
1.0
 70
    11
 71
     3
 72
    50
 73
    46
 74
     0
 42
0.0000000001
 43
0.0000000001
 12
1.0
 22
0.0
 32
0.0
 13
1.0
 23
0.0
 33
0.0
 40
0.0
 40
0.0
 40
0.0
 40
0.0
 40
1.0
 40
1.0
 40
1.0
 40
2.0
 40
2.0
 40
2.0
 40
3.0
 40
3.0
 40
3.0
 40
4.0
 40
4.0
 40
4.0
 40
5.0
 40
5.0
 40
5.0
 40
6.0
 40
6.0
 40
6.0
 40
7.0
 40
7.0
 40
7.0
 40
8.0
 40
8.0
 40
8.0
 40
9.0
 40
9.0
 40
9.0
 40
10.0
 40
10.0
 40
10.0
 40
11.0
 40
11.0
 40
11.0
 40
12.0
 40
12.0
 40
12.0
 40
13.0
 40
13.0
 40
13.0
 40
14.0
 40
14.0
 40
14.0
 40
15.0
 40
15.0
 40
15.0
 40
15.0
 10
127.9049173931853
 20
19.55029944516536
 30
0.0
 10
127.9049173931853
 20
19.55029944516536
 30
0.0
 10
137.3820522312835
 20
19.55029944516536
 30
0.0
 10
137.3820522312835
 20
19.55029944516536
 30
0.0
 10
139.1358990996396
 20
19.55029944516536
 30
0.0
 10
140.4331969254563
 20
19.30705610282166
 30
0.0
 10
141.2920330341767
 20
18.81994571727046
 30
0.0
 10
142.1452558350011
 20
18.33221163083545
 30
0.0
 10
142.6991022144794
 20
17.65050657140455
 30
0.0
 10
142.9492062664776
 20
16.77295943634817
 30
0.0
 10
143.2049236263683
 20
15.89603600216469
 30
0.0
 10
143.3265452975393
 20
14.73907087385669
 30
0.0
 10
143.3265452975393
 20
13.28896633298245
 30
0.0
 10
143.3265452975393
 20
12.72264593594446
 30
0.0
 10
143.3265452975393
 20
12.2536228758363
 30
0.0
 10
143.314694980867
 20
11.87628384477284
 30
0.0
 10
143.3084579720871
 20
11.50455812161454
 30
0.0
 10
143.3084579720871
 20
11.08418372997039
 30
0.0
 10
143.3084579720871
 20
10.62139767865301
 30
0.0
 10
143.3084579720871
 20
10.62139767865301
 30
0.0
 10
137.9302853028566
 20
10.62139767865301
 30
0.0
 10
137.9302853028566
 20
10.62139767865301
 30
0.0
 10
137.9302853028566
 20
10.62139767865301
 30
0.0
 10
137.9302853028566
 20
12.4606915672739
 30
0.0
 10
137.9302853028566
 20
12.4606915672739
 30
0.0
 10
137.9302853028566
 20
13.48418470773686
 30
0.0
 10
137.8753996256128
 20
14.19083780227265
 30
0.0
 10
137.747540945662
 20
14.55632651666201
 30
0.0
 10
137.6252955736163
 20
14.93990255650533
 30
0.0
 10
137.3514908882607
 20
15.17753259094206
 30
0.0
 10
136.9311164966275
 20
15.28668024455692
 30
0.0
 10
136.5107421049943
 20
15.39645159905558
 30
0.0
 10
135.7435900253095
 20
15.44510026751959
 30
0.0
 10
134.6595978996975
 20
15.44510026751959
 30
0.0
 10
134.6595978996975
 20
15.44510026751959
 30
0.0
 10
133.5082460792964
 20
15.44510026751959
 30
0.0
 10
133.5082460792964
 20
15.44510026751959
 30
0.0
 10
133.5082460792964
 20
15.44510026751959
 30
0.0
 10
133.5082460792964
 20
-1.779646874550963
 30
0.0
 10
133.5082460792964
 20
-1.779646874550963
 30
0.0
 10
133.5082460792964
 20
-1.779646874550963
 30
0.0
 10
127.9049173931853
 20
-1.779646874550963
 30
0.0
 10
127.9049173931853
 20
-1.779646874550963
 30
0.0
 10
127.9049173931853
 20
-1.779646874550963
 30
0.0
 10
127.9049173931853
 20
19.55029944516536
 30
0.0
 10
127.9049173931853
 20
19.55029944516536
 30
0.0
  0
SPLINE
  5
9F
330
7D
100
AcDbEntity
  8
Layer 1
 62
   250
420
  2564903
370
    53
100
AcDbSpline
210
0.0
220
0.0
230
1.0
 70
    11
 71
     3
 72
    53
 73
    49
 74
     0
 42
0.0000000001
 43
0.0000000001
 12
1.0
 22
0.0
 32
0.0
 13
1.0
 23
0.0
 33
0.0
 40
0.0
 40
0.0
 40
0.0
 40
0.0
 40
1.0
 40
1.0
 40
1.0
 40
2.0
 40
2.0
 40
2.0
 40
3.0
 40
3.0
 40
3.0
 40
4.0
 40
4.0
 40
4.0
 40
5.0
 40
5.0
 40
5.0
 40
6.0
 40
6.0
 40
6.0
 40
7.0
 40
7.0
 40
7.0
 40
8.0
 40
8.0
 40
8.0
 40
9.0
 40
9.0
 40
9.0
 40
10.0
 40
10.0
 40
10.0
 40
11.0
 40
11.0
 40
11.0
 40
12.0
 40
12.0
 40
12.0
 40
13.0
 40
13.0
 40
13.0
 40
14.0
 40
14.0
 40
14.0
 40
15.0
 40
15.0
 40
15.0
 40
16.0
 40
16.0
 40
16.0
 40
16.0
 10
164.949007328938
 20
0.754449791933439
 30
0.0
 10
163.9379882060366
 20
-0.207920662505785
 30
0.0
 10
162.7199003917049
 20
-0.938898091273586
 30
0.0
 10
161.2822698683794
 20
-1.438482494393611
 30
0.0
 10
159.8390260371689
 20
-1.949917214187735
 30
0.0
 10
158.3465098365996
 20
-2.218108591638156
 30
0.0
 10
156.8115819763443
 20
-2.218108591638156
 30
0.0
 10
155.2704171073201
 20
-2.218108591638156
 30
0.0
 10
153.7785246076346
 20
-1.949917214187735
 30
0.0
 10
152.3346570755402
 20
-1.438482494393611
 30
0.0
 10
150.8789392267608
 20
-0.9270477745994867
 30
0.0
 10
149.6608514124309
 20
-0.1898333370409091
 30
0.0
 10
148.6803936325396
 20
0.754449791933439
 30
0.0
 10
147.6569004920766
 20
1.752994897289682
 30
0.0
 10
146.8772743948339
 20
2.971082711619601
 30
0.0
 10
146.3296650241227
 20
4.421187252492018
 30
0.0
 10
145.7751949437697
 20
5.858194074935454
 30
0.0
 10
145.4951532496343
 20
7.344473266713976
 30
0.0
 10
145.4951532496343
 20
8.891875144528967
 30
0.0
 10
145.4951532496343
 20
10.38376764421446
 30
0.0
 10
145.7689579349899
 20
11.85195951054084
 30
0.0
 10
146.2991036811109
 20
13.27711601630836
 30
0.0
 10
146.8473367526949
 20
14.68979850450705
 30
0.0
 10
147.6388131666135
 20
15.9085100197226
 30
0.0
 10
148.6803936325396
 20
16.94385347685784
 30
0.0
 10
149.6608514124309
 20
17.90622393129524
 30
0.0
 10
150.8789392267608
 20
18.64905167674988
 30
0.0
 10
152.3346570755402
 20
19.17296041410191
 30
0.0
 10
153.7785246076346
 20
19.69686915144302
 30
0.0
 10
155.2704171073201
 20
19.96443682801873
 30
0.0
 10
156.8115819763443
 20
19.96443682801873
 30
0.0
 10
158.3465098365996
 20
19.96443682801873
 30
0.0
 10
159.8390260371689
 20
19.69686915144302
 30
0.0
 10
161.2822698683794
 20
19.18481073077601
 30
0.0
 10
162.7199003917049
 20
18.67337601098188
 30
0.0
 10
163.9379882060366
 20
17.91807424798026
 30
0.0
 10
164.949007328938
 20
16.94385347685784
 30
0.0
 10
165.972500469401
 20
15.95715868818661
 30
0.0
 10
166.7577398745489
 20
14.75092119053079
 30
0.0
 10
167.3059729461238
 20
13.33761500144647
 30
0.0
 10
167.847969008928
 20
11.93116952201672
 30
0.0
 10
168.1223973951564
 20
10.43865332145833
 30
0.0
 10
168.1223973951564
 20
8.891875144528967
 30
0.0
 10
168.1223973951564
 20
7.344473266713976
 30
0.0
 10
167.8423557010337
 20
5.858194074935454
 30
0.0
 10
167.3003596382277
 20
4.421187252492018
 30
0.0
 10
166.7458895578638
 20
2.971082711619601
 30
0.0
 10
165.9600264518413
 20
1.752994897289682
 30
0.0
 10
164.949007328938
 20
0.754449791933439
 30
0.0
  0
SPLINE
  5
A0
330
7D
100
AcDbEntity
  8
Layer 1
 62
   250
420
  2564903
370
    53
100
AcDbSpline
210
0.0
220
0.0
230
1.0
 70
    11
 71
     3
 72
    41
 73
    37
 74
     0
 42
0.0000000001
 43
0.0000000001
 12
1.0
 22
0.0
 32
0.0
 13
1.0
 23
0.0
 33
0.0
 40
0.0
 40
0.0
 40
0.0
 40
0.0
 40
1.0
 40
1.0
 40
1.0
 40
2.0
 40
2.0
 40
2.0
 40
3.0
 40
3.0
 40
3.0
 40
4.0
 40
4.0
 40
4.0
 40
5.0
 40
5.0
 40
5.0
 40
6.0
 40
6.0
 40
6.0
 40
7.0
 40
7.0
 40
7.0
 40
8.0
 40
8.0
 40
8.0
 40
9.0
 40
9.0
 40
9.0
 40
10.0
 40
10.0
 40
10.0
 40
11.0
 40
11.0
 40
11.0
 40
12.0
 40
12.0
 40
12.0
 40
12.0
 10
154.9174024104886
 20
2.727839369274079
 30
0.0
 10
155.5080471417587
 20
2.514533669069351
 30
0.0
 10
156.1174028993664
 20
2.410999323361466
 30
0.0
 10
156.7510829912062
 20
2.410999323361466
 30
0.0
 10
157.8955741019545
 20
2.410999323361466
 30
0.0
 10
158.9371545678678
 20
2.745926694738955
 30
0.0
 10
159.8939117144128
 20
3.422018446262882
 30
0.0
 10
160.8375711425142
 20
4.085636180241636
 30
0.0
 10
161.495575568586
 20
4.993744658309879
 30
0.0
 10
161.8610642829753
 20
6.126385452384056
 30
0.0
 10
162.116781642877
 20
7.01578290411635
 30
0.0
 10
162.2446403228168
 20
7.917030672531837
 30
0.0
 10
162.2446403228168
 20
8.83075245850523
 30
0.0
 10
162.2446403228168
 20
10.20726029579782
 30
0.0
 10
161.9645986286941
 20
11.46214646191947
 30
0.0
 10
161.4226025658882
 20
12.57046292176165
 30
0.0
 10
160.8681324855243
 20
13.67877938160382
 30
0.0
 10
160.0460947285956
 20
14.45279217094321
 30
0.0
 10
158.9371545678678
 20
14.88501687926146
 30
0.0
 10
158.2735368339017
 20
15.16505857338416
 30
0.0
 10
157.5793577569129
 20
15.29915426211483
 30
0.0
 10
156.8664676535991
 20
15.29915426211483
 30
0.0
 10
155.6970285077332
 20
15.29915426211483
 30
0.0
 10
154.6373607163532
 20
14.97046389951538
 30
0.0
 10
153.6812272706939
 20
14.28813513921159
 30
0.0
 10
152.7244701241616
 20
13.60580637889689
 30
0.0
 10
152.0851767244167
 20
12.70455861049231
 30
0.0
 10
151.7564863618172
 20
11.57129411553251
 30
0.0
 10
151.4945319931467
 20
10.71869501559195
 30
0.0
 10
151.360436304416
 20
9.811210238396598
 30
0.0
 10
151.360436304416
 20
8.867550810296962
 30
0.0
 10
151.360436304416
 20
7.478568955444644
 30
0.0
 10
151.6529520161093
 20
6.229919798091942
 30
0.0
 10
152.2554470640534
 20
5.109129320702777
 30
0.0
 10
152.8404784874274
 20
3.982101834521018
 30
0.0
 10
153.7298759391597
 20
3.190625420604192
 30
0.0
 10
154.9174024104886
 20
2.727839369274079
 30
0.0
  0
ENDBLK
  5
80
330
7D
100
AcDbEntity
  8
0
100
AcDbBlockEnd
  0
BLOCK
  5
A3
330
A1
100
AcDbEntity
  8
0
100
AcDbBlockBegin
  2
block 6
 70
     0
 10
0.0
 20
0.0
 30
0.0
  3
block 6
  1

  0
SPLINE
  5
A5
330
A1
100
AcDbEntity
  8
Layer 1
 62
   250
420
  2564903
370
    53
100
AcDbSpline
210
0.0
220
0.0
230
1.0
 70
    11
 71
     3
 72
    50
 73
    46
 74
     0
 42
0.0000000001
 43
0.0000000001
 12
1.0
 22
0.0
 32
0.0
 13
1.0
 23
0.0
 33
0.0
 40
0.0
 40
0.0
 40
0.0
 40
0.0
 40
1.0
 40
1.0
 40
1.0
 40
2.0
 40
2.0
 40
2.0
 40
3.0
 40
3.0
 40
3.0
 40
4.0
 40
4.0
 40
4.0
 40
5.0
 40
5.0
 40
5.0
 40
6.0
 40
6.0
 40
6.0
 40
7.0
 40
7.0
 40
7.0
 40
8.0
 40
8.0
 40
8.0
 40
9.0
 40
9.0
 40
9.0
 40
10.0
 40
10.0
 40
10.0
 40
11.0
 40
11.0
 40
11.0
 40
12.0
 40
12.0
 40
12.0
 40
13.0
 40
13.0
 40
13.0
 40
14.0
 40
14.0
 40
14.0
 40
15.0
 40
15.0
 40
15.0
 40
15.0
 10
77.39325440319772
 20
-49.59255616631344
 30
0.0
 10
77.39325440319772
 20
-49.59255616631344
 30
0.0
 10
57.37869323475206
 20
-49.59255616631344
 30
0.0
 10
57.37869323475206
 20
-49.59255616631344
 30
0.0
 10
57.37869323475206
 20
-49.59255616631344
 30
0.0
 10
57.37869323475206
 20
-13.11478662759691
 30
0.0
 10
57.37869323475206
 20
-13.11478662759691
 30
0.0
 10
57.37869323475206
 20
-13.11478662759691
 30
0.0
 10
76.10843059493891
 20
-13.11478662759691
 30
0.0
 10
76.10843059493891
 20
-13.11478662759691
 30
0.0
 10
78.34377454095193
 20
-13.14472426972497
 30
0.0
 10
80.31092710952544
 20
-13.32746862691965
 30
0.0
 10
82.02859932697538
 20
-13.66301969917004
 30
0.0
 10
83.75188485232138
 20
-13.98547305299144
 30
0.0
 10
85.25687507043767
 20
-14.66780181330614
 30
0.0
 10
86.55417289625439
 20
-15.69067125288166
 30
0.0
 10
87.85147072206018
 20
-16.71416439334462
 30
0.0
 10
88.72839415624367
 20
-18.23724193692578
 30
0.0
 10
89.19118020756287
 20
-20.24680616517253
 30
0.0
 10
89.42257323323247
 20
-21.31271096533055
 30
0.0
 10
89.53858159650008
 20
-22.25699409431581
 30
0.0
 10
89.53858159650008
 20
-23.09711917669847
 30
0.0
 10
89.53858159650008
 20
-26.54493762915627
 30
0.0
 10
87.7479363763523
 20
-29.30980362041555
 30
0.0
 10
84.13608459303578
 20
-31.34431588377993
 30
0.0
 10
85.37225973283057
 20
-31.92934730715569
 30
0.0
 10
86.41384019874567
 20
-32.61105236658659
 30
0.0
 10
87.23026464778013
 20
-33.39067846382932
 30
0.0
 10
88.06477642226673
 20
-34.18277857863177
 30
0.0
 10
88.67974548777966
 20
-35.07217603036224
 30
0.0
 10
89.07579554518088
 20
-36.08319515327639
 30
0.0
 10
89.48993292803425
 20
-37.09421427617963
 30
0.0
 10
89.69076461068289
 20
-38.20253073602362
 30
0.0
 10
89.69076461068289
 20
-39.39629421612153
 30
0.0
 10
89.69076461068289
 20
-40.33434033632693
 30
0.0
 10
89.55666892195222
 20
-41.40648214525208
 30
0.0
 10
89.2884775445018
 20
-42.64889429381583
 30
0.0
 10
88.89866449588044
 20
-44.48818818243672
 30
0.0
 10
88.08910075649874
 20
-45.91396838907895
 30
0.0
 10
86.9009505843078
 20
-46.94931184621419
 30
0.0
 10
85.70095009543002
 20
-47.97218128580244
 30
0.0
 10
84.29450461599845
 20
-48.66698406366413
 30
0.0
 10
82.70469107850113
 20
-49.04432309472759
 30
0.0
 10
81.09679021554803
 20
-49.39733779155904
 30
0.0
 10
79.33046932963407
 20
-49.59255616631344
 30
0.0
 10
77.39325440319772
 20
-49.59255616631344
 30
0.0
  0
SPLINE
  5
A6
330
A1
100
AcDbEntity
  8
Layer 1
 62
   250
420
  2564903
370
    53
100
AcDbSpline
210
0.0
220
0.0
230
1.0
 70
    11
 71
     3
 72
    23
 73
    19
 74
     0
 42
0.0000000001
 43
0.0000000001
 12
1.0
 22
0.0
 32
0.0
 13
1.0
 23
0.0
 33
0.0
 40
0.0
 40
0.0
 40
0.0
 40
0.0
 40
1.0
 40
1.0
 40
1.0
 40
2.0
 40
2.0
 40
2.0
 40
3.0
 40
3.0
 40
3.0
 40
4.0
 40
4.0
 40
4.0
 40
5.0
 40
5.0
 40
5.0
 40
6.0
 40
6.0
 40
6.0
 40
6.0
 10
65.01092087633151
 20
-19.66239844268239
 30
0.0
 10
65.01092087633151
 20
-19.66239844268239
 30
0.0
 10
65.01092087633151
 20
-28.07986548940062
 30
0.0
 10
65.01092087633151
 20
-28.07986548940062
 30
0.0
 10
65.01092087633151
 20
-28.07986548940062
 30
0.0
 10
76.21196494065953
 20
-28.07986548940062
 30
0.0
 10
76.21196494065953
 20
-28.07986548940062
 30
0.0
 10
77.85042714662268
 20
-28.07986548940062
 30
0.0
 10
79.0928392951846
 20
-27.77487576016028
 30
0.0
 10
79.96976272936809
 20
-27.14181936920613
 30
0.0
 10
80.82859883808669
 20
-26.53246361159836
 30
0.0
 10
81.26082354640494
 20
-25.45470849476624
 30
0.0
 10
81.26082354640494
 20
-23.92601764329083
 30
0.0
 10
81.26082354640494
 20
-21.075080930892
 30
0.0
 10
79.57371267196686
 20
-19.66239844268239
 30
0.0
 10
76.21196494065953
 20
-19.66239844268239
 30
0.0
 10
76.21196494065953
 20
-19.66239844268239
 30
0.0
 10
65.01092087633151
 20
-19.66239844268239
 30
0.0
 10
65.01092087633151
 20
-19.66239844268239
 30
0.0
  0
SPLINE
  5
A7
330
A1
100
AcDbEntity
  8
Layer 1
 62
   250
420
  2564903
370
    53
100
AcDbSpline
210
0.0
220
0.0
230
1.0
 70
    11
 71
     3
 72
    23
 73
    19
 74
     0
 42
0.0000000001
 43
0.0000000001
 12
1.0
 22
0.0
 32
0.0
 13
1.0
 23
0.0
 33
0.0
 40
0.0
 40
0.0
 40
0.0
 40
0.0
 40
1.0
 40
1.0
 40
1.0
 40
2.0
 40
2.0
 40
2.0
 40
3.0
 40
3.0
 40
3.0
 40
4.0
 40
4.0
 40
4.0
 40
5.0
 40
5.0
 40
5.0
 40
6.0
 40
6.0
 40
6.0
 40
6.0
 10
76.30926227758755
 20
-43.14847869693585
 30
0.0
 10
77.92963715809856
 20
-43.14847869693585
 30
0.0
 10
79.1720493066714
 20
-42.81978833433641
 30
0.0
 10
80.04897274084396
 20
-42.18610824249663
 30
0.0
 10
80.92589617502745
 20
-41.52810381642485
 30
0.0
 10
81.36435789211282
 20
-40.44411169081468
 30
0.0
 10
81.36435789211282
 20
-38.88485949632741
 30
0.0
 10
81.36435789211282
 20
-35.97342379877955
 30
0.0
 10
79.67163370978051
 20
-34.52394295878912
 30
0.0
 10
76.30926227758755
 20
-34.52394295878912
 30
0.0
 10
76.30926227758755
 20
-34.52394295878912
 30
0.0
 10
65.01092087633151
 20
-34.52394295878912
 30
0.0
 10
65.01092087633151
 20
-34.52394295878912
 30
0.0
 10
65.01092087633151
 20
-34.52394295878912
 30
0.0
 10
65.01092087633151
 20
-43.14847869693585
 30
0.0
 10
65.01092087633151
 20
-43.14847869693585
 30
0.0
 10
65.01092087633151
 20
-43.14847869693585
 30
0.0
 10
76.30926227758755
 20
-43.14847869693585
 30
0.0
 10
76.30926227758755
 20
-43.14847869693585
 30
0.0
  0
SPLINE
  5
A8
330
A1
100
AcDbEntity
  8
Layer 1
 62
   250
420
  2564903
370
    53
100
AcDbSpline
210
0.0
220
0.0
230
1.0
 70
    11
 71
     3
 72
    62
 73
    58
 74
     0
 42
0.0000000001
 43
0.0000000001
 12
1.0
 22
0.0
 32
0.0
 13
1.0
 23
0.0
 33
0.0
 40
0.0
 40
0.0
 40
0.0
 40
0.0
 40
1.0
 40
1.0
 40
1.0
 40
2.0
 40
2.0
 40
2.0
 40
3.0
 40
3.0
 40
3.0
 40
4.0
 40
4.0
 40
4.0
 40
5.0
 40
5.0
 40
5.0
 40
6.0
 40
6.0
 40
6.0
 40
7.0
 40
7.0
 40
7.0
 40
8.0
 40
8.0
 40
8.0
 40
9.0
 40
9.0
 40
9.0
 40
10.0
 40
10.0
 40
10.0
 40
11.0
 40
11.0
 40
11.0
 40
12.0
 40
12.0
 40
12.0
 40
13.0
 40
13.0
 40
13.0
 40
14.0
 40
14.0
 40
14.0
 40
15.0
 40
15.0
 40
15.0
 40
16.0
 40
16.0
 40
16.0
 40
17.0
 40
17.0
 40
17.0
 40
18.0
 40
18.0
 40
18.0
 40
19.0
 40
19.0
 40
19.0
 40
19.0
 10
103.2612483097419
 20
-13.11478662759691
 30
0.0
 10
103.2612483097419
 20
-13.11478662759691
 30
0.0
 10
103.2612483097419
 20
-35.02352736189823
 30
0.0
 10
103.2612483097419
 20
-35.02352736189823
 30
0.0
 10
103.2612483097419
 20
-37.15533696220336
 30
0.0
 10
103.4926413354115
 20
-38.87238547876768
 30
0.0
 10
103.9554273867307
 20
-40.17592031336426
 30
0.0
 10
104.418213438059
 20
-41.47945514794992
 30
0.0
 10
105.2589622213254
 20
-42.46614993661933
 30
0.0
 10
106.4708130268773
 20
-43.12415436270385
 30
0.0
 10
107.683287533313
 20
-43.79400910544791
 30
0.0
 10
109.3579243901931
 20
-44.12269946804736
 30
0.0
 10
111.4897339904965
 20
-44.12269946804736
 30
0.0
 10
113.6340176083595
 20
-44.12269946804736
 30
0.0
 10
115.3086544652288
 20
-43.79400910544791
 30
0.0
 10
116.5024179453376
 20
-43.12415436270385
 30
0.0
 10
117.6843311087505
 20
-42.46614993661933
 30
0.0
 10
118.500131856912
 20
-41.47945514794992
 30
0.0
 10
118.9510675915571
 20
-40.16406999667925
 30
0.0
 10
119.3957663174224
 20
-38.8362108278634
 30
0.0
 10
119.6146853255341
 20
-37.13038892708573
 30
0.0
 10
119.6146853255341
 20
-35.02352736189823
 30
0.0
 10
119.6146853255341
 20
-35.02352736189823
 30
0.0
 10
119.6146853255341
 20
-13.11478662759691
 30
0.0
 10
119.6146853255341
 20
-13.11478662759691
 30
0.0
 10
119.6146853255341
 20
-13.11478662759691
 30
0.0
 10
127.2469129671135
 20
-13.11478662759691
 30
0.0
 10
127.2469129671135
 20
-13.11478662759691
 30
0.0
 10
127.2469129671135
 20
-13.11478662759691
 30
0.0
 10
127.2469129671135
 20
-35.21812203576701
 30
0.0
 10
127.2469129671135
 20
-35.21812203576701
 30
0.0
 10
127.2469129671135
 20
-37.47155330724308
 30
0.0
 10
127.1309046038368
 20
-39.33579523097069
 30
0.0
 10
126.887661261504
 20
-40.83392473943604
 30
0.0
 10
126.6562682358326
 20
-42.3445282654593
 30
0.0
 10
126.0774738212494
 20
-43.7210361027519
 30
0.0
 10
125.1699890440541
 20
-44.92664989952391
 30
0.0
 10
122.6789277381395
 20
-48.30149534927477
 30
0.0
 10
118.1165558170687
 20
-49.99421953160891
 30
0.0
 10
111.4897339904965
 20
-49.99421953160891
 30
0.0
 10
104.8017894779023
 20
-49.99421953160891
 30
0.0
 10
100.2094799146944
 20
-48.30149534927477
 30
0.0
 10
97.7121815999999
 20
-44.92664989952391
 30
0.0
 10
97.05480087480282
 20
-44.04972646535134
 30
0.0
 10
96.57330379714585
 20
-43.08735601091212
 30
0.0
 10
96.28078808546525
 20
-42.02768821953396
 30
0.0
 10
95.98265906587585
 20
-40.96802042816671
 30
0.0
 10
95.79991470868117
 20
-39.94452728770557
 30
0.0
 10
95.73879202265925
 20
-38.93350816479142
 30
0.0
 10
95.67205602874128
 20
-37.92248904188818
 30
0.0
 10
95.6290206681715
 20
-36.68007689332626
 30
0.0
 10
95.6290206681715
 20
-35.21812203576701
 30
0.0
 10
95.6290206681715
 20
-35.21812203576701
 30
0.0
 10
95.6290206681715
 20
-13.11478662759691
 30
0.0
 10
95.6290206681715
 20
-13.11478662759691
 30
0.0
 10
95.6290206681715
 20
-13.11478662759691
 30
0.0
 10
103.2612483097419
 20
-13.11478662759691
 30
0.0
 10
103.2612483097419
 20
-13.11478662759691
 30
0.0
  0
SPLINE
  5
A9
330
A1
100
AcDbEntity
  8
Layer 1
 62
   250
420
  2564903
370
    53
100
AcDbSpline
210
0.0
220
0.0
230
1.0
 70
    11
 71
     3
 72
    95
 73
    91
 74
     0
 42
0.0000000001
 43
0.0000000001
 12
1.0
 22
0.0
 32
0.0
 13
1.0
 23
0.0
 33
0.0
 40
0.0
 40
0.0
 40
0.0
 40
0.0
 40
1.0
 40
1.0
 40
1.0
 40
2.0
 40
2.0
 40
2.0
 40
3.0
 40
3.0
 40
3.0
 40
4.0
 40
4.0
 40
4.0
 40
5.0
 40
5.0
 40
5.0
 40
6.0
 40
6.0
 40
6.0
 40
7.0
 40
7.0
 40
7.0
 40
8.0
 40
8.0
 40
8.0
 40
9.0
 40
9.0
 40
9.0
 40
10.0
 40
10.0
 40
10.0
 40
11.0
 40
11.0
 40
11.0
 40
12.0
 40
12.0
 40
12.0
 40
13.0
 40
13.0
 40
13.0
 40
14.0
 40
14.0
 40
14.0
 40
15.0
 40
15.0
 40
15.0
 40
16.0
 40
16.0
 40
16.0
 40
17.0
 40
17.0
 40
17.0
 40
18.0
 40
18.0
 40
18.0
 40
19.0
 40
19.0
 40
19.0
 40
20.0
 40
20.0
 40
20.0
 40
21.0
 40
21.0
 40
21.0
 40
22.0
 40
22.0
 40
22.0
 40
23.0
 40
23.0
 40
23.0
 40
24.0
 40
24.0
 40
24.0
 40
25.0
 40
25.0
 40
25.0
 40
26.0
 40
26.0
 40
26.0
 40
27.0
 40
27.0
 40
27.0
 40
28.0
 40
28.0
 40
28.0
 40
29.0
 40
29.0
 40
29.0
 40
30.0
 40
30.0
 40
30.0
 40
30.0
 10
165.5034774093019
 20
-19.66239844268239
 30
0.0
 10
165.5034774093019
 20
-19.66239844268239
 30
0.0
 10
146.5729083664664
 20
-19.66239844268239
 30
0.0
 10
146.5729083664664
 20
-19.66239844268239
 30
0.0
 10
142.6136551942254
 20
-19.66239844268239
 30
0.0
 10
140.6346523089778
 20
-21.24597497140167
 30
0.0
 10
140.6346523089778
 20
-24.41312802885295
 30
0.0
 10
140.6346523089778
 20
-25.76531153191354
 30
0.0
 10
141.0793510348431
 20
-26.76385663725705
 30
0.0
 10
141.9924491199436
 20
-27.41001074665655
 30
0.0
 10
142.906170905906
 20
-28.05554115516861
 30
0.0
 10
144.0693730429939
 20
-28.38423151776806
 30
0.0
 10
145.4889162408563
 20
-28.38423151776806
 30
0.0
 10
145.4889162408563
 20
-28.38423151776806
 30
0.0
 10
155.5872571532345
 20
-28.38423151776806
 30
0.0
 10
155.5872571532345
 20
-28.38423151776806
 30
0.0
 10
157.012413659002
 20
-28.38423151776806
 30
0.0
 10
158.194326822415
 20
-28.42102986955797
 30
0.0
 10
159.1261359338423
 20
-28.51832720649872
 30
0.0
 10
160.0579450452697
 20
-28.60377422675447
 30
0.0
 10
161.0084651830348
 20
-28.83516725241316
 30
0.0
 10
161.9826859541463
 20
-29.18818194924461
 30
0.0
 10
162.9631437340395
 20
-29.55367066363397
 30
0.0
 10
163.8038925173059
 20
-30.077579400986
 30
0.0
 10
164.5105456118526
 20
-30.75990816128979
 30
0.0
 10
166.3623135180223
 20
-32.45263234362392
 30
0.0
 10
167.2878856206698
 20
-35.08402634704726
 30
0.0
 10
167.2878856206698
 20
-38.689641121573
 30
0.0
 10
167.2454739609857
 20
-40.73662740249711
 30
0.0
 10
166.9161598975006
 20
-42.46614993661933
 30
0.0
 10
166.3255151662306
 20
-43.87945612571457
 30
0.0
 10
165.7348704349624
 20
-45.29213861391327
 30
0.0
 10
164.8878846429161
 20
-46.40107877463015
 30
0.0
 10
163.7920422006318
 20
-47.2412038570219
 30
0.0
 10
162.7018130662418
 20
-48.08195264029018
 30
0.0
 10
161.3982782316561
 20
-48.66698406366413
 30
0.0
 10
159.8633503714009
 20
-49.04432309472759
 30
0.0
 10
158.3402728278197
 20
-49.39733779155904
 30
0.0
 10
156.5558646164518
 20
-49.59255616631344
 30
0.0
 10
154.5032650276244
 20
-49.59255616631344
 30
0.0
 10
154.5032650276244
 20
-49.59255616631344
 30
0.0
 10
134.0870404938814
 20
-49.59255616631344
 30
0.0
 10
134.0870404938814
 20
-49.59255616631344
 30
0.0
 10
134.0870404938814
 20
-49.59255616631344
 30
0.0
 10
134.0870404938814
 20
-43.0511813599951
 30
0.0
 10
134.0870404938814
 20
-43.0511813599951
 30
0.0
 10
134.0870404938814
 20
-43.0511813599951
 30
0.0
 10
153.3157385563045
 20
-43.0511813599951
 30
0.0
 10
153.3157385563045
 20
-43.0511813599951
 30
0.0
 10
155.1612694537071
 20
-43.0511813599951
 30
0.0
 10
156.6107502936957
 20
-42.77051596498677
 30
0.0
 10
157.6523307596217
 20
-42.21043257672864
 30
0.0
 10
158.693911225535
 20
-41.6621995051446
 30
0.0
 10
159.211582954109
 20
-40.63870636468346
 30
0.0
 10
159.211582954109
 20
-39.128726539544
 30
0.0
 10
159.211582954109
 20
-38.95783249902343
 30
0.0
 10
159.1934956286441
 20
-38.689641121573
 30
0.0
 10
159.1685475935392
 20
-38.27550373871964
 30
0.0
 10
159.0350756056814
 20
-36.87467156719504
 30
0.0
 10
158.5292541937943
 20
-35.93662544698782
 30
0.0
 10
157.6523307596217
 20
-35.48631341321743
 30
0.0
 10
156.7754073254382
 20
-35.04785169613024
 30
0.0
 10
155.4961968250736
 20
-34.79151063535392
 30
0.0
 10
153.8146992585407
 20
-34.73101165021581
 30
0.0
 10
153.8146992585407
 20
-34.73101165021581
 30
0.0
 10
144.7947371638675
 20
-34.73101165021581
 30
0.0
 10
144.7947371638675
 20
-34.73101165021581
 30
0.0
 10
140.8473343083097
 20
-34.73101165021581
 30
0.0
 10
137.8205139483689
 20
-33.91458720118317
 30
0.0
 10
135.7373530165296
 20
-32.30668633821915
 30
0.0
 10
133.6423417680162
 20
-30.68631145770814
 30
0.0
 10
132.6007613021011
 20
-27.95762011735496
 30
0.0
 10
132.6007613021011
 20
-24.10876200048551
 30
0.0
 10
132.655646979345
 20
-22.03183807742425
 30
0.0
 10
132.9724870252703
 20
-20.27113049941727
 30
0.0
 10
133.5874560907723
 20
-18.84597399364793
 30
0.0
 10
134.2024251562743
 20
-17.42081748789133
 30
0.0
 10
135.0550242562258
 20
-16.29379000171139
 30
0.0
 10
136.1334030739308
 20
-15.45366491932873
 30
0.0
 10
137.217395199541
 20
-14.63100346151441
 30
0.0
 10
138.5146930253577
 20
-14.0278847126865
 30
0.0
 10
140.0315335601499
 20
-13.66301969917004
 30
0.0
 10
141.5539874028473
 20
-13.29753098478068
 30
0.0
 10
143.339019315099
 20
-13.11478662759691
 30
0.0
 10
145.3791448863685
 20
-13.11478662759691
 30
0.0
 10
145.3791448863685
 20
-13.11478662759691
 30
0.0
 10
165.5034774093019
 20
-13.11478662759691
 30
0.0
 10
165.5034774093019
 20
-13.11478662759691
 30
0.0
 10
165.5034774093019
 20
-13.11478662759691
 30
0.0
 10
165.5034774093019
 20
-19.66239844268239
 30
0.0
 10
165.5034774093019
 20
-19.66239844268239
 30
0.0
  0
ENDBLK
  5
A4
330
A1
100
AcDbEntity
  8
0
100
AcDbBlockEnd
  0
ENDSEC
  0
SECTION
  2
ENTITIES
  0
INSERT
  5
42
330
1F
100
AcDbEntity
  8
Layer 1
100
AcDbBlockReference
  2
block 2
 10
0.0
 20
0.0
 30
0.0
  0
ENDSEC
  0
SECTION
  2
OBJECTS
  0
DICTIONARY
  5
C
330
0
100
AcDbDictionary
281
     1
  3
ACAD_GROUP
350
D
  3
ACAD_LAYOUT
350
1A
  3
ACAD_MATERIAL
350
3B
  3
ACAD_MLEADERSTYLE
350
AB
  3
ACAD_MLINESTYLE
350
17
  3
ACAD_PLOTSETTINGS
350
19
  3
ACAD_PLOTSTYLENAME
350
E
  3
ACAD_TABLESTYLE
350
AA
  3
ACAD_VISUALSTYLE
350
2A
  0
SUN
  5
3F
330
29
100
AcDbSun
 90
        1
290
     0
 63
     7
421
 16777215
 40
1.0
291
     1
 91
  2455826
 92
 54000000
292
     0
 70
     2
 71
   256
280
     1
  0
DICTIONARY
  5
D
102
{ACAD_REACTORS
330
C
102
}
330
C
100
AcDbDictionary
281
     1
  0
DICTIONARY
  5
1A
102
{ACAD_REACTORS
330
C
102
}
330
C
100
AcDbDictionary
281
     1
  3
Layout1
350
1E
  3
Layout2
350
26
  3
Model
350
22
  0
DICTIONARY
  5
3B
102
{ACAD_REACTORS
330
C
102
}
330
C
100
AcDbDictionary
281
     1
  3
ByBlock
350
3D
  3
ByLayer
350
3C
  3
Global
350
3E
  0
DICTIONARY
  5
AB
102
{ACAD_REACTORS
330
C
102
}
330
C
100
AcDbDictionary
281
     1
  0
DICTIONARY
  5
17
102
{ACAD_REACTORS
330
C
102
}
330
C
100
AcDbDictionary
281
     1
  3
Standard
350
18
  0
DICTIONARY
  5
19
102
{ACAD_REACTORS
330
C
102
}
330
C
100
AcDbDictionary
281
     1
  0
ACDBDICTIONARYWDFLT
  5
E
102
{ACAD_REACTORS
330
C
102
}
330
C
100
AcDbDictionary
281
     1
  3
Normal
350
F
100
AcDbDictionaryWithDefault
340
F
  0
DICTIONARY
  5
AA
102
{ACAD_REACTORS
330
C
102
}
330
C
100
AcDbDictionary
281
     1
  0
DICTIONARY
  5
2A
102
{ACAD_REACTORS
330
C
102
}
330
C
100
AcDbDictionary
281
     1
  3
2dWireframe
350
2F
  3
3D Hidden
350
31
  3
3dWireframe
350
30
  3
Basic
350
32
  3
Brighten
350
36
  3
ColorChange
350
3A
  3
Conceptual
350
34
  3
Dim
350
35
  3
Facepattern
350
39
  3
Flat
350
2B
  3
FlatWithEdges
350
2C
  3
Gouraud
350
2D
  3
GouraudWithEdges
350
2E
  3
Linepattern
350
38
  3
Realistic
350
33
  3
Thicken
350
37
  0
LAYOUT
  5
1E
102
{ACAD_REACTORS
330
1A
102
}
330
1A
100
AcDbPlotSettings
  1

  2
none_device
  4

  6

 40
0.0
 41
0.0
 42
0.0
 43
0.0
 44
0.0
 45
0.0
 46
0.0
 47
0.0
 48
0.0
 49
0.0
140
0.0
141
0.0
142
1.0
143
1.0
 70
   688
 72
     0
 73
     0
 74
     5
  7

 75
    16
 76
     0
 77
     2
 78
   300
147
1.0
148
0.0
149
0.0
100
AcDbLayout
  1
Layout1
 70
     1
 71
     1
 10
0.0
 20
0.0
 11
12.0
 21
9.0
 12
0.0
 22
0.0
 32
0.0
 14
1.000000000000000E+20
 24
1.000000000000000E+20
 34
1.000000000000000E+20
 15
-1.000000000000000E+20
 25
-1.000000000000000E+20
 35
-1.000000000000000E+20
146
0.0
 13
0.0
 23
0.0
 33
0.0
 16
1.0
 26
0.0
 36
0.0
 17
0.0
 27
1.0
 37
0.0
 76
     0
330
1B
  0
LAYOUT
  5
26
102
{ACAD_REACTORS
330
1A
102
}
330
1A
100
AcDbPlotSettings
  1

  2
none_device
  4

  6

 40
0.0
 41
0.0
 42
0.0
 43
0.0
 44
0.0
 45
0.0
 46
0.0
 47
0.0
 48
0.0
 49
0.0
140
0.0
141
0.0
142
1.0
143
1.0
 70
   688
 72
     0
 73
     0
 74
     5
  7

 75
    16
 76
     0
 77
     2
 78
   300
147
1.0
148
0.0
149
0.0
100
AcDbLayout
  1
Layout2
 70
     1
 71
     2
 10
0.0
 20
0.0
 11
0.0
 21
0.0
 12
0.0
 22
0.0
 32
0.0
 14
0.0
 24
0.0
 34
0.0
 15
0.0
 25
0.0
 35
0.0
146
0.0
 13
0.0
 23
0.0
 33
0.0
 16
1.0
 26
0.0
 36
0.0
 17
0.0
 27
1.0
 37
0.0
 76
     0
330
23
  0
LAYOUT
  5
22
102
{ACAD_REACTORS
330
1A
102
}
330
1A
100
AcDbPlotSettings
  1

  2
none_device
  4

  6

 40
0.0
 41
0.0
 42
0.0
 43
0.0
 44
0.0
 45
0.0
 46
0.0
 47
0.0
 48
0.0
 49
0.0
140
0.0
141
0.0
142
1.0
143
1.0
 70
  1712
 72
     0
 73
     0
 74
     0
  7

 75
     0
 76
     0
 77
     2
 78
   300
147
1.0
148
0.0
149
0.0
100
AcDbLayout
  1
Model
 70
     1
 71
     0
 10
0.0
 20
0.0
 11
12.0
 21
9.0
 12
0.0
 22
0.0
 32
0.0
 14
1.000000000000000E+20
 24
1.000000000000000E+20
 34
1.000000000000000E+20
 15
-1.000000000000000E+20
 25
-1.000000000000000E+20
 35
-1.000000000000000E+20
146
0.0
 13
0.0
 23
0.0
 33
0.0
 16
1.0
 26
0.0
 36
0.0
 17
0.0
 27
1.0
 37
0.0
 76
     0
330
1F
331
29
  0
MATERIAL
  5
3D
102
{ACAD_REACTORS
330
3B
102
}
330
3B
100
AcDbMaterial
  1
ByBlock
 72
     1
 94
      127
  0
MATERIAL
  5
3C
102
{ACAD_REACTORS
330
3B
102
}
330
3B
100
AcDbMaterial
  1
ByLayer
 72
     1
 94
      127
  0
MATERIAL
  5
3E
102
{ACAD_REACTORS
330
3B
102
}
330
3B
100
AcDbMaterial
  1
Global
 72
     1
 94
      127
  0
MLINESTYLE
  5
18
102
{ACAD_REACTORS
330
17
102
}
330
17
100
AcDbMlineStyle
  2
Standard
 70
     0
  3

 62
   256
 51
90.0
 52
90.0
 71
     2
 49
0.5
 62
   256
  6
BYLAYER
 49
-0.5
 62
   256
  6
BYLAYER
  0
ACDBPLACEHOLDER
  5
F
102
{ACAD_REACTORS
330
E
102
}
330
E
  0
VISUALSTYLE
  5
2F
102
{ACAD_REACTORS
330
2A
102
}
330
2A
100
AcDbVisualStyle
  2
2dWireframe
 70
     4
177
     2
291
     0
 71
     0
176
     1
 72
     2
176
     1
 73
     0
176
     1
 90
        0
176
     1
 40
-0.6
176
     1
 41
-30.0
176
     1
 62
     5
 63
     7
421
 16777215
176
     1
 74
     1
176
     1
 91
        4
176
     1
 64
     7
176
     1
 65
   257
176
     1
 75
     1
176
     1
175
     1
176
     1
 42
1.0
176
     1
 92
        0
176
     1
 66
   257
176
     1
 43
1.0
176
     1
 76
     1
176
     1
 77
     6
176
     1
 78
     2
176
     1
 67
     7
176
     1
 79
     5
176
     1
170
     0
176
     1
171
     0
176
     1
290
     0
176
     1
 93
        1
176
     1
 44
0.0
176
     1
173
     0
176
     1
  0
VISUALSTYLE
  5
31
102
{ACAD_REACTORS
330
2A
102
}
330
2A
100
AcDbVisualStyle
  2
3D Hidden
 70
     6
177
     2
291
     0
 71
     1
176
     1
 72
     2
176
     1
 73
     2
176
     1
 90
        0
176
     1
 40
-0.6
176
     1
 41
-30.0
176
     1
 62
     5
 63
     7
421
 16777215
176
     1
 74
     2
176
     1
 91
        2
176
     1
 64
     7
176
     1
 65
   257
176
     1
 75
     2
176
     1
175
     1
176
     1
 42
40.0
176
     1
 92
        0
176
     1
 66
   257
176
     1
 43
1.0
176
     1
 76
     1
176
     1
 77
     6
176
     1
 78
     2
176
     1
 67
     7
176
     1
 79
     3
176
     1
170
     0
176
     1
171
     0
176
     1
290
     0
176
     1
 93
        1
176
     1
 44
0.0
176
     1
173
     0
176
     1
  0
VISUALSTYLE
  5
30
102
{ACAD_REACTORS
330
2A
102
}
330
2A
100
AcDbVisualStyle
  2
3dWireframe
 70
     5
177
     2
291
     0
 71
     0
176
     1
 72
     2
176
     1
 73
     0
176
     1
 90
        0
176
     1
 40
-0.6
176
     1
 41
-30.0
176
     1
 62
     5
 63
     7
421
 16777215
176
     1
 74
     1
176
     1
 91
        4
176
     1
 64
     7
176
     1
 65
   257
176
     1
 75
     1
176
     1
175
     1
176
     1
 42
1.0
176
     1
 92
        0
176
     1
 66
   257
176
     1
 43
1.0
176
     1
 76
     1
176
     1
 77
     6
176
     1
 78
     2
176
     1
 67
     7
176
     1
 79
     5
176
     1
170
     0
176
     1
171
     0
176
     1
290
     0
176
     1
 93
        1
176
     1
 44
0.0
176
     1
173
     0
176
     1
  0
VISUALSTYLE
  5
32
102
{ACAD_REACTORS
330
2A
102
}
330
2A
100
AcDbVisualStyle
  2
Basic
 70
     7
177
     2
291
     1
 71
     1
176
     1
 72
     0
176
     1
 73
     1
176
     1
 90
        0
176
     1
 40
-0.6
176
     1
 41
-30.0
176
     1
 62
     5
 63
     7
421
 16777215
176
     1
 74
     0
176
     1
 91
        4
176
     1
 64
     7
176
     1
 65
   257
176
     1
 75
     1
176
     1
175
     1
176
     1
 42
1.0
176
     1
 92
        8
176
     1
 66
     7
176
     1
 43
1.0
176
     1
 76
     1
176
     1
 77
     6
176
     1
 78
     2
176
     1
 67
     7
176
     1
 79
     5
176
     1
170
     0
176
     1
171
     0
176
     1
290
     0
176
     1
 93
        1
176
     1
 44
0.0
176
     1
173
     0
176
     1
  0
VISUALSTYLE
  5
36
102
{ACAD_REACTORS
330
2A
102
}
330
2A
100
AcDbVisualStyle
  2
Brighten
 70
    12
177
     2
291
     1
 71
     2
176
     1
 72
     2
176
     1
 73
     0
176
     1
 90
        0
176
     1
 40
-0.6
176
     1
 41
-30.0
176
     1
 62
     5
 63
     7
421
 16777215
176
     1
 74
     1
176
     1
 91
        4
176
     1
 64
     7
176
     1
 65
   257
176
     1
 75
     1
176
     1
175
     1
176
     1
 42
1.0
176
     1
 92
        8
176
     1
 66
     7
176
     1
 43
1.0
176
     1
 76
     1
176
     1
 77
     6
176
     1
 78
     2
176
     1
 67
     7
176
     1
 79
     5
176
     1
170
     0
176
     1
171
     0
176
     1
290
     0
176
     1
 93
        1
176
     1
 44
50.0
176
     1
173
     0
176
     1
  0
VISUALSTYLE
  5
3A
102
{ACAD_REACTORS
330
2A
102
}
330
2A
100
AcDbVisualStyle
  2
ColorChange
 70
    16
177
     2
291
     1
 71
     2
176
     1
 72
     2
176
     1
 73
     3
176
     1
 90
        0
176
     1
 40
-0.6
176
     1
 41
-30.0
176
     1
 62
     5
 63
     8
421
  8421504
176
     1
 74
     1
176
     1
 91
        4
176
     1
 64
     7
176
     1
 65
   257
176
     1
 75
     1
176
     1
175
     1
176
     1
 42
1.0
176
     1
 92
        8
176
     1
 66
     8
424
  8421504
176
     1
 43
1.0
176
     1
 76
     1
176
     1
 77
     6
176
     1
 78
     2
176
     1
 67
     7
176
     1
 79
     5
176
     1
170
     0
176
     1
171
     0
176
     1
290
     0
176
     1
 93
        1
176
     1
 44
0.0
176
     1
173
     0
176
     1
  0
VISUALSTYLE
  5
34
102
{ACAD_REACTORS
330
2A
102
}
330
2A
100
AcDbVisualStyle
  2
Conceptual
 70
     9
177
     2
291
     0
 71
     3
176
     1
 72
     2
176
     1
 73
     0
176
     1
 90
        0
176
     1
 40
-0.6
176
     1
 41
-30.0
176
     1
 62
     5
 63
     7
421
 16777215
176
     1
 74
     2
176
     1
 91
        2
176
     1
 64
     7
176
     1
 65
   257
176
     1
 75
     1
176
     1
175
     1
176
     1
 42
40.0
176
     1
 92
        8
176
     1
 66
     7
176
     1
 43
1.0
176
     1
 76
     1
176
     1
 77
     6
176
     1
 78
     2
176
     1
 67
     7
176
     1
 79
     3
176
     1
170
     0
176
     1
171
     0
176
     1
290
     0
176
     1
 93
        1
176
     1
 44
0.0
176
     1
173
     0
176
     1
  0
VISUALSTYLE
  5
35
102
{ACAD_REACTORS
330
2A
102
}
330
2A
100
AcDbVisualStyle
  2
Dim
 70
    11
177
     2
291
     1
 71
     2
176
     1
 72
     2
176
     1
 73
     0
176
     1
 90
        0
176
     1
 40
-0.6
176
     1
 41
-30.0
176
     1
 62
     5
 63
     7
421
 16777215
176
     1
 74
     1
176
     1
 91
        4
176
     1
 64
     7
176
     1
 65
   257
176
     1
 75
     1
176
     1
175
     1
176
     1
 42
1.0
176
     1
 92
        8
176
     1
 66
     7
176
     1
 43
1.0
176
     1
 76
     1
176
     1
 77
     6
176
     1
 78
     2
176
     1
 67
     7
176
     1
 79
     5
176
     1
170
     0
176
     1
171
     0
176
     1
290
     0
176
     1
 93
        1
176
     1
 44
-50.0
176
     1
173
     0
176
     1
  0
VISUALSTYLE
  5
39
102
{ACAD_REACTORS
330
2A
102
}
330
2A
100
AcDbVisualStyle
  2
Facepattern
 70
    15
177
     2
291
     1
 71
     2
176
     1
 72
     2
176
     1
 73
     0
176
     1
 90
        0
176
     1
 40
-0.6
176
     1
 41
-30.0
176
     1
 62
     5
 63
     7
421
 16777215
176
     1
 74
     1
176
     1
 91
        4
176
     1
 64
     7
176
     1
 65
   257
176
     1
 75
     1
176
     1
175
     1
176
     1
 42
1.0
176
     1
 92
        8
176
     1
 66
     7
176
     1
 43
1.0
176
     1
 76
     1
176
     1
 77
     6
176
     1
 78
     2
176
     1
 67
     7
176
     1
 79
     5
176
     1
170
     0
176
     1
171
     0
176
     1
290
     0
176
     1
 93
        1
176
     1
 44
0.0
176
     1
173
     0
176
     1
  0
VISUALSTYLE
  5
2B
102
{ACAD_REACTORS
330
2A
102
}
330
2A
100
AcDbVisualStyle
  2
Flat
 70
     0
177
     2
291
     1
 71
     2
176
     1
 72
     1
176
     1
 73
     1
176
     1
 90
        2
176
     1
 40
-0.6
176
     1
 41
30.0
176
     1
 62
     5
 63
     7
421
 16777215
176
     1
 74
     0
176
     1
 91
        4
176
     1
 64
     7
176
     1
 65
   257
176
     1
 75
     1
176
     1
175
     1
176
     1
 42
1.0
176
     1
 92
        8
176
     1
 66
     7
176
     1
 43
1.0
176
     1
 76
     1
176
     1
 77
     6
176
     1
 78
     2
176
     1
 67
     7
176
     1
 79
     5
176
     1
170
     0
176
     1
171
     0
176
     1
290
     0
176
     1
 93
       13
176
     1
 44
0.0
176
     1
173
     0
176
     1
  0
VISUALSTYLE
  5
2C
102
{ACAD_REACTORS
330
2A
102
}
330
2A
100
AcDbVisualStyle
  2
FlatWithEdges
 70
     1
177
     2
291
     1
 71
     2
176
     1
 72
     1
176
     1
 73
     1
176
     1
 90
        2
176
     1
 40
-0.6
176
     1
 41
30.0
176
     1
 62
     5
 63
     7
421
 16777215
176
     1
 74
     1
176
     1
 91
        4
176
     1
 64
     7
176
     1
 65
   257
176
     1
 75
     1
176
     1
175
     1
176
     1
 42
1.0
176
     1
 92
        0
176
     1
 66
   257
176
     1
 43
1.0
176
     1
 76
     1
176
     1
 77
     6
176
     1
 78
     2
176
     1
 67
     7
176
     1
 79
     5
176
     1
170
     0
176
     1
171
     0
176
     1
290
     0
176
     1
 93
       13
176
     1
 44
0.0
176
     1
173
     0
176
     1
  0
VISUALSTYLE
  5
2D
102
{ACAD_REACTORS
330
2A
102
}
330
2A
100
AcDbVisualStyle
  2
Gouraud
 70
     2
177
     2
291
     1
 71
     2
176
     1
 72
     2
176
     1
 73
     1
176
     1
 90
        2
176
     1
 40
-0.6
176
     1
 41
30.0
176
     1
 62
     5
 63
     7
421
 16777215
176
     1
 74
     0
176
     1
 91
        4
176
     1
 64
     7
176
     1
 65
   257
176
     1
 75
     1
176
     1
175
     1
176
     1
 42
1.0
176
     1
 92
        0
176
     1
 66
     7
176
     1
 43
1.0
176
     1
 76
     1
176
     1
 77
     6
176
     1
 78
     2
176
     1
 67
     7
176
     1
 79
     5
176
     1
170
     0
176
     1
171
     0
176
     1
290
     0
176
     1
 93
       13
176
     1
 44
0.0
176
     1
173
     0
176
     1
  0
VISUALSTYLE
  5
2E
102
{ACAD_REACTORS
330
2A
102
}
330
2A
100
AcDbVisualStyle
  2
GouraudWithEdges
 70
     3
177
     2
291
     1
 71
     2
176
     1
 72
     2
176
     1
 73
     1
176
     1
 90
        2
176
     1
 40
-0.6
176
     1
 41
30.0
176
     1
 62
     5
 63
     7
421
 16777215
176
     1
 74
     1
176
     1
 91
        4
176
     1
 64
     7
176
     1
 65
   257
176
     1
 75
     1
176
     1
175
     1
176
     1
 42
1.0
176
     1
 92
        0
176
     1
 66
   257
176
     1
 43
1.0
176
     1
 76
     1
176
     1
 77
     6
176
     1
 78
     2
176
     1
 67
     7
176
     1
 79
     5
176
     1
170
     0
176
     1
171
     0
176
     1
290
     0
176
     1
 93
       13
176
     1
 44
0.0
176
     1
173
     0
176
     1
  0
VISUALSTYLE
  5
38
102
{ACAD_REACTORS
330
2A
102
}
330
2A
100
AcDbVisualStyle
  2
Linepattern
 70
    14
177
     2
291
     1
 71
     2
176
     1
 72
     2
176
     1
 73
     0
176
     1
 90
        0
176
     1
 40
-0.6
176
     1
 41
-30.0
176
     1
 62
     5
 63
     7
421
 16777215
176
     1
 74
     1
176
     1
 91
        4
176
     1
 64
     7
176
     1
 65
   257
176
     1
 75
     7
176
     1
175
     7
176
     1
 42
1.0
176
     1
 92
        8
176
     1
 66
     7
176
     1
 43
1.0
176
     1
 76
     1
176
     1
 77
     6
176
     1
 78
     2
176
     1
 67
     7
176
     1
 79
     5
176
     1
170
     0
176
     1
171
     0
176
     1
290
     0
176
     1
 93
        1
176
     1
 44
0.0
176
     1
173
     0
176
     1
  0
VISUALSTYLE
  5
33
102
{ACAD_REACTORS
330
2A
102
}
330
2A
100
AcDbVisualStyle
  2
Realistic
 70
     8
177
     2
291
     0
 71
     2
176
     1
 72
     2
176
     1
 73
     0
176
     1
 90
        0
176
     1
 40
-0.6
176
     1
 41
-30.0
176
     1
 62
     5
 63
     7
421
 16777215
176
     1
 74
     1
176
     1
 91
        0
176
     1
 64
     7
176
     1
 65
   257
176
     1
 75
     1
176
     1
175
     1
176
     1
 42
1.0
176
     1
 92
        8
176
     1
 66
     8
424
  7895160
176
     1
 43
1.0
176
     1
 76
     1
176
     1
 77
     6
176
     1
 78
     2
176
     1
 67
     7
176
     1
 79
     5
176
     1
170
     0
176
     1
171
     0
176
     1
290
     0
176
     1
 93
       13
176
     1
 44
0.0
176
     1
173
     0
176
     1
  0
VISUALSTYLE
  5
37
102
{ACAD_REACTORS
330
2A
102
}
330
2A
100
AcDbVisualStyle
  2
Thicken
 70
    13
177
     2
291
     1
 71
     2
176
     1
 72
     2
176
     1
 73
     0
176
     1
 90
        0
176
     1
 40
-0.6
176
     1
 41
-30.0
176
     1
 62
     5
 63
     7
421
 16777215
176
     1
 74
     1
176
     1
 91
        4
176
     1
 64
     7
176
     1
 65
   257
176
     1
 75
     1
176
     1
175
     1
176
     1
 42
1.0
176
     1
 92
       12
176
     1
 66
     7
176
     1
 43
1.0
176
     1
 76
     1
176
     1
 77
     6
176
     1
 78
     2
176
     1
 67
     7
176
     1
 79
     5
176
     1
170
     0
176
     1
171
     0
176
     1
290
     0
176
     1
 93
        1
176
     1
 44
0.0
176
     1
173
     0
176
     1
  0
ENDSEC
  0
EOF
