<?xml version="1.0" encoding="UTF-8" standalone="no"?>
<!-- Svg Vector Icons : http://www.onlinewebfonts.com/icon -->

<svg
   xmlns:dc="http://purl.org/dc/elements/1.1/"
   xmlns:cc="http://creativecommons.org/ns#"
   xmlns:rdf="http://www.w3.org/1999/02/22-rdf-syntax-ns#"
   xmlns:svg="http://www.w3.org/2000/svg"
   xmlns="http://www.w3.org/2000/svg"
   xmlns:sodipodi="http://sodipodi.sourceforge.net/DTD/sodipodi-0.dtd"
   xmlns:inkscape="http://www.inkscape.org/namespaces/inkscape"
   version="1.1"
   x="0px"
   y="0px"
   viewBox="0 0 1000 1000"
   enable-background="new 0 0 1000 1000"
   xml:space="preserve"
   id="svg18"
   sodipodi:docname="f580c4c41bfd9d7dae9336d60336578a.svg"
   inkscape:version="0.92.3 (2405546, 2018-03-11)"><defs
   id="defs22" /><sodipodi:namedview
   pagecolor="#ffffff"
   bordercolor="#666666"
   borderopacity="1"
   objecttolerance="10"
   gridtolerance="10"
   guidetolerance="10"
   inkscape:pageopacity="0"
   inkscape:pageshadow="2"
   inkscape:window-width="1317"
   inkscape:window-height="713"
   id="namedview20"
   showgrid="false"
   inkscape:zoom="0.236"
   inkscape:cx="500"
   inkscape:cy="500"
   inkscape:window-x="49"
   inkscape:window-y="27"
   inkscape:window-maximized="1"
   inkscape:current-layer="g14" />
<metadata
   id="metadata2"> Svg Vector Icons : http://www.onlinewebfonts.com/icon <rdf:RDF><cc:Work
     rdf:about=""><dc:format>image/svg+xml</dc:format><dc:type
       rdf:resource="http://purl.org/dc/dcmitype/StillImage" /></cc:Work></rdf:RDF></metadata>
<g
   id="g16"><g
     transform="translate(0.000000,511.000000) scale(0.100000,-0.100000)"
     id="g14"
     style="fill:#ffffff"><path
       d="M1416.8,4496.3C736.5,4081.4,247,3204.5,119.2,2180.2c-25.6-214.3-25.6-749.1,0-963.4C191.9,630.9,394.4,62.6,683.4-371.9c155.3-234,446.3-530.9,660.6-674.4c96.3-64.9,186.8-114,198.6-110.1c11.8,3.9,98.3,129.8,190.7,281.2l171,273.3l-119.9,66.9c-155.3,86.5-432.5,361.8-554.5,550.5C946.9,453.9,795.5,963.1,773.9,1551c-25.6,735.3,125.8,1329.1,477.8,1860c125.8,190.7,393.2,450.2,546.6,530.9c60.9,31.5,110.1,62.9,110.1,70.8c0,17.7-332.3,542.6-350,554.4C1550.5,4571,1487.6,4539.5,1416.8,4496.3z"
       id="path4"
       style="fill:#ffffff" /><path
       d="M8378.9,4486.4c-33.4-51.1-112.1-178.9-178.9-281.2c-102.2-161.2-114-188.8-86.5-206.4c318.5-200.5,473.9-348,644.9-605.6c719.6-1081.4,597.7-2848.9-251.7-3694.4c-80.6-78.6-204.5-178.9-275.3-220.2c-70.8-41.3-129.8-80.6-129.8-86.5c0-21.6,338.2-554.5,351.9-554.5c7.9,0,66.8,31.5,129.8,68.8c994.9,599.7,1529.7,2156.9,1236.7,3607.9c-167.1,831.7-597.7,1547.3-1158.1,1926.8C8430,4596.5,8445.7,4594.6,8378.9,4486.4z"
       id="path6"
       style="fill:#ffffff" /><path
       d="M2138.4,3359.8c-306.7-281.2-542.7-723.5-637-1193.4c-45.2-235.9-45.2-699.9,0-937.8c72.8-359.8,234-717.6,450.3-989c90.4-114,261.5-281.2,289-281.2c13.8,0,336.2,521,336.2,544.6c0,7.9-41.3,64.9-90.4,123.9c-119.9,145.5-251.7,422.7-306.7,639c-60.9,247.7-60.9,617.4,0,865.1c57,228.1,188.8,497.4,324.4,660.6l108.1,129.8l-171,267.4c-92.4,147.5-175,269.4-182.9,269.4C2252.4,3458.2,2197.4,3412.9,2138.4,3359.8z"
       id="path8"
       style="fill:#ffffff" /><path
       d="M7692.7,3405.1c-19.7-31.5-100.3-153.4-175-271.3l-137.6-218.2l86.5-94.4c426.7-471.9,523-1291.8,220.2-1909.1c-41.3-86.5-119.9-212.3-175-279.2c-53.1-66.8-98.3-125.8-98.3-131.7c0-15.7,296.9-489.6,328.3-523c21.6-23.6,41.3-13.8,135.7,78.7c418.8,409,656.7,1004.7,656.7,1641.7c0,473.8-129.8,930-371.6,1303.5c-76.7,118-385.4,456.1-416.8,456.1C7737.9,3458.2,7714.3,3434.6,7692.7,3405.1z"
       id="path10"
       style="fill:#ffffff" /><path
       d="M3304.3,1551v-432.5h658.7h658.7V125.6v-992.9h-363.7h-363.7v-1740v-1740h1160h1160v1740v1740h-363.7h-363.7v992.9v992.9l654.7,3.9l652.8,5.9V1551v422.7l-1744,5.9l-1745.9,3.9V1551z"
       id="path12"
       style="fill:#ffffff" /></g></g>
</svg>