  0
SECTION
  2
HEADER
  9
$ACADVER
  1
AC1014
  9
$HANDSEED
  5
FFFF
  9
$MEASUREMENT
 70
     1
  0
ENDSEC
  0
SECTION
  2
TABLES
  0
TABLE
  2
VPORT
  5
8
330
0
100
AcDbSymbolTable
 70
     4
  0
VPORT
  5
2E
330
8
100
AcDbSymbolTableRecord
100
AcDbViewportTableRecord
  2
*ACTIVE
 70
     0
 10
0.0
 20
0.0
 11
1.0
 21
1.0
 12
210.0
 22
148.5
 13
0.0
 23
0.0
 14
10.0
 24
10.0
 15
10.0
 25
10.0
 16
0.0
 26
0.0
 36
1.0
 17
0.0
 27
0.0
 37
0.0
 40
341.0
 41
1.24
 42
50.0
 43
0.0
 44
0.0
 50
0.0
 51
0.0
 71
     0
 72
   100
 73
     1
 74
     3
 75
     0
 76
     0
 77
     0
 78
     0
  0
ENDTAB
  0
TABLE
  2
LTYPE
  5
5
330
0
100
AcDbSymbolTable
 70
     1
  0
LTYPE
  5
14
330
5
100
AcDbSymbolTableRecord
100
AcDbLinetypeTableRecord
  2
BYBLOCK
 70
     0
  3

 72
    65
 73
     0
 40
0.0
  0
LTYPE
  5
15
330
5
100
AcDbSymbolTableRecord
100
AcDbLinetypeTableRecord
  2
BYLAYER
 70
     0
  3

 72
    65
 73
     0
 40
0.0
  0
LTYPE
  5
16
330
5
100
AcDbSymbolTableRecord
100
AcDbLinetypeTableRecord
  2
CONTINUOUS
 70
     0
  3
Solid line
 72
    65
 73
     0
 40
0.0
  0
ENDTAB
  0
TABLE
  2
LAYER
  5
2
100
AcDbSymbolTable
 70
2
  0
LAYER
  5
50
100
AcDbSymbolTableRecord
100
AcDbLayerTableRecord
  2
0
 70
0
  6
CONTINUOUS
  0
LAYER
  5
51
100
AcDbSymbolTableRecord
100
AcDbLayerTableRecord
  2
Raspored_senzora_-_Varijanta_2.2,_1-1@A3
 70
0
  6
CONTINUOUS
  0
ENDTAB
  0
TABLE
  2
STYLE
  5
3
330
0
100
AcDbSymbolTable
 70
     1
  0
STYLE
  5
11
330
3
100
AcDbSymbolTableRecord
100
AcDbTextStyleTableRecord
  2
STANDARD
 70
     0
 40
0.0
 41
1.0
 50
0.0
 71
     0
 42
2.5
  3
txt
  4

  0
ENDTAB
  0
TABLE
  2
VIEW
  5
6
330
0
100
AcDbSymbolTable
 70
     0
  0
ENDTAB
  0
TABLE
  2
UCS
  5
7
330
0
100
AcDbSymbolTable
 70
     0
  0
ENDTAB
  0
TABLE
  2
APPID
  5
9
330
0
100
AcDbSymbolTable
 70
     2
  0
APPID
  5
12
330
9
100
AcDbSymbolTableRecord
100
AcDbRegAppTableRecord
  2
ACAD
 70
     0
  0
ENDTAB
  0
TABLE
  2
DIMSTYLE
  5
A
330
0
100
AcDbSymbolTable
 70
     1
  0
DIMSTYLE
105
27
330
A
100
AcDbSymbolTableRecord
100
AcDbDimStyleTableRecord
  2
ISO-25
 70
     0
  3

  4

  5

  6

  7

 40
1.0
 41
2.5
 42
0.625
 43
3.75
 44
1.25
 45
0.0
 46
0.0
 47
0.0
 48
0.0
140
2.5
141
2.5
142
0.0
143
0.03937007874016
144
1.0
145
0.0
146
1.0
147
0.625
 71
     0
 72
     0
 73
     0
 74
     0
 75
     0
 76
     0
 77
     1
 78
     8
170
     0
171
     3
172
     1
173
     0
174
     0
175
     0
176
     0
177
     0
178
     0
270
     2
271
     2
272
     2
273
     2
274
     3
340
11
275
     0
280
     0
281
     0
282
     0
283
     0
284
     8
285
     0
286
     0
287
     3
288
     0
  0
ENDTAB
  0
TABLE
  2
BLOCK_RECORD
  5
1
330
0
100
AcDbSymbolTable
 70
     1
  0
BLOCK_RECORD
  5
1F
330
1
100
AcDbSymbolTableRecord
100
AcDbBlockTableRecord
  2
*MODEL_SPACE
  0
BLOCK_RECORD
  5
1B
330
1
100
AcDbSymbolTableRecord
100
AcDbBlockTableRecord
  2
*PAPER_SPACE
  0
ENDTAB
  0
ENDSEC
  0
SECTION
  2
BLOCKS
  0
BLOCK
  5
20
330
1F
100
AcDbEntity
  8
0
100
AcDbBlockBegin
  2
*MODEL_SPACE
 70
     0
 10
0.0
 20
0.0
 30
0.0
  3
*MODEL_SPACE
  1

  0
ENDBLK
  5
21
330
1F
100
AcDbEntity
  8
0
100
AcDbBlockEnd
  0
BLOCK
  5
1C
330
1B
100
AcDbEntity
 67
     1
  8
0
100
AcDbBlockBegin
  2
*PAPER_SPACE
  1

  0
ENDBLK
  5
1D
330
1B
100
AcDbEntity
 67
     1
  8
0
100
AcDbBlockEnd
  0
ENDSEC
  0
SECTION
  2
ENTITIES
  0
SPLINE
  5
100
100
AcDbEntity
  8
Raspored_senzora_-_Varijanta_2.2,_1-1@A3
 62
1
100
AcDbSpline
 70
0
 71
3
 72
13
 73
9
 74
7
 40
0.000000
 40
0.000000
 40
0.000000
 40
0.000000
 40
3.508294
 40
6.912539
 40
10.420841
 40
13.929135
 40
17.333381
 40
20.841683
 40
20.841683
 40
20.841683
 40
20.841683
 10
125.165556
 20
145.038491
 30
0.0
 10
124.981457
 20
146.221394
 30
0.0
 10
124.618721
 20
148.552118
 30
0.0
 10
121.950392
 20
151.118920
 30
0.0
 10
118.458423
 20
152.070960
 30
0.0
 10
114.965716
 20
151.121612
 30
0.0
 10
112.295432
 20
148.556846
 30
0.0
 10
111.930899
 20
146.226401
 30
0.0
 10
111.745889
 20
145.043638
 30
0.0
 11
125.165556
 21
145.038491
 31
0.0
 11
124.250773
 21
148.425422
 31
0.0
 11
121.844529
 21
150.833507
 31
0.0
 11
118.458296
 21
151.750898
 31
0.0
 11
115.071365
 21
150.836115
 31
0.0
 11
112.663279
 21
148.429872
 31
0.0
 11
111.745889
 21
145.043638
 31
0.0
  0
LWPOLYLINE
  5
101
100
AcDbEntity
  8
Raspored_senzora_-_Varijanta_2.2,_1-1@A3
 62
1
100
AcDbPolyline
 90
2
 70
0
 10
111.703556
 20
145.019898
 30
0.0
 10
106.369556
 20
139.685898
 30
0.0
  0
SPLINE
  5
102
100
AcDbEntity
  8
Raspored_senzora_-_Varijanta_2.2,_1-1@A3
 62
1
100
AcDbSpline
 70
0
 71
3
 72
10
 73
6
 74
4
 40
0.000000
 40
0.000000
 40
0.000000
 40
0.000000
 40
0.706902
 40
1.406890
 40
2.113784
 40
2.113784
 40
2.113784
 40
2.113784
 10
106.387776
 20
139.731982
 30
0.0
 10
106.243016
 20
139.544674
 30
0.0
 10
105.954913
 20
139.171890
 30
0.0
 10
105.730723
 20
138.484082
 30
0.0
 10
105.743812
 20
138.013128
 30
0.0
 10
105.750388
 20
137.776495
 30
0.0
 11
106.387776
 21
139.731982
 31
0.0
 11
105.988561
 21
139.148597
 31
0.0
 11
105.771634
 21
138.483070
 31
0.0
 11
105.750388
 21
137.776495
 31
0.0
  0
LWPOLYLINE
  5
103
100
AcDbEntity
  8
Raspored_senzora_-_Varijanta_2.2,_1-1@A3
 62
1
100
AcDbPolyline
 90
5
 70
0
 10
105.734556
 20
137.738564
 30
0.0
 10
105.734556
 20
94.600898
 30
0.0
 10
128.594556
 20
94.600898
 30
0.0
 10
131.134556
 20
97.140898
 30
0.0
 10
131.134556
 20
137.738564
 30
0.0
  0
SPLINE
  5
104
100
AcDbEntity
  8
Raspored_senzora_-_Varijanta_2.2,_1-1@A3
 62
1
100
AcDbSpline
 70
0
 71
3
 72
10
 73
6
 74
4
 40
0.000000
 40
0.000000
 40
0.000000
 40
0.000000
 40
0.705548
 40
1.405042
 40
2.110587
 40
2.110587
 40
2.110587
 40
2.110587
 10
131.167351
 20
137.746917
 30
0.0
 10
131.168574
 20
137.983041
 30
0.0
 10
131.171009
 20
138.453263
 30
0.0
 10
130.947890
 20
139.137786
 30
0.0
 10
130.668824
 20
139.516251
 30
0.0
 10
130.528689
 20
139.706298
 30
0.0
 11
131.167351
 21
137.746917
 31
0.0
 11
131.132952
 21
138.451626
 31
0.0
 11
130.916177
 21
139.116682
 31
0.0
 11
130.528689
 21
139.706298
 31
0.0
  0
LWPOLYLINE
  5
105
100
AcDbEntity
  8
Raspored_senzora_-_Varijanta_2.2,_1-1@A3
 62
1
100
AcDbPolyline
 90
2
 70
0
 10
130.499556
 20
139.685898
 30
0.0
 10
125.165556
 20
145.019898
 30
0.0
  0
SPLINE
  5
106
100
AcDbEntity
  8
Raspored_senzora_-_Varijanta_2.2,_1-1@A3
 62
1
100
AcDbSpline
 70
0
 71
3
 72
10
 73
6
 74
4
 40
0.000000
 40
0.000000
 40
0.000000
 40
0.000000
 40
0.254546
 40
0.501541
 40
0.756086
 40
0.756086
 40
0.756086
 40
0.756086
 10
161.529889
 20
148.470064
 30
0.0
 10
161.516499
 20
148.555370
 30
0.0
 10
161.490115
 20
148.723452
 30
0.0
 10
161.296443
 20
148.917124
 30
0.0
 10
161.128361
 20
148.943507
 30
0.0
 10
161.043056
 20
148.956898
 30
0.0
 11
161.529889
 21
148.470064
 31
0.0
 11
161.463422
 21
148.715779
 31
0.0
 11
161.288770
 21
148.890431
 31
0.0
 11
161.043056
 21
148.956898
 31
0.0
  0
LWPOLYLINE
  5
107
100
AcDbEntity
  8
Raspored_senzora_-_Varijanta_2.2,_1-1@A3
 62
1
100
AcDbPolyline
 90
2
 70
0
 10
161.021889
 20
148.956898
 30
0.0
 10
153.528889
 20
148.956898
 30
0.0
  0
SPLINE
  5
108
100
AcDbEntity
  8
Raspored_senzora_-_Varijanta_2.2,_1-1@A3
 62
1
100
AcDbSpline
 70
0
 71
3
 72
10
 73
6
 74
4
 40
0.000000
 40
0.000000
 40
0.000000
 40
0.000000
 40
0.254546
 40
0.501541
 40
0.756086
 40
0.756086
 40
0.756086
 40
0.756086
 10
153.550056
 20
148.956898
 30
0.0
 10
153.464750
 20
148.943507
 30
0.0
 10
153.296668
 20
148.917124
 30
0.0
 10
153.102996
 20
148.723452
 30
0.0
 10
153.076613
 20
148.555370
 30
0.0
 10
153.063222
 20
148.470064
 30
0.0
 11
153.550056
 21
148.956898
 31
0.0
 11
153.304341
 21
148.890431
 31
0.0
 11
153.129689
 21
148.715779
 31
0.0
 11
153.063222
 21
148.470064
 31
0.0
  0
LWPOLYLINE
  5
109
100
AcDbEntity
  8
Raspored_senzora_-_Varijanta_2.2,_1-1@A3
 62
1
100
AcDbPolyline
 90
2
 70
0
 10
153.020889
 20
148.448898
 30
0.0
 10
153.020889
 20
144.130898
 30
0.0
  0
SPLINE
  5
10a
100
AcDbEntity
  8
Raspored_senzora_-_Varijanta_2.2,_1-1@A3
 62
1
100
AcDbSpline
 70
0
 71
3
 72
13
 73
9
 74
7
 40
0.000000
 40
0.000000
 40
0.000000
 40
0.000000
 40
0.520159
 40
1.024888
 40
1.545047
 40
2.065207
 40
2.569935
 40
3.090095
 40
3.090095
 40
3.090095
 40
3.090095
 10
151.031222
 20
144.152064
 30
0.0
 10
151.058585
 20
143.976691
 30
0.0
 10
151.112498
 20
143.631147
 30
0.0
 10
151.508263
 20
143.250730
 30
0.0
 10
152.026056
 20
143.109778
 30
0.0
 10
152.543848
 20
143.250730
 30
0.0
 10
152.939613
 20
143.631147
 30
0.0
 10
152.993526
 20
143.976691
 30
0.0
 10
153.020889
 20
144.152064
 30
0.0
 11
151.031222
 21
144.152064
 31
0.0
 11
151.167045
 21
143.649951
 31
0.0
 11
151.523942
 21
143.293054
 31
0.0
 11
152.026056
 21
143.157231
 31
0.0
 11
152.528169
 21
143.293054
 31
0.0
 11
152.885066
 21
143.649951
 31
0.0
 11
153.020889
 21
144.152064
 31
0.0
  0
LWPOLYLINE
  5
10b
100
AcDbEntity
  8
Raspored_senzora_-_Varijanta_2.2,_1-1@A3
 62
1
100
AcDbPolyline
 90
2
 70
0
 10
151.031222
 20
144.130898
 30
0.0
 10
151.031222
 20
148.152564
 30
0.0
  0
SPLINE
  5
10c
100
AcDbEntity
  8
Raspored_senzora_-_Varijanta_2.2,_1-1@A3
 62
1
100
AcDbSpline
 70
0
 71
3
 72
10
 73
6
 74
4
 40
0.000000
 40
0.000000
 40
0.000000
 40
0.000000
 40
1.583401
 40
3.128553
 40
4.711956
 40
4.711956
 40
4.711956
 40
4.711956
 10
151.040121
 20
148.160832
 30
0.0
 10
150.586654
 20
148.444572
 30
0.0
 10
149.690676
 20
149.005198
 30
0.0
 10
148.011437
 20
149.005198
 30
0.0
 10
147.115458
 20
148.444572
 30
0.0
 10
146.661990
 20
148.160832
 30
0.0
 11
151.040121
 21
148.160832
 31
0.0
 11
149.623633
 21
148.868448
 31
0.0
 11
148.078481
 21
148.868448
 31
0.0
 11
146.661990
 21
148.160832
 31
0.0
  0
LWPOLYLINE
  5
10d
100
AcDbEntity
  8
Raspored_senzora_-_Varijanta_2.2,_1-1@A3
 62
1
100
AcDbPolyline
 90
2
 70
0
 10
146.628556
 20
148.152564
 30
0.0
 10
146.628556
 20
144.130898
 30
0.0
  0
SPLINE
  5
10e
100
AcDbEntity
  8
Raspored_senzora_-_Varijanta_2.2,_1-1@A3
 62
1
100
AcDbSpline
 70
0
 71
3
 72
13
 73
9
 74
7
 40
0.000000
 40
0.000000
 40
0.000000
 40
0.000000
 40
0.520159
 40
1.024888
 40
1.545047
 40
2.065207
 40
2.569935
 40
3.090095
 40
3.090095
 40
3.090095
 40
3.090095
 10
144.638889
 20
144.152064
 30
0.0
 10
144.666251
 20
143.976691
 30
0.0
 10
144.720165
 20
143.631147
 30
0.0
 10
145.115930
 20
143.250730
 30
0.0
 10
145.633722
 20
143.109778
 30
0.0
 10
146.151515
 20
143.250730
 30
0.0
 10
146.547280
 20
143.631147
 30
0.0
 10
146.601193
 20
143.976691
 30
0.0
 10
146.628556
 20
144.152064
 30
0.0
 11
144.638889
 21
144.152064
 31
0.0
 11
144.774712
 21
143.649951
 31
0.0
 11
145.131609
 21
143.293054
 31
0.0
 11
145.633722
 21
143.157231
 31
0.0
 11
146.135836
 21
143.293054
 31
0.0
 11
146.492733
 21
143.649951
 31
0.0
 11
146.628556
 21
144.152064
 31
0.0
  0
LWPOLYLINE
  5
10f
100
AcDbEntity
  8
Raspored_senzora_-_Varijanta_2.2,_1-1@A3
 62
1
100
AcDbPolyline
 90
2
 70
0
 10
144.638889
 20
144.130898
 30
0.0
 10
144.638889
 20
148.448898
 30
0.0
  0
SPLINE
  5
110
100
AcDbEntity
  8
Raspored_senzora_-_Varijanta_2.2,_1-1@A3
 62
1
100
AcDbSpline
 70
0
 71
3
 72
10
 73
6
 74
4
 40
0.000000
 40
0.000000
 40
0.000000
 40
0.000000
 40
0.254546
 40
0.501541
 40
0.756086
 40
0.756086
 40
0.756086
 40
0.756086
 10
144.638889
 20
148.470064
 30
0.0
 10
144.625499
 20
148.555370
 30
0.0
 10
144.599115
 20
148.723452
 30
0.0
 10
144.405443
 20
148.917124
 30
0.0
 10
144.237361
 20
148.943507
 30
0.0
 10
144.152056
 20
148.956898
 30
0.0
 11
144.638889
 21
148.470064
 31
0.0
 11
144.572422
 21
148.715779
 31
0.0
 11
144.397770
 21
148.890431
 31
0.0
 11
144.152056
 21
148.956898
 31
0.0
  0
LWPOLYLINE
  5
111
100
AcDbEntity
  8
Raspored_senzora_-_Varijanta_2.2,_1-1@A3
 62
1
100
AcDbPolyline
 90
2
 70
0
 10
144.130889
 20
148.956898
 30
0.0
 10
136.637889
 20
148.956898
 30
0.0
  0
LWPOLYLINE
  5
112
100
AcDbEntity
  8
Raspored_senzora_-_Varijanta_2.2,_1-1@A3
 62
1
100
AcDbPolyline
 90
5
 70
0
 10
136.129889
 20
148.448898
 30
0.0
 10
136.129889
 20
120.339564
 30
0.0
 10
159.032222
 20
120.339564
 30
0.0
 10
161.529889
 20
122.837231
 30
0.0
 10
161.529889
 20
148.448898
 30
0.0
  0
SPLINE
  5
113
100
AcDbEntity
  8
Raspored_senzora_-_Varijanta_2.2,_1-1@A3
 62
1
100
AcDbSpline
 70
0
 71
3
 72
10
 73
6
 74
4
 40
0.000000
 40
0.000000
 40
0.000000
 40
0.000000
 40
0.254546
 40
0.501541
 40
0.756086
 40
0.756086
 40
0.756086
 40
0.756086
 10
136.659056
 20
148.956898
 30
0.0
 10
136.573750
 20
148.943507
 30
0.0
 10
136.405668
 20
148.917124
 30
0.0
 10
136.211996
 20
148.723452
 30
0.0
 10
136.185613
 20
148.555370
 30
0.0
 10
136.172222
 20
148.470064
 30
0.0
 11
136.659056
 21
148.956898
 31
0.0
 11
136.413341
 21
148.890431
 31
0.0
 11
136.238689
 21
148.715779
 31
0.0
 11
136.172222
 21
148.470064
 31
0.0
  0
SPLINE
  5
114
100
AcDbEntity
  8
Raspored_senzora_-_Varijanta_2.2,_1-1@A3
 62
1
100
AcDbSpline
 70
0
 71
3
 72
10
 73
6
 74
4
 40
0.000000
 40
0.000000
 40
0.000000
 40
0.000000
 40
2.326863
 40
4.649732
 40
6.976596
 40
6.976596
 40
6.976596
 40
6.976596
 10
220.309722
 20
165.805564
 30
0.0
 10
219.534005
 20
165.778209
 30
0.0
 10
217.983902
 20
165.723546
 30
0.0
 10
215.683922
 20
165.313664
 30
0.0
 10
214.210364
 20
164.829478
 30
0.0
 10
213.472952
 20
164.587177
 30
0.0
 11
220.309722
 21
165.805564
 31
0.0
 11
217.986884
 21
165.668777
 31
0.0
 11
215.700044
 21
165.261237
 31
0.0
 11
213.472952
 21
164.587177
 31
0.0
  0
SPLINE
  5
115
100
AcDbEntity
  8
Raspored_senzora_-_Varijanta_2.2,_1-1@A3
 62
1
100
AcDbSpline
 70
0
 71
3
 72
10
 73
6
 74
4
 40
0.000000
 40
0.000000
 40
0.000000
 40
0.000000
 40
2.523126
 40
5.021975
 40
7.545111
 40
7.545111
 40
7.545111
 40
7.545111
 10
213.494157
 20
164.590784
 30
0.0
 10
212.727518
 20
164.235706
 30
0.0
 10
211.201615
 20
163.528968
 30
0.0
 10
209.355483
 20
161.725005
 30
0.0
 10
208.613677
 20
160.215835
 30
0.0
 10
208.240980
 20
159.457601
 30
0.0
 11
213.494157
 21
164.590784
 31
0.0
 11
211.269241
 21
163.400863
 31
0.0
 11
209.481993
 21
161.654440
 31
0.0
 11
208.240980
 21
159.457601
 31
0.0
  0
LWPOLYLINE
  5
116
100
AcDbEntity
  8
Raspored_senzora_-_Varijanta_2.2,_1-1@A3
 62
1
100
AcDbPolyline
 90
5
 70
0
 10
196.920556
 20
122.921898
 30
0.0
 10
219.780556
 20
122.921898
 30
0.0
 10
222.320556
 20
125.461898
 30
0.0
 10
222.320556
 20
165.763231
 30
0.0
 10
220.288556
 20
165.805564
 30
0.0
  0
SPLINE
  5
117
100
AcDbEntity
  8
Raspored_senzora_-_Varijanta_2.2,_1-1@A3
 62
1
100
AcDbSpline
 70
0
 71
3
 72
10
 73
6
 74
4
 40
0.000000
 40
0.000000
 40
0.000000
 40
0.000000
 40
2.922935
 40
5.802251
 40
8.725176
 40
8.725176
 40
8.725176
 40
8.725176
 10
208.203879
 20
159.455336
 30
0.0
 10
207.655137
 20
160.269245
 30
0.0
 10
206.565842
 20
161.884919
 30
0.0
 10
203.981712
 20
163.464767
 30
0.0
 10
202.047117
 20
163.697788
 30
0.0
 10
201.072550
 20
163.815174
 30
0.0
 11
208.203879
 21
159.455336
 31
0.0
 11
206.397991
 21
161.753664
 31
0.0
 11
203.941400
 21
163.255537
 31
0.0
 11
201.072550
 21
163.815174
 31
0.0
  0
SPLINE
  5
118
100
AcDbEntity
  8
Raspored_senzora_-_Varijanta_2.2,_1-1@A3
 62
1
100
AcDbSpline
 70
0
 71
3
 72
10
 73
6
 74
4
 40
0.000000
 40
0.000000
 40
0.000000
 40
0.000000
 40
1.404346
 40
2.806983
 40
4.211328
 40
4.211328
 40
4.211328
 40
4.211328
 10
201.262512
 20
161.910115
 30
0.0
 10
201.249191
 20
161.441942
 30
0.0
 10
201.222565
 20
160.506168
 30
0.0
 10
201.349452
 20
159.103555
 30
0.0
 10
201.543579
 20
158.187751
 30
0.0
 10
201.640701
 20
157.729571
 30
0.0
 11
201.262512
 21
161.910115
 31
0.0
 11
201.250382
 21
160.505821
 31
0.0
 11
201.376755
 21
159.108888
 31
0.0
 11
201.640701
 21
157.729571
 31
0.0
  0
LWPOLYLINE
  5
119
100
AcDbEntity
  8
Raspored_senzora_-_Varijanta_2.2,_1-1@A3
 62
1
100
AcDbPolyline
 90
2
 70
0
 10
201.069222
 20
163.773564
 30
0.0
 10
201.238556
 20
161.910898
 30
0.0
  0
SPLINE
  5
11a
100
AcDbEntity
  8
Raspored_senzora_-_Varijanta_2.2,_1-1@A3
 62
1
100
AcDbSpline
 70
0
 71
3
 72
10
 73
6
 74
4
 40
0.000000
 40
0.000000
 40
0.000000
 40
0.000000
 40
1.628493
 40
3.248143
 40
4.876644
 40
4.876644
 40
4.876644
 40
4.876644
 10
201.662879
 20
157.750644
 30
0.0
 10
201.119540
 20
157.780612
 30
0.0
 10
200.035812
 20
157.840383
 30
0.0
 10
198.418625
 20
157.515964
 30
0.0
 10
197.441800
 20
157.042829
 30
0.0
 10
196.952056
 20
156.805616
 30
0.0
 11
201.662879
 21
157.750644
 31
0.0
 11
200.034516
 21
157.771206
 31
0.0
 11
198.446505
 21
157.452640
 31
0.0
 11
196.952056
 21
156.805616
 31
0.0
  0
LWPOLYLINE
  5
11b
100
AcDbEntity
  8
Raspored_senzora_-_Varijanta_2.2,_1-1@A3
 62
1
100
AcDbPolyline
 90
2
 70
0
 10
196.920556
 20
156.746231
 30
0.0
 10
196.920556
 20
122.921898
 30
0.0
  0
SPLINE
  5
11c
100
AcDbEntity
  8
Raspored_senzora_-_Varijanta_2.2,_1-1@A3
 62
1
100
AcDbSpline
 70
0
 71
3
 72
16
 73
12
 74
10
 40
0.000000
 40
0.000000
 40
0.000000
 40
0.000000
 40
3.100270
 40
6.126386
 40
9.226649
 40
12.326918
 40
15.353032
 40
18.453299
 40
21.553561
 40
24.579678
 40
27.679948
 40
27.679948
 40
27.679948
 40
27.679948
 10
185.101576
 20
142.399066
 30
0.0
 10
185.486337
 20
143.378595
 30
0.0
 10
186.246657
 20
145.314222
 30
0.0
 10
185.594416
 20
148.483826
 30
0.0
 10
183.698908
 20
151.023242
 30
0.0
 10
180.836482
 20
152.443723
 30
0.0
 10
177.656294
 20
152.443724
 30
0.0
 10
174.793869
 20
151.023241
 30
0.0
 10
172.898361
 20
148.483826
 30
0.0
 10
172.246121
 20
145.314222
 30
0.0
 10
173.006441
 20
143.378595
 30
0.0
 10
173.391202
 20
142.399066
 30
0.0
 11
185.101576
 21
142.399066
 31
0.0
 11
185.950244
 21
145.380918
 31
0.0
 11
185.398245
 21
148.356263
 31
0.0
 11
183.536462
 21
150.835253
 31
0.0
 11
180.759445
 21
152.213601
 31
0.0
 11
177.733330
 21
152.213601
 31
0.0
 11
174.956316
 21
150.835253
 31
0.0
 11
173.094533
 21
148.356263
 31
0.0
 11
172.542534
 21
145.380918
 31
0.0
 11
173.391202
 21
142.399066
 31
0.0
  0
LWPOLYLINE
  5
11d
100
AcDbEntity
  8
Raspored_senzora_-_Varijanta_2.2,_1-1@A3
 62
1
100
AcDbPolyline
 90
2
 70
0
 10
173.340889
 20
142.352898
 30
0.0
 10
167.160222
 20
140.871231
 30
0.0
  0
SPLINE
  5
11e
100
AcDbEntity
  8
Raspored_senzora_-_Varijanta_2.2,_1-1@A3
 62
1
100
AcDbSpline
 70
0
 71
3
 72
10
 73
6
 74
4
 40
0.000000
 40
0.000000
 40
0.000000
 40
0.000000
 40
0.459569
 40
0.912715
 40
1.372286
 40
1.372286
 40
1.372286
 40
1.372286
 10
167.199342
 20
140.883334
 30
0.0
 10
167.077207
 20
140.789115
 30
0.0
 10
166.834644
 20
140.601992
 30
0.0
 10
166.607046
 20
140.184930
 30
0.0
 10
166.580919
 20
139.879693
 30
0.0
 10
166.567763
 20
139.726000
 30
0.0
 11
167.199342
 21
140.883334
 31
0.0
 11
166.856055
 21
140.577790
 31
0.0
 11
166.638985
 21
140.180019
 31
0.0
 11
166.567763
 21
139.726000
 31
0.0
  0
LWPOLYLINE
  5
11f
100
AcDbEntity
  8
Raspored_senzora_-_Varijanta_2.2,_1-1@A3
 62
1
100
AcDbPolyline
 90
5
 70
0
 10
166.525222
 20
139.685898
 30
0.0
 10
166.525222
 20
95.235898
 30
0.0
 10
189.385222
 20
95.235898
 30
0.0
 10
191.925222
 20
97.775898
 30
0.0
 10
191.925222
 20
139.685898
 30
0.0
  0
LWPOLYLINE
  5
120
100
AcDbEntity
  8
Raspored_senzora_-_Varijanta_2.2,_1-1@A3
 62
1
100
AcDbPolyline
 90
2
 70
0
 10
191.290222
 20
140.871231
 30
0.0
 10
185.109556
 20
142.352898
 30
0.0
  0
SPLINE
  5
121
100
AcDbEntity
  8
Raspored_senzora_-_Varijanta_2.2,_1-1@A3
 62
1
100
AcDbSpline
 70
0
 71
3
 72
10
 73
6
 74
4
 40
0.000000
 40
0.000000
 40
0.000000
 40
0.000000
 40
0.462549
 40
0.918552
 40
1.381103
 40
1.381103
 40
1.381103
 40
1.381103
 10
191.924892
 20
139.719612
 30
0.0
 10
191.912287
 20
139.874369
 30
0.0
 10
191.887256
 20
140.181693
 30
0.0
 10
191.658694
 20
140.601964
 30
0.0
 10
191.414315
 20
140.789992
 30
0.0
 10
191.291255
 20
140.884676
 30
0.0
 11
191.924892
 21
139.719612
 31
0.0
 11
191.854878
 21
140.176831
 31
0.0
 11
191.637014
 21
140.577424
 31
0.0
 11
191.291255
 21
140.884676
 31
0.0
  0
LWPOLYLINE
  5
122
100
AcDbEntity
  8
Raspored_senzora_-_Varijanta_2.2,_1-1@A3
 62
1
100
AcDbPolyline
 90
2
 70
0
 10
247.297222
 20
165.678564
 30
0.0
 10
238.999889
 20
165.678564
 30
0.0
  0
SPLINE
  5
123
100
AcDbEntity
  8
Raspored_senzora_-_Varijanta_2.2,_1-1@A3
 62
1
100
AcDbSpline
 70
0
 71
3
 72
13
 73
9
 74
7
 40
0.000000
 40
0.000000
 40
0.000000
 40
0.000000
 40
0.896439
 40
1.766293
 40
2.662738
 40
3.559183
 40
4.429037
 40
5.325476
 40
5.325476
 40
5.325476
 40
5.325476
 10
239.042222
 20
165.699731
 30
0.0
 10
238.995065
 20
166.001968
 30
0.0
 10
238.902149
 20
166.597479
 30
0.0
 10
238.220088
 20
167.253091
 30
0.0
 10
237.327722
 20
167.496014
 30
0.0
 10
236.435356
 20
167.253091
 30
0.0
 10
235.753296
 20
166.597479
 30
0.0
 10
235.660380
 20
166.001968
 30
0.0
 10
235.613222
 20
165.699731
 30
0.0
 11
239.042222
 21
165.699731
 31
0.0
 11
238.808144
 21
166.565070
 31
0.0
 11
238.193066
 21
167.180150
 31
0.0
 11
237.327722
 21
167.414231
 31
0.0
 11
236.462378
 21
167.180150
 31
0.0
 11
235.847300
 21
166.565070
 31
0.0
 11
235.613222
 21
165.699731
 31
0.0
  0
LWPOLYLINE
  5
124
100
AcDbEntity
  8
Raspored_senzora_-_Varijanta_2.2,_1-1@A3
 62
1
100
AcDbPolyline
 90
3
 70
0
 10
235.613222
 20
165.678564
 30
0.0
 10
227.315889
 20
165.678564
 30
0.0
 10
227.315889
 20
157.846898
 30
0.0
  0
SPLINE
  5
125
100
AcDbEntity
  8
Raspored_senzora_-_Varijanta_2.2,_1-1@A3
 62
1
100
AcDbSpline
 70
0
 71
3
 72
13
 73
9
 74
7
 40
0.000000
 40
0.000000
 40
0.000000
 40
0.000000
 40
1.316993
 40
2.594928
 40
3.911921
 40
5.228914
 40
6.506849
 40
7.823842
 40
7.823842
 40
7.823842
 40
7.823842
 10
227.337056
 20
152.851564
 30
0.0
 10
227.781083
 20
152.920846
 30
0.0
 10
228.655971
 20
153.057355
 30
0.0
 10
229.619149
 20
154.059396
 30
0.0
 10
229.976040
 20
155.370398
 30
0.0
 10
229.619149
 20
156.681399
 30
0.0
 10
228.655971
 20
157.683441
 30
0.0
 10
227.781083
 20
157.819949
 30
0.0
 10
227.337056
 20
157.889231
 30
0.0
 11
227.337056
 21
152.851564
 31
0.0
 11
228.608356
 21
153.195460
 31
0.0
 11
229.511993
 21
154.099097
 31
0.0
 11
229.855889
 21
155.370398
 31
0.0
 11
229.511993
 21
156.641698
 31
0.0
 11
228.608356
 21
157.545335
 31
0.0
 11
227.337056
 21
157.889231
 31
0.0
  0
LWPOLYLINE
  5
126
100
AcDbEntity
  8
Raspored_senzora_-_Varijanta_2.2,_1-1@A3
 62
1
100
AcDbPolyline
 90
2
 70
0
 10
227.315889
 20
152.851564
 30
0.0
 10
227.315889
 20
137.357564
 30
0.0
  0
SPLINE
  5
127
100
AcDbEntity
  8
Raspored_senzora_-_Varijanta_2.2,_1-1@A3
 62
1
100
AcDbSpline
 70
0
 71
3
 72
13
 73
9
 74
7
 40
0.000000
 40
0.000000
 40
0.000000
 40
0.000000
 40
0.896445
 40
1.766299
 40
2.662738
 40
3.559177
 40
4.429031
 40
5.325476
 40
5.325476
 40
5.325476
 40
5.325476
 10
227.337056
 20
137.399898
 30
0.0
 10
227.034816
 20
137.352740
 30
0.0
 10
226.439303
 20
137.259823
 30
0.0
 10
225.783695
 20
136.577759
 30
0.0
 10
225.540773
 20
135.685398
 30
0.0
 10
225.783695
 20
134.793036
 30
0.0
 10
226.439303
 20
134.110972
 30
0.0
 10
227.034816
 20
134.018055
 30
0.0
 10
227.337056
 20
133.970898
 30
0.0
 11
227.337056
 21
137.399898
 31
0.0
 11
226.471711
 21
137.165817
 31
0.0
 11
225.856633
 21
136.550736
 31
0.0
 11
225.622556
 21
135.685398
 31
0.0
 11
225.856633
 21
134.820059
 31
0.0
 11
226.471711
 21
134.204978
 31
0.0
 11
227.337056
 21
133.970898
 31
0.0
  0
LWPOLYLINE
  5
128
100
AcDbEntity
  8
Raspored_senzora_-_Varijanta_2.2,_1-1@A3
 62
1
100
AcDbPolyline
 90
4
 70
0
 10
227.315889
 20
133.970898
 30
0.0
 10
227.315889
 20
125.673564
 30
0.0
 10
247.297222
 20
125.673564
 30
0.0
 10
247.297222
 20
133.970898
 30
0.0
  0
SPLINE
  5
129
100
AcDbEntity
  8
Raspored_senzora_-_Varijanta_2.2,_1-1@A3
 62
1
100
AcDbSpline
 70
0
 71
3
 72
13
 73
9
 74
7
 40
0.000000
 40
0.000000
 40
0.000000
 40
0.000000
 40
0.896445
 40
1.766299
 40
2.662738
 40
3.559177
 40
4.429031
 40
5.325476
 40
5.325476
 40
5.325476
 40
5.325476
 10
247.318389
 20
133.970898
 30
0.0
 10
247.620628
 20
134.018055
 30
0.0
 10
248.216141
 20
134.110972
 30
0.0
 10
248.871750
 20
134.793036
 30
0.0
 10
249.114671
 20
135.685398
 30
0.0
 10
248.871750
 20
136.577759
 30
0.0
 10
248.216141
 20
137.259823
 30
0.0
 10
247.620628
 20
137.352740
 30
0.0
 10
247.318389
 20
137.399898
 30
0.0
 11
247.318389
 21
133.970898
 31
0.0
 11
248.183733
 21
134.204978
 31
0.0
 11
248.798811
 21
134.820059
 31
0.0
 11
249.032889
 21
135.685398
 31
0.0
 11
248.798811
 21
136.550736
 31
0.0
 11
248.183733
 21
137.165817
 31
0.0
 11
247.318389
 21
137.399898
 31
0.0
  0
LWPOLYLINE
  5
12a
100
AcDbEntity
  8
Raspored_senzora_-_Varijanta_2.2,_1-1@A3
 62
1
100
AcDbPolyline
 90
2
 70
0
 10
247.297222
 20
137.357564
 30
0.0
 10
247.297222
 20
152.851564
 30
0.0
  0
SPLINE
  5
12b
100
AcDbEntity
  8
Raspored_senzora_-_Varijanta_2.2,_1-1@A3
 62
1
100
AcDbSpline
 70
0
 71
3
 72
13
 73
9
 74
7
 40
0.000000
 40
0.000000
 40
0.000000
 40
0.000000
 40
1.316993
 40
2.594928
 40
3.911921
 40
5.228914
 40
6.506849
 40
7.823842
 40
7.823842
 40
7.823842
 40
7.823842
 10
247.318389
 20
157.889231
 30
0.0
 10
246.874361
 20
157.819949
 30
0.0
 10
245.999474
 20
157.683441
 30
0.0
 10
245.036295
 20
156.681399
 30
0.0
 10
244.679404
 20
155.370398
 30
0.0
 10
245.036295
 20
154.059396
 30
0.0
 10
245.999474
 20
153.057355
 30
0.0
 10
246.874361
 20
152.920846
 30
0.0
 10
247.318389
 20
152.851564
 30
0.0
 11
247.318389
 21
157.889231
 31
0.0
 11
246.047088
 21
157.545335
 31
0.0
 11
245.143451
 21
156.641698
 31
0.0
 11
244.799556
 21
155.370398
 31
0.0
 11
245.143451
 21
154.099097
 31
0.0
 11
246.047088
 21
153.195460
 31
0.0
 11
247.318389
 21
152.851564
 31
0.0
  0
SPLINE
  5
12c
100
AcDbEntity
  8
Raspored_senzora_-_Varijanta_2.2,_1-1@A3
 62
1
100
AcDbSpline
 70
0
 71
3
 72
19
 73
15
 74
13
 40
0.000000
 40
0.000000
 40
0.000000
 40
0.000000
 40
0.630831
 40
1.242949
 40
1.873780
 40
2.504611
 40
3.116729
 40
3.747560
 40
4.378391
 40
4.990509
 40
5.621340
 40
6.252171
 40
6.864289
 40
7.495120
 40
7.495120
 40
7.495120
 40
7.495120
 10
238.534222
 20
165.699731
 30
0.0
 10
238.501062
 20
165.912418
 30
0.0
 10
238.435726
 20
166.331482
 30
0.0
 10
237.955397
 20
166.792838
 30
0.0
 10
237.328830
 20
166.963781
 30
0.0
 10
236.695683
 20
166.792838
 30
0.0
 10
236.234699
 20
166.331482
 30
0.0
 10
236.063629
 20
165.699731
 30
0.0
 10
236.234699
 20
165.067980
 30
0.0
 10
236.695683
 20
164.606624
 30
0.0
 10
237.328830
 20
164.435681
 30
0.0
 10
237.955397
 20
164.606624
 30
0.0
 10
238.435726
 20
165.067980
 30
0.0
 10
238.501062
 20
165.487044
 30
0.0
 10
238.534222
 20
165.699731
 30
0.0
 11
238.534222
 21
165.699731
 31
0.0
 11
238.369500
 21
166.308676
 31
0.0
 11
237.936667
 21
166.741509
 31
0.0
 11
237.327722
 21
166.906231
 31
0.0
 11
236.718777
 21
166.741509
 31
0.0
 11
236.285944
 21
166.308676
 31
0.0
 11
236.121222
 21
165.699731
 31
0.0
 11
236.285944
 21
165.090786
 31
0.0
 11
236.718777
 21
164.657953
 31
0.0
 11
237.327722
 21
164.493231
 31
0.0
 11
237.936667
 21
164.657953
 31
0.0
 11
238.369500
 21
165.090786
 31
0.0
 11
238.534222
 21
165.699731
 31
0.0
  0
SPLINE
  5
12d
100
AcDbEntity
  8
Raspored_senzora_-_Varijanta_2.2,_1-1@A3
 62
1
100
AcDbSpline
 70
0
 71
3
 72
19
 73
15
 74
13
 40
0.000000
 40
0.000000
 40
0.000000
 40
0.000000
 40
0.630831
 40
1.242949
 40
1.873780
 40
2.504611
 40
3.116729
 40
3.747560
 40
4.378391
 40
4.990509
 40
5.621340
 40
6.252171
 40
6.864289
 40
7.495120
 40
7.495120
 40
7.495120
 40
7.495120
 10
248.524889
 20
135.685398
 30
0.0
 10
248.491729
 20
135.898084
 30
0.0
 10
248.426393
 20
136.317148
 30
0.0
 10
247.946064
 20
136.778504
 30
0.0
 10
247.319496
 20
136.949448
 30
0.0
 10
246.686350
 20
136.778504
 30
0.0
 10
246.225366
 20
136.317148
 30
0.0
 10
246.054296
 20
135.685398
 30
0.0
 10
246.225366
 20
135.053647
 30
0.0
 10
246.686350
 20
134.592291
 30
0.0
 10
247.319496
 20
134.421348
 30
0.0
 10
247.946064
 20
134.592291
 30
0.0
 10
248.426393
 20
135.053647
 30
0.0
 10
248.491729
 20
135.472711
 30
0.0
 10
248.524889
 20
135.685398
 30
0.0
 11
248.524889
 21
135.685398
 31
0.0
 11
248.360167
 21
136.294343
 31
0.0
 11
247.927334
 21
136.727176
 31
0.0
 11
247.318389
 21
136.891898
 31
0.0
 11
246.709444
 21
136.727176
 31
0.0
 11
246.276611
 21
136.294343
 31
0.0
 11
246.111889
 21
135.685398
 31
0.0
 11
246.276611
 21
135.076452
 31
0.0
 11
246.709444
 21
134.643620
 31
0.0
 11
247.318389
 21
134.478898
 31
0.0
 11
247.927334
 21
134.643620
 31
0.0
 11
248.360167
 21
135.076452
 31
0.0
 11
248.524889
 21
135.685398
 31
0.0
  0
LWPOLYLINE
  5
12e
100
AcDbEntity
  8
Raspored_senzora_-_Varijanta_2.2,_1-1@A3
 62
1
100
AcDbPolyline
 90
2
 70
0
 10
247.297222
 20
157.846898
 30
0.0
 10
247.297222
 20
165.678564
 30
0.0
  0
LWPOLYLINE
  5
12f
100
AcDbEntity
  8
Raspored_senzora_-_Varijanta_2.2,_1-1@A3
 62
1
100
AcDbPolyline
 90
5
 70
1
 10
224.606556
 20
120.678231
 30
0.0
 10
224.606556
 20
92.060898
 30
0.0
 10
247.466556
 20
92.060898
 30
0.0
 10
250.006556
 20
94.600898
 30
0.0
 10
250.006556
 20
120.678231
 30
0.0
  0
SPLINE
  5
130
100
AcDbEntity
  8
Raspored_senzora_-_Varijanta_2.2,_1-1@A3
 62
1
100
AcDbSpline
 70
0
 71
3
 72
19
 73
15
 74
13
 40
0.000000
 40
0.000000
 40
0.000000
 40
0.000000
 40
0.630831
 40
1.242949
 40
1.873780
 40
2.504611
 40
3.116729
 40
3.747560
 40
4.378391
 40
4.990509
 40
5.621340
 40
6.252171
 40
6.864289
 40
7.495120
 40
7.495120
 40
7.495120
 40
7.495120
 10
228.543556
 20
135.685398
 30
0.0
 10
228.510396
 20
135.898084
 30
0.0
 10
228.445059
 20
136.317148
 30
0.0
 10
227.964731
 20
136.778504
 30
0.0
 10
227.338163
 20
136.949448
 30
0.0
 10
226.705017
 20
136.778504
 30
0.0
 10
226.244033
 20
136.317148
 30
0.0
 10
226.072963
 20
135.685398
 30
0.0
 10
226.244033
 20
135.053647
 30
0.0
 10
226.705017
 20
134.592291
 30
0.0
 10
227.338163
 20
134.421348
 30
0.0
 10
227.964731
 20
134.592291
 30
0.0
 10
228.445059
 20
135.053647
 30
0.0
 10
228.510396
 20
135.472711
 30
0.0
 10
228.543556
 20
135.685398
 30
0.0
 11
228.543556
 21
135.685398
 31
0.0
 11
228.378834
 21
136.294343
 31
0.0
 11
227.946001
 21
136.727176
 31
0.0
 11
227.337056
 21
136.891898
 31
0.0
 11
226.728110
 21
136.727176
 31
0.0
 11
226.295277
 21
136.294343
 31
0.0
 11
226.130556
 21
135.685398
 31
0.0
 11
226.295277
 21
135.076452
 31
0.0
 11
226.728110
 21
134.643620
 31
0.0
 11
227.337056
 21
134.478898
 31
0.0
 11
227.946001
 21
134.643620
 31
0.0
 11
228.378834
 21
135.076452
 31
0.0
 11
228.543556
 21
135.685398
 31
0.0
  0
LWPOLYLINE
  5
131
100
AcDbEntity
  8
Raspored_senzora_-_Varijanta_2.2,_1-1@A3
 62
1
100
AcDbPolyline
 90
4
 70
1
 10
232.014889
 20
126.774231
 30
0.0
 10
232.014889
 20
132.192898
 30
0.0
 10
242.640556
 20
132.192898
 30
0.0
 10
242.640556
 20
126.774231
 30
0.0
  0
ENDSEC
  0
SECTION
  2
OBJECTS
  0
DICTIONARY
  5
C
330
0
100
AcDbDictionary
  3
ACAD_GROUP
350
D
  3
ACAD_MLINESTYLE
350
17
  0
DICTIONARY
  5
D
330
C
100
AcDbDictionary
  0
DICTIONARY
  5
1A
330
C
100
AcDbDictionary
  0
DICTIONARY
  5
17
330
C
100
AcDbDictionary
  3
STANDARD
350
18
  0
DICTIONARY
  5
19
330
C
100
AcDbDictionary
  0
ENDSEC
  0
EOF
