<?xml version="1.0" encoding="UTF-8" standalone="no"?>
<!-- Created with Inkscape (http://www.inkscape.org/) -->

<svg
   xmlns:dc="http://purl.org/dc/elements/1.1/"
   xmlns:cc="http://creativecommons.org/ns#"
   xmlns:rdf="http://www.w3.org/1999/02/22-rdf-syntax-ns#"
   xmlns:svg="http://www.w3.org/2000/svg"
   xmlns="http://www.w3.org/2000/svg"
   xmlns:sodipodi="http://sodipodi.sourceforge.net/DTD/sodipodi-0.dtd"
   xmlns:inkscape="http://www.inkscape.org/namespaces/inkscape"
   version="1.1"
   id="svg2"
   xml:space="preserve"
   width="1588"
   height="1122.6667"
   viewBox="0 0 1588 1122.6667"
   sodipodi:docname="placing.svg"
   inkscape:version="0.92.3 (2405546, 2018-03-11)"><metadata
     id="metadata8"><rdf:RDF><cc:Work
         rdf:about=""><dc:format>image/svg+xml</dc:format><dc:type
           rdf:resource="http://purl.org/dc/dcmitype/StillImage" /><dc:title></dc:title></cc:Work></rdf:RDF></metadata><defs
     id="defs6"><clipPath
       clipPathUnits="userSpaceOnUse"
       id="clipPath18"><path
         d="M 0,0 H 9883 V 6978 H 0 V 0"
         id="path16"
         inkscape:connector-curvature="0" /></clipPath><clipPath
       clipPathUnits="userSpaceOnUse"
       id="clipPath848"><path
         d="M 0,0 H 9883 V 6978 H 0 V 0"
         id="path846"
         inkscape:connector-curvature="0" /></clipPath><clipPath
       clipPathUnits="userSpaceOnUse"
       id="clipPath860"><path
         d="M 0,0 H 9883 V 6978 H 0 V 0"
         id="path858"
         inkscape:connector-curvature="0" /></clipPath></defs><sodipodi:namedview
     pagecolor="#ffffff"
     bordercolor="#666666"
     borderopacity="1"
     objecttolerance="10"
     gridtolerance="10"
     guidetolerance="10"
     inkscape:pageopacity="0"
     inkscape:pageshadow="2"
     inkscape:window-width="1319"
     inkscape:window-height="740"
     id="namedview4"
     showgrid="false"
     inkscape:zoom="2.3782972"
     inkscape:cx="473.43095"
     inkscape:cy="534.64908"
     inkscape:window-x="1415"
     inkscape:window-y="0"
     inkscape:window-maximized="1"
     inkscape:current-layer="g854" /><g
     id="g10"
     inkscape:groupmode="layer"
     inkscape:label="Raspored senzora - Varijanta 2.2, 1-1@A3"
     transform="matrix(0.16,0,0,-0.16,2.6666666,1120)"><g
       id="g12"><g
         id="g14"
         clip-path="url(#clipPath18)"><path
           d="m 2940,3409.4392 c 0.034,87.5371 -70.9021,158.5271 -158.4392,158.5608 -87.5371,0.034 -158.5271,-70.9021 -158.5608,-158.4392"
           style="fill:none;stroke:#989898;stroke-width:4;stroke-linecap:round;stroke-linejoin:round;stroke-miterlimit:10;stroke-dasharray:none;stroke-opacity:1"
           id="path802"
           inkscape:connector-curvature="0" /><path
           d="M 2622,3409 2496,3283"
           style="fill:none;stroke:#989898;stroke-width:4;stroke-linecap:round;stroke-linejoin:round;stroke-miterlimit:10;stroke-dasharray:none;stroke-opacity:1"
           id="path804"
           inkscape:connector-curvature="0" /><path
           d="m 2496.4304,3284.0886 c -11.4778,-12.487 -16.9712,-29.3406 -15.0564,-46.1926"
           style="fill:none;stroke:#989898;stroke-width:4;stroke-linecap:round;stroke-linejoin:round;stroke-miterlimit:10;stroke-dasharray:none;stroke-opacity:1"
           id="path806"
           inkscape:connector-curvature="0" /><path
           d="M 2481,3237 V 2218 h 540 l 60,60 v 959"
           style="fill:none;stroke:#989898;stroke-width:4;stroke-linecap:round;stroke-linejoin:round;stroke-miterlimit:10;stroke-dasharray:none;stroke-opacity:1"
           id="path808"
           inkscape:connector-curvature="0" /><path
           d="m 3081.7747,3237.1973 c 1.4333,16.8332 -4.0088,33.5295 -15.0865,46.2846"
           style="fill:none;stroke:#989898;stroke-width:4;stroke-linecap:round;stroke-linejoin:round;stroke-miterlimit:10;stroke-dasharray:none;stroke-opacity:1"
           id="path810"
           inkscape:connector-curvature="0" /><path
           d="m 3066,3283 -126,126"
           style="fill:none;stroke:#989898;stroke-width:4;stroke-linecap:round;stroke-linejoin:round;stroke-miterlimit:10;stroke-dasharray:none;stroke-opacity:1"
           id="path812"
           inkscape:connector-curvature="0" /><path
           d="m 3799,3490.5 c 0,6.3513 -5.1487,11.5 -11.5,11.5"
           style="fill:none;stroke:#989898;stroke-width:4;stroke-linecap:round;stroke-linejoin:round;stroke-miterlimit:10;stroke-dasharray:none;stroke-opacity:1"
           id="path814"
           inkscape:connector-curvature="0" /><path
           d="M 3787,3502 H 3610"
           style="fill:none;stroke:#989898;stroke-width:4;stroke-linecap:round;stroke-linejoin:round;stroke-miterlimit:10;stroke-dasharray:none;stroke-opacity:1"
           id="path816"
           inkscape:connector-curvature="0" /><path
           d="m 3610.5,3502 c -6.3513,0 -11.5,-5.1487 -11.5,-11.5"
           style="fill:none;stroke:#989898;stroke-width:4;stroke-linecap:round;stroke-linejoin:round;stroke-miterlimit:10;stroke-dasharray:none;stroke-opacity:1"
           id="path818"
           inkscape:connector-curvature="0" /><path
           d="M 3598,3490 V 3388"
           style="fill:none;stroke:#989898;stroke-width:4;stroke-linecap:round;stroke-linejoin:round;stroke-miterlimit:10;stroke-dasharray:none;stroke-opacity:1"
           id="path820"
           inkscape:connector-curvature="0" /><path
           d="m 3551,3388.5 c 0,-12.9788 10.5212,-23.5 23.5,-23.5 12.9788,0 23.5,10.5212 23.5,23.5"
           style="fill:none;stroke:#989898;stroke-width:4;stroke-linecap:round;stroke-linejoin:round;stroke-miterlimit:10;stroke-dasharray:none;stroke-opacity:1"
           id="path822"
           inkscape:connector-curvature="0" /><path
           d="m 3551,3388 v 95"
           style="fill:none;stroke:#989898;stroke-width:4;stroke-linecap:round;stroke-linejoin:round;stroke-miterlimit:10;stroke-dasharray:none;stroke-opacity:1"
           id="path824"
           inkscape:connector-curvature="0" /><path
           d="m 3551.2102,3483.1953 c -29.9145,25.073 -73.5058,25.073 -103.4204,0"
           style="fill:none;stroke:#989898;stroke-width:4;stroke-linecap:round;stroke-linejoin:round;stroke-miterlimit:10;stroke-dasharray:none;stroke-opacity:1"
           id="path826"
           inkscape:connector-curvature="0" /><path
           d="m 3447,3483 v -95"
           style="fill:none;stroke:#989898;stroke-width:4;stroke-linecap:round;stroke-linejoin:round;stroke-miterlimit:10;stroke-dasharray:none;stroke-opacity:1"
           id="path828"
           inkscape:connector-curvature="0" /><path
           d="m 3400,3388.5 c 0,-12.9788 10.5212,-23.5 23.5,-23.5 12.9788,0 23.5,10.5212 23.5,23.5"
           style="fill:none;stroke:#989898;stroke-width:4;stroke-linecap:round;stroke-linejoin:round;stroke-miterlimit:10;stroke-dasharray:none;stroke-opacity:1"
           id="path830"
           inkscape:connector-curvature="0" /><path
           d="m 3400,3388 v 102"
           style="fill:none;stroke:#989898;stroke-width:4;stroke-linecap:round;stroke-linejoin:round;stroke-miterlimit:10;stroke-dasharray:none;stroke-opacity:1"
           id="path832"
           inkscape:connector-curvature="0" /><path
           d="m 3400,3490.5 c 0,6.3513 -5.1487,11.5 -11.5,11.5"
           style="fill:none;stroke:#989898;stroke-width:4;stroke-linecap:round;stroke-linejoin:round;stroke-miterlimit:10;stroke-dasharray:none;stroke-opacity:1"
           id="path834"
           inkscape:connector-curvature="0" /><path
           d="M 3388,3502 H 3211"
           style="fill:none;stroke:#989898;stroke-width:4;stroke-linecap:round;stroke-linejoin:round;stroke-miterlimit:10;stroke-dasharray:none;stroke-opacity:1"
           id="path836"
           inkscape:connector-curvature="0" /><path
           d="m 3211.5,3502 c -6.3513,0 -11.5,-5.1487 -11.5,-11.5"
           style="fill:none;stroke:#989898;stroke-width:4;stroke-linecap:round;stroke-linejoin:round;stroke-miterlimit:10;stroke-dasharray:none;stroke-opacity:1"
           id="path838"
           inkscape:connector-curvature="0" /><path
           d="m 3199,3490 v -664 h 541 l 59,59 v 605"
           style="fill:none;stroke:#989898;stroke-width:4;stroke-linecap:round;stroke-linejoin:round;stroke-miterlimit:10;stroke-dasharray:none;stroke-opacity:1"
           id="path840"
           inkscape:connector-curvature="0" /></g></g><g
       id="g854"><g
         id="g856"
         clip-path="url(#clipPath860)"><path
           d="m 4635,2887 h 540 l 60,60 v 952 l -48,1"
           style="fill:none;stroke:#989898;stroke-width:4;stroke-linecap:round;stroke-linejoin:round;stroke-miterlimit:10;stroke-dasharray:none;stroke-opacity:1"
           id="path1006"
           inkscape:connector-curvature="0" /><path
           d="m 5187.5,3900 c -55.1084,0 -109.7827,-9.7436 -161.4985,-28.7808"
           style="fill:none;stroke:#989898;stroke-width:4;stroke-linecap:round;stroke-linejoin:round;stroke-miterlimit:10;stroke-dasharray:none;stroke-opacity:1"
           id="path1008"
           inkscape:connector-curvature="0" /><path
           d="m 5026.5024,3871.3044 c -56.8715,-20.7002 -102.082,-64.8779 -124.0908,-121.2563"
           style="fill:none;stroke:#989898;stroke-width:4;stroke-linecap:round;stroke-linejoin:round;stroke-miterlimit:10;stroke-dasharray:none;stroke-opacity:1"
           id="path1010"
           inkscape:connector-curvature="0" /><path
           d="m 4901.5352,3749.9946 c -33.0958,62.5503 -97.6968,102.0452 -168.4566,102.9883"
           style="fill:none;stroke:#989898;stroke-width:4;stroke-linecap:round;stroke-linejoin:round;stroke-miterlimit:10;stroke-dasharray:none;stroke-opacity:1"
           id="path1012"
           inkscape:connector-curvature="0" /><path
           d="m 4733,3852 4,-44"
           style="fill:none;stroke:#989898;stroke-width:4;stroke-linecap:round;stroke-linejoin:round;stroke-miterlimit:10;stroke-dasharray:none;stroke-opacity:1"
           id="path1014"
           inkscape:connector-curvature="0" /><path
           d="m 4737.5659,3807.9815 c -1.9297,-33.1785 1.0811,-66.4595 8.9336,-98.753"
           style="fill:none;stroke:#989898;stroke-width:4;stroke-linecap:round;stroke-linejoin:round;stroke-miterlimit:10;stroke-dasharray:none;stroke-opacity:1"
           id="path1016"
           inkscape:connector-curvature="0" /><path
           d="m 4747.0234,3709.7263 c -38.5229,4.5752 -77.5014,-3.2441 -111.2793,-22.3235"
           style="fill:none;stroke:#989898;stroke-width:4;stroke-linecap:round;stroke-linejoin:round;stroke-miterlimit:10;stroke-dasharray:none;stroke-opacity:1"
           id="path1018"
           inkscape:connector-curvature="0" /><path
           d="M 4635,3686 V 2887"
           style="fill:none;stroke:#989898;stroke-width:4;stroke-linecap:round;stroke-linejoin:round;stroke-miterlimit:10;stroke-dasharray:none;stroke-opacity:1"
           id="path1020"
           inkscape:connector-curvature="0" /><path
           d="m 4355.8115,3347.0906 c 37.3062,66.6572 21.7622,150.4407 -36.9712,199.28 -58.7339,48.8391 -143.9468,48.8391 -202.6806,0 -58.7334,-48.8393 -74.2774,-132.6228 -36.9712,-199.28"
           style="fill:none;stroke:#989898;stroke-width:4;stroke-linecap:round;stroke-linejoin:round;stroke-miterlimit:10;stroke-dasharray:none;stroke-opacity:1"
           id="path2866"
           inkscape:connector-curvature="0" /><path
           d="m 4078,3346 -146,-35"
           style="fill:none;stroke:#989898;stroke-width:4;stroke-linecap:round;stroke-linejoin:round;stroke-miterlimit:10;stroke-dasharray:none;stroke-opacity:1"
           id="path2868"
           inkscape:connector-curvature="0" /><path
           d="m 3932.9241,3311.2859 c -9.4453,-5.845 -15.114,-16.2327 -14.9192,-27.3386"
           style="fill:none;stroke:#989898;stroke-width:4;stroke-linecap:round;stroke-linejoin:round;stroke-miterlimit:10;stroke-dasharray:none;stroke-opacity:1"
           id="path2870"
           inkscape:connector-curvature="0" /><path
           d="M 3917,3283 V 2233 h 540 l 60,60 v 990"
           style="fill:none;stroke:#989898;stroke-width:4;stroke-linecap:round;stroke-linejoin:round;stroke-miterlimit:10;stroke-dasharray:none;stroke-opacity:1"
           id="path2872"
           inkscape:connector-curvature="0" /><path
           d="m 4516.9922,3283.7964 c 0.2495,11.1802 -5.4468,21.6548 -14.9678,27.5212"
           style="fill:none;stroke:#989898;stroke-width:4;stroke-linecap:round;stroke-linejoin:round;stroke-miterlimit:10;stroke-dasharray:none;stroke-opacity:1"
           id="path2874"
           inkscape:connector-curvature="0" /><path
           d="m 4502,3311 -146,35"
           style="fill:none;stroke:#989898;stroke-width:4;stroke-linecap:round;stroke-linejoin:round;stroke-miterlimit:10;stroke-dasharray:none;stroke-opacity:1"
           id="path2876"
           inkscape:connector-curvature="0" /><path
           d="M 5825,3897 H 5629"
           style="fill:none;stroke:#989898;stroke-width:4;stroke-linecap:round;stroke-linejoin:round;stroke-miterlimit:10;stroke-dasharray:none;stroke-opacity:1"
           id="path2886"
           inkscape:connector-curvature="0" /><path
           d="m 5630,3897.5 c 0,22.3674 -18.1323,40.5 -40.5,40.5 -22.3677,0 -40.5,-18.1326 -40.5,-40.5"
           style="fill:none;stroke:#989898;stroke-width:4;stroke-linecap:round;stroke-linejoin:round;stroke-miterlimit:10;stroke-dasharray:none;stroke-opacity:1"
           id="path2888"
           inkscape:connector-curvature="0" /><path
           d="M 5549,3897 H 5353 V 3712"
           style="fill:none;stroke:#989898;stroke-width:4;stroke-linecap:round;stroke-linejoin:round;stroke-miterlimit:10;stroke-dasharray:none;stroke-opacity:1"
           id="path2890"
           inkscape:connector-curvature="0" /><path
           d="m 5353.5,3594 c 32.8608,0 59.5,26.6392 59.5,59.5 0,32.8608 -26.6392,59.5 -59.5,59.5"
           style="fill:none;stroke:#989898;stroke-width:4;stroke-linecap:round;stroke-linejoin:round;stroke-miterlimit:10;stroke-dasharray:none;stroke-opacity:1"
           id="path2892"
           inkscape:connector-curvature="0" /><path
           d="M 5353,3594 V 3228"
           style="fill:none;stroke:#989898;stroke-width:4;stroke-linecap:round;stroke-linejoin:round;stroke-miterlimit:10;stroke-dasharray:none;stroke-opacity:1"
           id="path2894"
           inkscape:connector-curvature="0" /><path
           d="m 5353.5,3229 c -22.3677,0 -40.5,-18.1326 -40.5,-40.5 0,-22.3674 18.1323,-40.5 40.5,-40.5"
           style="fill:none;stroke:#989898;stroke-width:4;stroke-linecap:round;stroke-linejoin:round;stroke-miterlimit:10;stroke-dasharray:none;stroke-opacity:1"
           id="path2896"
           inkscape:connector-curvature="0" /><path
           d="m 5353,3148 v -196 h 472 v 196"
           style="fill:none;stroke:#989898;stroke-width:4;stroke-linecap:round;stroke-linejoin:round;stroke-miterlimit:10;stroke-dasharray:none;stroke-opacity:1"
           id="path2898"
           inkscape:connector-curvature="0" /><path
           d="m 5825.5,3148 c 22.3677,0 40.5,18.1326 40.5,40.5 0,22.3674 -18.1323,40.5 -40.5,40.5"
           style="fill:none;stroke:#989898;stroke-width:4;stroke-linecap:round;stroke-linejoin:round;stroke-miterlimit:10;stroke-dasharray:none;stroke-opacity:1"
           id="path2900"
           inkscape:connector-curvature="0" /><path
           d="m 5825,3228 v 366"
           style="fill:none;stroke:#989898;stroke-width:4;stroke-linecap:round;stroke-linejoin:round;stroke-miterlimit:10;stroke-dasharray:none;stroke-opacity:1"
           id="path2902"
           inkscape:connector-curvature="0" /><path
           d="m 5825.5,3713 c -32.8608,0 -59.5,-26.6392 -59.5,-59.5 0,-32.8608 26.6392,-59.5 59.5,-59.5"
           style="fill:none;stroke:#989898;stroke-width:4;stroke-linecap:round;stroke-linejoin:round;stroke-miterlimit:10;stroke-dasharray:none;stroke-opacity:1"
           id="path2904"
           inkscape:connector-curvature="0" /><path
           d="m 5825,3712 v 185"
           style="fill:none;stroke:#989898;stroke-width:4;stroke-linecap:round;stroke-linejoin:round;stroke-miterlimit:10;stroke-dasharray:none;stroke-opacity:1"
           id="path2906"
           inkscape:connector-curvature="0" /><path
           d="m 5618,3897.5 c 0,15.7402 -12.7598,28.5 -28.5,28.5 -15.7402,0 -28.5,-12.7598 -28.5,-28.5 0,-15.7402 12.7598,-28.5 28.5,-28.5 15.7402,0 28.5,12.7598 28.5,28.5"
           style="fill:none;stroke:#989898;stroke-width:4;stroke-linecap:round;stroke-linejoin:round;stroke-miterlimit:10;stroke-dasharray:none;stroke-opacity:1"
           id="path2908"
           inkscape:connector-curvature="0" /><path
           d="m 5854,3188.5 c 0,15.7402 -12.7598,28.5 -28.5,28.5 -15.7402,0 -28.5,-12.7598 -28.5,-28.5 0,-15.7402 12.7598,-28.5 28.5,-28.5 15.7402,0 28.5,12.7598 28.5,28.5"
           style="fill:none;stroke:#989898;stroke-width:4;stroke-linecap:round;stroke-linejoin:round;stroke-miterlimit:10;stroke-dasharray:none;stroke-opacity:1"
           id="path2910"
           inkscape:connector-curvature="0" /><path
           d="m 5382,3188.5 c 0,15.7402 -12.7598,28.5 -28.5,28.5 -15.7402,0 -28.5,-12.7598 -28.5,-28.5 0,-15.7402 12.7598,-28.5 28.5,-28.5 15.7402,0 28.5,12.7598 28.5,28.5"
           style="fill:none;stroke:#989898;stroke-width:4;stroke-linecap:round;stroke-linejoin:round;stroke-miterlimit:10;stroke-dasharray:none;stroke-opacity:1"
           id="path2912"
           inkscape:connector-curvature="0" /><path
           d="m 5289,2834 v -676 h 540 l 60,60 v 616 h -600"
           style="fill:none;stroke:#989898;stroke-width:4;stroke-linecap:round;stroke-linejoin:round;stroke-miterlimit:10;stroke-dasharray:none;stroke-opacity:1"
           id="path2924"
           inkscape:connector-curvature="0" /><path
           d="m 5464,2978 v 128 h 251 v -128 h -251"
           style="fill:none;stroke:#989898;stroke-width:4;stroke-linecap:round;stroke-linejoin:round;stroke-miterlimit:10;stroke-dasharray:none;stroke-opacity:1"
           id="path2934"
           inkscape:connector-curvature="0" /></g></g></g></svg>